<svg
  version="1.1"
  width="112"
  height="112"
  xmlns="http://www.w3.org/2000/svg"
  shape-rendering="crispEdges"
>
  <rect x="0" y="0" width="4" height="96" fill="#000000" />
  <rect x="4" y="0" width="4" height="4" fill="#000000" />
  <rect x="16" y="0" width="4" height="4" fill="#000000" />
  <rect x="36" y="0" width="64" height="4" fill="#000000" />
  <rect x="104" y="0" width="4" height="4" fill="#000000" />
  <rect x="108" y="0" width="4" height="96" fill="#000000" />
  <rect x="8" y="4" width="8" height="4" fill="#000000" />
  <rect x="20" y="4" width="4" height="12" fill="#000000" />
  <rect x="32" y="4" width="4" height="12" fill="#000000" />
  <rect x="100" y="4" width="4" height="4" fill="#000000" />
  <rect x="24" y="8" width="8" height="8" fill="#000000" />
  <rect x="44" y="80" width="12" height="4" fill="#000000" />
  <rect x="56" y="80" width="4" height="8" fill="#000000" />
  <rect x="60" y="80" width="4" height="4" fill="#000000" />
  <rect x="8" y="88" width="4" height="12" fill="#000000" />
  <rect x="100" y="88" width="4" height="12" fill="#000000" />
  <rect x="4" y="96" width="4" height="4" fill="#000000" />
  <rect x="12" y="96" width="4" height="12" fill="#000000" />
  <rect x="96" y="96" width="4" height="12" fill="#000000" />
  <rect x="20" y="104" width="4" height="8" fill="#000000" />
  <rect x="88" y="104" width="4" height="8" fill="#000000" />
  <rect x="104" y="96" width="4" height="4" fill="#000000" />
  <rect x="16" y="108" width="4" height="4" fill="#000000" />
  <rect x="24" y="108" width="64" height="4" fill="#000000" />
  <rect x="92" y="108" width="4" height="4" fill="#000000" />
  <rect x="4" y="4" width="4" height="80" fill="#847E87" />
  <rect x="16" y="4" width="4" height="92" fill="#847E87" />
  <rect x="8" y="8" width="4" height="76" fill="#847E87" />
  <rect x="12" y="8" width="4" height="84" fill="#847E87" />
  <rect x="104" y="8" width="4" height="72" fill="#847E87" />
  <rect x="100" y="12" width="4" height="72" fill="#847E87" />
  <rect x="24" y="48" width="8" height="4" fill="#847E87" />
  <rect x="36" y="68" width="4" height="28" fill="#847E87" />
  <rect x="96" y="68" width="4" height="24" fill="#847E87" />
  <rect x="40" y="72" width="4" height="24" fill="#847E87" />
  <rect x="92" y="72" width="4" height="24" fill="#847E87" />
  <rect x="44" y="76" width="20" height="4" fill="#847E87" />
  <rect x="64" y="76" width="28" height="20" fill="#847E87" />
  <rect x="44" y="84" width="4" height="12" fill="#847E87" />
  <rect x="48" y="88" width="4" height="8" fill="#847E87" />
  <rect x="60" y="88" width="4" height="8" fill="#847E87" />
  <rect x="52" y="92" width="8" height="4" fill="#847E87" />
  <rect x="88" y="4" width="4" height="4" fill="#DEEDD6" />
  <rect x="48" y="8" width="4" height="4" fill="#DEEDD6" />
  <rect x="66" y="8" width="4" height="4" fill="#DEEDD6" />
  <rect x="62" y="12" width="4" height="4" fill="#DEEDD6" />
  <rect x="58" y="16" width="4" height="4" fill="#DEEDD6" />
  <rect x="62" y="20" width="4" height="8" fill="#DEEDD6" />
  <rect x="48" y="24" width="4" height="4" fill="#DEEDD6" />
  <rect x="84" y="24" width="4" height="4" fill="#DEEDD6" />
  <rect x="44" y="28" width="4" height="4" fill="#DEEDD6" />
  <rect x="76" y="28" width="4" height="12" fill="#DEEDD6" />
  <rect x="80" y="28" width="4" height="4" fill="#DEEDD6" />
  <rect x="40" y="32" width="4" height="4" fill="#DEEDD6" />
  <rect x="44" y="36" width="4" height="4" fill="#DEEDD6" />
  <rect x="62" y="40" width="4" height="8" fill="#DEEDD6" />
  <rect x="66" y="40" width="4" height="4" fill="#DEEDD6" />
  <rect x="40" y="48" width="4" height="4" fill="#DEEDD6" />
  <rect x="48" y="40" width="4" height="4" fill="#DEEDD6" />
  <rect x="58" y="48" width="4" height="4" fill="#DEEDD6" />
  <rect x="48" y="60" width="4" height="4" fill="#DEEDD6" />
  <rect x="4" y="84" width="8" height="4" fill="#DEEDD6" />
  <rect x="62" y="52" width="4" height="4" fill="#DEEDD6" />
  <rect x="84" y="52" width="4" height="4" fill="#DEEDD6" />
  <rect x="74" y="60" width="4" height="4" fill="#DEEDD6" />
  <rect x="92" y="60" width="4" height="4" fill="#DEEDD6" />
  <rect x="64" y="68" width="4" height="4" fill="#DEEDD6" />
  <rect x="100" y="84" width="8" height="4" fill="#DEEDD6" />
  <rect x="12" y="92" width="4" height="4" fill="#DEEDD6" />
  <rect x="16" y="96" width="4" height="4" fill="#DEEDD6" />
  <rect x="24" y="96" width="8" height="4" fill="#DEEDD6" />
  <rect x="36" y="96" width="60" height="4" fill="#DEEDD6" />
  <rect x="96" y="92" width="4" height="4" fill="#DEEDD6" />
  <rect x="36" y="4" width="4" height="64" fill="#4E4A4E" />
  <rect x="96" y="4" width="4" height="64" fill="#4E4A4E" />
  <rect x="104" y="4" width="4" height="4" fill="#4E4A4E" />
  <rect x="100" y="8" width="4" height="4" fill="#4E4A4E" />
  <rect x="52" y="84" width="4" height="4" fill="#4E4A4E" />
  <rect x="40" y="68" width="4" height="4" fill="#4E4A4E" />
  <rect x="92" y="68" width="4" height="4" fill="#4E4A4E" />
  <rect x="44" y="72" width="48" height="4" fill="#4E4A4E" />
  <rect x="104" y="80" width="4" height="4" fill="#4E4A4E" />
  <rect x="60" y="84" width="4" height="4" fill="#4E4A4E" />
  <rect x="4" y="88" width="4" height="8" fill="#4E4A4E" />
  <rect x="56" y="88" width="4" height="4" fill="#4E4A4E" />
  <rect x="104" y="88" width="4" height="8" fill="#4E4A4E" />
  <rect x="92" y="100" width="4" height="8" fill="#4E4A4E" />
  <rect x="16" y="100" width="4" height="8" fill="#4E4A4E" />
  <rect x="20" y="100" width="72" height="4" fill="#4E4A4E" />
  <rect x="40" y="4" width="4" height="24" fill="#DAD45E" />
  <rect x="44" y="4" width="4" height="8" fill="#DAD45E" />
  <rect x="48" y="4" width="4" height="4" fill="#DAD45E" />
  <rect x="52" y="4" width="2" height="20" fill="#DAD45E" />
  <rect x="54" y="4" width="4" height="12" fill="#DAD45E" />
  <rect x="58" y="4" width="8" height="4" fill="#DAD45E" />
  <rect x="70" y="4" width="4" height="4" fill="#DAD45E" />
  <rect x="74" y="4" width="4" height="8" fill="#DAD45E" />
  <rect x="78" y="4" width="4" height="12" fill="#DAD45E" />
  <rect x="82" y="4" width="2" height="20" fill="#DAD45E" />
  <rect x="84" y="4" width="4" height="16" fill="#DAD45E" />
  <rect x="88" y="8" width="4" height="16" fill="#DAD45E" />
  <rect x="92" y="8" width="4" height="20" fill="#DAD45E" />
  <rect x="48" y="12" width="4" height="8" fill="#DAD45E" />
  <rect x="44" y="16" width="4" height="8" fill="#DAD45E" />
  <rect x="54" y="20" width="4" height="4" fill="#DAD45E" />
  <rect x="78" y="20" width="4" height="4" fill="#DAD45E" />
  <rect x="40" y="40" width="4" height="8" fill="#DAD45E" />
  <rect x="92" y="40" width="4" height="20" fill="#DAD45E" />
  <rect x="44" y="44" width="4" height="28" fill="#DAD45E" />
  <rect x="52" y="44" width="2" height="28" fill="#DAD45E" />
  <rect x="54" y="44" width="4" height="4" fill="#DAD45E" />
  <rect x="78" y="44" width="4" height="4" fill="#DAD45E" />
  <rect x="82" y="44" width="2" height="24" fill="#DAD45E" />
  <rect x="88" y="44" width="4" height="4" fill="#DAD45E" />
  <rect x="48" y="48" width="4" height="8" fill="#DAD45E" />
  <rect x="84" y="48" width="4" height="4" fill="#DAD45E" />
  <rect x="40" y="52" width="4" height="16" fill="#DAD45E" />
  <rect x="54" y="52" width="4" height="20" fill="#DAD45E" />
  <rect x="78" y="52" width="4" height="20" fill="#DAD45E" />
  <rect x="88" y="52" width="4" height="20" fill="#DAD45E" />
  <rect x="58" y="56" width="4" height="16" fill="#DAD45E" />
  <rect x="74" y="56" width="4" height="4" fill="#DAD45E" />
  <rect x="84" y="56" width="2" height="12" fill="#DAD45E" />
  <rect x="86" y="56" width="2" height="16" fill="#DAD45E" />
  <rect x="62" y="60" width="2" height="12" fill="#DAD45E" />
  <rect x="48" y="64" width="4" height="8" fill="#DAD45E" />
  <rect x="64" y="60" width="2" height="8" fill="#DAD45E" />
  <rect x="70" y="60" width="4" height="12" fill="#DAD45E" />
  <rect x="66" y="64" width="2" height="4" fill="#DAD45E" />
  <rect x="68" y="64" width="2" height="8" fill="#DAD45E" />
  <rect x="74" y="64" width="4" height="8" fill="#DAD45E" />
  <rect x="92" y="64" width="4" height="4" fill="#DAD45E" />
  <rect x="66" y="4" width="4" height="4" fill="#5A7DCE" />
  <rect x="62" y="8" width="4" height="4" fill="#5A7DCE" />
  <rect x="70" y="8" width="4" height="4" fill="#5A7DCE" />
  <rect x="58" y="12" width="4" height="4" fill="#5A7DCE" />
  <rect x="74" y="12" width="4" height="4" fill="#5A7DCE" />
  <rect x="54" y="16" width="4" height="4" fill="#5A7DCE" />
  <rect x="78" y="16" width="4" height="4" fill="#5A7DCE" />
  <rect x="48" y="20" width="4" height="4" fill="#5A7DCE" />
  <rect x="58" y="20" width="2" height="8" fill="#5A7DCE" />
  <rect x="60" y="20" width="2" height="28" fill="#5A7DCE" />
  <rect x="74" y="20" width="2" height="28" fill="#5A7DCE" />
  <rect x="76" y="20" width="2" height="8" fill="#5A7DCE" />
  <rect x="84" y="20" width="4" height="4" fill="#5A7DCE" />
  <rect x="44" y="24" width="4" height="4" fill="#5A7DCE" />
  <rect x="52" y="24" width="6" height="4" fill="#5A7DCE" />
  <rect x="78" y="24" width="6" height="4" fill="#5A7DCE" />
  <rect x="88" y="24" width="4" height="4" fill="#5A7DCE" />
  <rect x="62" y="28" width="12" height="12" fill="#5A7DCE" />
  <rect x="92" y="28" width="4" height="4" fill="#5A7DCE" />
  <rect x="92" y="36" width="4" height="4" fill="#5A7DCE" />
  <rect x="40" y="28" width="4" height="4" fill="#5A7DCE" />
  <rect x="40" y="36" width="4" height="4" fill="#5A7DCE" />
  <rect x="44" y="40" width="4" height="4" fill="#5A7DCE" />
  <rect x="52" y="40" width="6" height="4" fill="#5A7DCE" />
  <rect x="58" y="40" width="2" height="8" fill="#5A7DCE" />
  <rect x="76" y="40" width="2" height="8" fill="#5A7DCE" />
  <rect x="78" y="40" width="6" height="4" fill="#5A7DCE" />
  <rect x="88" y="40" width="4" height="4" fill="#5A7DCE" />
  <rect x="48" y="44" width="4" height="4" fill="#5A7DCE" />
  <rect x="84" y="44" width="4" height="4" fill="#5A7DCE" />
  <rect x="54" y="48" width="4" height="4" fill="#5A7DCE" />
  <rect x="78" y="48" width="4" height="4" fill="#5A7DCE" />
  <rect x="58" y="52" width="4" height="4" fill="#5A7DCE" />
  <rect x="74" y="52" width="4" height="4" fill="#5A7DCE" />
  <rect x="62" y="56" width="4" height="4" fill="#5A7DCE" />
  <rect x="70" y="56" width="4" height="4" fill="#5A7DCE" />
  <rect x="66" y="60" width="4" height="4" fill="#5A7DCE" />
  <rect x="92" y="4" width="4" height="4" fill="#D77BBA" />
  <rect x="58" y="8" width="4" height="4" fill="#D77BBA" />
  <rect x="44" y="12" width="4" height="4" fill="#D77BBA" />
  <rect x="88" y="48" width="4" height="4" fill="#D77BBA" />
  <rect x="48" y="56" width="4" height="4" fill="#D77BBA" />
  <rect x="82" y="68" width="4" height="4" fill="#D77BBA" />
  <rect x="66" y="12" width="8" height="16" fill="#6EC2CA" />
  <rect x="62" y="16" width="4" height="4" fill="#6EC2CA" />
  <rect x="74" y="16" width="4" height="4" fill="#6EC2CA" />
  <rect x="48" y="28" width="12" height="12" fill="#6EC2CA" />
  <rect x="84" y="28" width="4" height="16" fill="#6EC2CA" />
  <rect x="88" y="28" width="4" height="12" fill="#6EC2CA" />
  <rect x="44" y="32" width="4" height="4" fill="#6EC2CA" />
  <rect x="80" y="32" width="4" height="8" fill="#6EC2CA" />
  <rect x="92" y="32" width="4" height="4" fill="#6EC2CA" />
  <rect x="70" y="40" width="4" height="16" fill="#6EC2CA" />
  <rect x="66" y="44" width="4" height="16" fill="#6EC2CA" />
  <rect x="62" y="48" width="4" height="4" fill="#6EC2CA" />
  <rect x="74" y="48" width="4" height="4" fill="#6EC2CA" />
  <rect x="20" y="16" width="4" height="84" fill="#442434" />
  <rect x="32" y="16" width="4" height="84" fill="#442434" />
  <rect x="24" y="20" width="8" height="4" fill="#442434" />
  <rect x="24" y="68" width="8" height="4" fill="#442434" />
  <rect x="24" y="28" width="8" height="4" fill="#442434" />
  <rect x="24" y="36" width="8" height="4" fill="#442434" />
  <rect x="24" y="44" width="8" height="4" fill="#442434" />
  <rect x="24" y="52" width="8" height="4" fill="#442434" />
  <rect x="24" y="60" width="8" height="4" fill="#442434" />
  <rect x="24" y="76" width="8" height="4" fill="#442434" />
  <rect x="24" y="84" width="8" height="4" fill="#442434" />
  <rect x="24" y="92" width="8" height="4" fill="#442434" />
  <rect x="24" y="16" width="8" height="4" fill="#837E86" />
  <rect x="24" y="24" width="8" height="4" fill="#837E86" />
  <rect x="24" y="32" width="8" height="4" fill="#837E86" />
  <rect x="24" y="40" width="8" height="4" fill="#837E86" />
  <rect x="24" y="80" width="8" height="4" fill="#837E86" />
  <rect x="24" y="56" width="8" height="4" fill="#837E86" />
  <rect x="24" y="64" width="8" height="4" fill="#837E86" />
  <rect x="24" y="72" width="8" height="4" fill="#837E86" />
  <rect x="24" y="88" width="8" height="4" fill="#837E86" />
  <rect x="52" y="88" width="4" height="4" fill="#9A939F" />
  <rect x="48" y="84" width="4" height="4" fill="#9A939F" />
  <rect x="24" y="104" width="4" height="4" fill="#D2AA9A" />
  <rect x="32" y="104" width="4" height="4" fill="#D2AA9A" />
  <rect x="40" y="104" width="8" height="4" fill="#D2AA9A" />
  <rect x="56" y="104" width="4" height="4" fill="#D2AA9A" />
  <rect x="64" y="104" width="4" height="4" fill="#D2AA9A" />
  <rect x="72" y="104" width="4" height="4" fill="#D2AA9A" />
  <rect x="84" y="104" width="4" height="4" fill="#D2AA9A" />
  <rect x="28" y="104" width="4" height="4" fill="#7D322C" />
  <rect x="36" y="104" width="4" height="4" fill="#7D322C" />
  <rect x="48" y="104" width="8" height="4" fill="#7D322C" />
  <rect x="60" y="104" width="4" height="4" fill="#7D322C" />
  <rect x="68" y="104" width="4" height="4" fill="#7D322C" />
  <rect x="76" y="104" width="8" height="4" fill="#7D322C" />
</svg>
