<svg
  version="1.1"
  width="112"
  height="112"
  xmlns="http://www.w3.org/2000/svg"
  shape-rendering="crispEdges"
>
  <rect x="0" y="0" width="4" height="96" fill="#000000" />
  <rect x="4" y="0" width="4" height="4" fill="#000000" />
  <rect x="16" y="0" width="4" height="4" fill="#000000" />
  <rect x="36" y="0" width="64" height="4" fill="#000000" />
  <rect x="104" y="0" width="4" height="4" fill="#000000" />
  <rect x="108" y="0" width="4" height="96" fill="#000000" />
  <rect x="8" y="4" width="8" height="4" fill="#000000" />
  <rect x="20" y="4" width="4" height="12" fill="#000000" />
  <rect x="32" y="4" width="4" height="12" fill="#000000" />
  <rect x="100" y="4" width="4" height="4" fill="#000000" />
  <rect x="24" y="8" width="8" height="8" fill="#000000" />
  <rect x="44" y="80" width="12" height="4" fill="#000000" />
  <rect x="56" y="80" width="4" height="8" fill="#000000" />
  <rect x="60" y="80" width="4" height="4" fill="#000000" />
  <rect x="8" y="88" width="4" height="12" fill="#000000" />
  <rect x="100" y="88" width="4" height="12" fill="#000000" />
  <rect x="4" y="96" width="4" height="4" fill="#000000" />
  <rect x="12" y="96" width="4" height="12" fill="#000000" />
  <rect x="96" y="96" width="4" height="12" fill="#000000" />
  <rect x="20" y="104" width="4" height="8" fill="#000000" />
  <rect x="88" y="104" width="4" height="8" fill="#000000" />
  <rect x="104" y="96" width="4" height="4" fill="#000000" />
  <rect x="16" y="108" width="4" height="4" fill="#000000" />
  <rect x="24" y="108" width="64" height="4" fill="#000000" />
  <rect x="92" y="108" width="4" height="4" fill="#000000" />
  <rect x="4" y="4" width="4" height="80" fill="#847E87" />
  <rect x="16" y="4" width="4" height="92" fill="#847E87" />
  <rect x="8" y="8" width="4" height="76" fill="#847E87" />
  <rect x="12" y="8" width="4" height="84" fill="#847E87" />
  <rect x="104" y="8" width="4" height="72" fill="#847E87" />
  <rect x="100" y="12" width="4" height="72" fill="#847E87" />
  <rect x="24" y="48" width="8" height="4" fill="#847E87" />
  <rect x="36" y="68" width="4" height="28" fill="#847E87" />
  <rect x="96" y="68" width="4" height="24" fill="#847E87" />
  <rect x="40" y="72" width="4" height="24" fill="#847E87" />
  <rect x="92" y="72" width="4" height="24" fill="#847E87" />
  <rect x="44" y="76" width="20" height="4" fill="#847E87" />
  <rect x="64" y="76" width="28" height="20" fill="#847E87" />
  <rect x="44" y="84" width="4" height="12" fill="#847E87" />
  <rect x="48" y="88" width="4" height="8" fill="#847E87" />
  <rect x="60" y="88" width="4" height="8" fill="#847E87" />
  <rect x="52" y="92" width="8" height="4" fill="#847E87" />
  <rect x="36" y="4" width="4" height="64" fill="#4E4A4E" />
  <rect x="96" y="4" width="4" height="64" fill="#4E4A4E" />
  <rect x="104" y="4" width="4" height="4" fill="#4E4A4E" />
  <rect x="100" y="8" width="4" height="4" fill="#4E4A4E" />
  <rect x="40" y="68" width="4" height="4" fill="#4E4A4E" />
  <rect x="92" y="68" width="4" height="4" fill="#4E4A4E" />
  <rect x="44" y="72" width="48" height="4" fill="#4E4A4E" />
  <rect x="104" y="80" width="4" height="4" fill="#4E4A4E" />
  <rect x="52" y="84" width="4" height="4" fill="#4E4A4E" />
  <rect x="60" y="84" width="4" height="4" fill="#4E4A4E" />
  <rect x="4" y="88" width="4" height="8" fill="#4E4A4E" />
  <rect x="56" y="88" width="4" height="4" fill="#4E4A4E" />
  <rect x="104" y="88" width="4" height="8" fill="#4E4A4E" />
  <rect x="92" y="100" width="4" height="8" fill="#4E4A4E" />
  <rect x="16" y="100" width="4" height="8" fill="#4E4A4E" />
  <rect x="20" y="100" width="72" height="4" fill="#4E4A4E" />
  <rect x="40" y="4" width="2" height="64" fill="#76428A" />
  <rect x="42" y="4" width="1" height="28" fill="#76428A" />
  <rect x="42" y="43" width="1" height="25" fill="#76428A" />
  <rect x="43" y="4" width="1" height="24" fill="#76428A" />
  <rect x="44" y="4" width="1" height="22" fill="#76428A" />
  <rect x="45" y="4" width="1" height="20" fill="#76428A" />
  <rect x="46" y="4" width="1" height="19" fill="#76428A" />
  <rect x="51" y="4" width="2" height="13" fill="#76428A" />
  <rect x="54" y="4" width="2" height="11" fill="#76428A" />
  <rect x="58" y="4" width="4" height="9" fill="#76428A" />
  <rect x="74" y="4" width="4" height="9" fill="#76428A" />
  <rect x="79" y="4" width="3" height="11" fill="#76428A" />
  <rect x="83" y="4" width="1" height="13" fill="#76428A" />
  <rect x="85" y="4" width="1" height="15" fill="#76428A" />
  <rect x="87" y="4" width="1" height="17" fill="#76428A" />
  <rect x="88" y="4" width="1" height="19" fill="#76428A" />
  <rect x="89" y="4" width="1" height="20" fill="#76428A" />
  <rect x="90" y="4" width="1" height="22" fill="#76428A" />
  <rect x="91" y="4" width="1" height="24" fill="#76428A" />
  <rect x="92" y="4" width="1" height="28" fill="#76428A" />
  <rect x="93" y="4" width="1" height="34" fill="#76428A" />
  <rect x="94" y="4" width="2" height="64" fill="#76428A" />
  <rect x="93" y="44" width="1" height="24" fill="#76428A" />
  <rect x="43" y="47" width="1" height="1" fill="#76428A" />
  <rect x="47" y="4" width="1" height="17" fill="#76428A" />
  <rect x="48" y="4" width="1" height="16" fill="#76428A" />
  <rect x="50" y="4" width="1" height="14" fill="#76428A" />
  <rect x="53" y="4" width="1" height="12" fill="#76428A" />
  <rect x="56" y="4" width="2" height="10" fill="#76428A" />
  <rect x="62" y="4" width="12" height="8" fill="#76428A" />
  <rect x="78" y="4" width="1" height="10" fill="#76428A" />
  <rect x="82" y="4" width="1" height="13" fill="#76428A" />
  <rect x="84" y="4" width="1" height="14" fill="#76428A" />
  <rect x="86" y="4" width="1" height="16" fill="#76428A" />
  <rect x="92" y="48" width="1" height="20" fill="#76428A" />
  <rect x="43" y="49" width="1" height="19" fill="#76428A" />
  <rect x="44" y="49" width="1" height="23" fill="#76428A" />
  <rect x="49" y="4" width="1" height="15" fill="#76428A" />
  <rect x="91" y="50" width="1" height="22" fill="#76428A" />
  <rect x="45" y="52" width="2" height="20" fill="#76428A" />
  <rect x="90" y="52" width="1" height="20" fill="#76428A" />
  <rect x="89" y="53" width="1" height="19" fill="#76428A" />
  <rect x="47" y="54" width="1" height="18" fill="#76428A" />
  <rect x="48" y="55" width="1" height="17" fill="#76428A" />
  <rect x="88" y="55" width="1" height="17" fill="#76428A" />
  <rect x="49" y="56" width="1" height="16" fill="#76428A" />
  <rect x="87" y="56" width="1" height="16" fill="#76428A" />
  <rect x="50" y="57" width="1" height="15" fill="#76428A" />
  <rect x="86" y="57" width="1" height="15" fill="#76428A" />
  <rect x="51" y="58" width="2" height="14" fill="#76428A" />
  <rect x="85" y="58" width="1" height="14" fill="#76428A" />
  <rect x="53" y="59" width="1" height="13" fill="#76428A" />
  <rect x="83" y="59" width="2" height="13" fill="#76428A" />
  <rect x="54" y="60" width="2" height="12" fill="#76428A" />
  <rect x="82" y="60" width="1" height="12" fill="#76428A" />
  <rect x="56" y="61" width="2" height="11" fill="#76428A" />
  <rect x="80" y="61" width="2" height="11" fill="#76428A" />
  <rect x="58" y="62" width="4" height="10" fill="#76428A" />
  <rect x="78" y="62" width="2" height="10" fill="#76428A" />
  <rect x="62" y="63" width="5" height="9" fill="#76428A" />
  <rect x="74" y="63" width="4" height="9" fill="#76428A" />
  <rect x="67" y="64" width="7" height="8" fill="#76428A" />
  <rect x="73" y="12" width="1" height="1" fill="#DEEDD6" />
  <rect x="77" y="13" width="1" height="1" fill="#DEEDD6" />
  <rect x="81" y="15" width="1" height="1" fill="#DEEDD6" />
  <rect x="93" y="38" width="1" height="6" fill="#DEEDD6" />
  <rect x="92" y="43" width="1" height="5" fill="#DEEDD6" />
  <rect x="91" y="47" width="1" height="3" fill="#DEEDD6" />
  <rect x="43" y="48" width="1" height="1" fill="#DEEDD6" />
  <rect x="90" y="49" width="1" height="3" fill="#DEEDD6" />
  <rect x="45" y="51" width="1" height="1" fill="#DEEDD6" />
  <rect x="89" y="51" width="1" height="2" fill="#DEEDD6" />
  <rect x="88" y="52" width="1" height="3" fill="#DEEDD6" />
  <rect x="48" y="54" width="1" height="1" fill="#DEEDD6" />
  <rect x="87" y="54" width="1" height="2" fill="#DEEDD6" />
  <rect x="86" y="55" width="1" height="2" fill="#DEEDD6" />
  <rect x="85" y="56" width="1" height="2" fill="#DEEDD6" />
  <rect x="84" y="57" width="1" height="2" fill="#DEEDD6" />
  <rect x="82" y="58" width="1" height="2" fill="#DEEDD6" />
  <rect x="83" y="58" width="1" height="1" fill="#DEEDD6" />
  <rect x="81" y="59" width="1" height="2" fill="#DEEDD6" />
  <rect x="79" y="60" width="1" height="2" fill="#DEEDD6" />
  <rect x="80" y="60" width="1" height="1" fill="#DEEDD6" />
  <rect x="77" y="61" width="1" height="2" fill="#DEEDD6" />
  <rect x="78" y="61" width="1" height="1" fill="#DEEDD6" />
  <rect x="73" y="62" width="1" height="2" fill="#DEEDD6" />
  <rect x="74" y="62" width="3" height="1" fill="#DEEDD6" />
  <rect x="67" y="63" width="6" height="1" fill="#DEEDD6" />
  <rect x="4" y="84" width="8" height="4" fill="#DEEDD6" />
  <rect x="100" y="84" width="8" height="4" fill="#DEEDD6" />
  <rect x="12" y="92" width="4" height="4" fill="#DEEDD6" />
  <rect x="16" y="96" width="4" height="4" fill="#DEEDD6" />
  <rect x="24" y="96" width="8" height="4" fill="#DEEDD6" />
  <rect x="36" y="96" width="60" height="4" fill="#DEEDD6" />
  <rect x="96" y="92" width="4" height="4" fill="#DEEDD6" />
  <rect x="62" y="12" width="2" height="5" fill="#30346D" />
  <rect x="64" y="12" width="1" height="23" fill="#30346D" />
  <rect x="65" y="12" width="1" height="17" fill="#30346D" />
  <rect x="66" y="12" width="1" height="14" fill="#30346D" />
  <rect x="67" y="12" width="1" height="11" fill="#30346D" />
  <rect x="68" y="12" width="1" height="14" fill="#30346D" />
  <rect x="69" y="12" width="1" height="17" fill="#30346D" />
  <rect x="70" y="12" width="3" height="5" fill="#30346D" />
  <rect x="73" y="13" width="1" height="4" fill="#30346D" />
  <rect x="74" y="13" width="2" height="5" fill="#30346D" />
  <rect x="76" y="13" width="1" height="6" fill="#30346D" />
  <rect x="77" y="14" width="1" height="5" fill="#30346D" />
  <rect x="78" y="14" width="1" height="6" fill="#30346D" />
  <rect x="79" y="15" width="2" height="6" fill="#30346D" />
  <rect x="81" y="16" width="1" height="6" fill="#30346D" />
  <rect x="82" y="17" width="1" height="6" fill="#30346D" />
  <rect x="83" y="17" width="1" height="7" fill="#30346D" />
  <rect x="70" y="18" width="1" height="17" fill="#30346D" />
  <rect x="84" y="18" width="1" height="8" fill="#30346D" />
  <rect x="85" y="19" width="1" height="8" fill="#30346D" />
  <rect x="63" y="20" width="1" height="15" fill="#30346D" />
  <rect x="71" y="20" width="1" height="15" fill="#30346D" />
  <rect x="86" y="20" width="1" height="9" fill="#30346D" />
  <rect x="87" y="21" width="1" height="15" fill="#30346D" />
  <rect x="62" y="23" width="1" height="14" fill="#30346D" />
  <rect x="72" y="23" width="1" height="13" fill="#30346D" />
  <rect x="88" y="23" width="1" height="13" fill="#30346D" />
  <rect x="89" y="24" width="1" height="27" fill="#30346D" />
  <rect x="61" y="26" width="1" height="19" fill="#30346D" />
  <rect x="73" y="26" width="1" height="19" fill="#30346D" />
  <rect x="90" y="26" width="1" height="23" fill="#30346D" />
  <rect x="74" y="28" width="1" height="16" fill="#30346D" />
  <rect x="91" y="28" width="1" height="19" fill="#30346D" />
  <rect x="65" y="31" width="5" height="4" fill="#30346D" />
  <rect x="75" y="31" width="1" height="13" fill="#30346D" />
  <rect x="76" y="31" width="1" height="16" fill="#30346D" />
  <rect x="77" y="31" width="2" height="4" fill="#30346D" />
  <rect x="79" y="31" width="1" height="29" fill="#30346D" />
  <rect x="80" y="31" width="1" height="10" fill="#30346D" />
  <rect x="81" y="31" width="1" height="9" fill="#30346D" />
  <rect x="82" y="31" width="2" height="8" fill="#30346D" />
  <rect x="84" y="31" width="2" height="7" fill="#30346D" />
  <rect x="86" y="31" width="1" height="6" fill="#30346D" />
  <rect x="92" y="32" width="1" height="11" fill="#30346D" />
  <rect x="77" y="36" width="1" height="19" fill="#30346D" />
  <rect x="78" y="36" width="1" height="25" fill="#30346D" />
  <rect x="62" y="40" width="1" height="12" fill="#30346D" />
  <rect x="71" y="40" width="1" height="11" fill="#30346D" />
  <rect x="72" y="40" width="1" height="12" fill="#30346D" />
  <rect x="88" y="40" width="1" height="12" fill="#30346D" />
  <rect x="63" y="41" width="1" height="10" fill="#30346D" />
  <rect x="64" y="41" width="1" height="9" fill="#30346D" />
  <rect x="70" y="41" width="1" height="10" fill="#30346D" />
  <rect x="65" y="42" width="1" height="8" fill="#30346D" />
  <rect x="66" y="42" width="1" height="7" fill="#30346D" />
  <rect x="68" y="42" width="1" height="7" fill="#30346D" />
  <rect x="69" y="42" width="1" height="8" fill="#30346D" />
  <rect x="58" y="13" width="1" height="6" fill="#30346D" />
  <rect x="59" y="13" width="2" height="5" fill="#30346D" />
  <rect x="61" y="13" width="1" height="4" fill="#30346D" />
  <rect x="56" y="14" width="1" height="6" fill="#30346D" />
  <rect x="57" y="14" width="1" height="5" fill="#30346D" />
  <rect x="54" y="15" width="2" height="6" fill="#30346D" />
  <rect x="53" y="16" width="1" height="6" fill="#30346D" />
  <rect x="51" y="17" width="1" height="7" fill="#30346D" />
  <rect x="52" y="17" width="1" height="6" fill="#30346D" />
  <rect x="50" y="18" width="1" height="8" fill="#30346D" />
  <rect x="49" y="19" width="1" height="8" fill="#30346D" />
  <rect x="48" y="20" width="1" height="9" fill="#30346D" />
  <rect x="47" y="21" width="1" height="16" fill="#30346D" />
  <rect x="46" y="23" width="1" height="13" fill="#30346D" />
  <rect x="45" y="24" width="1" height="27" fill="#30346D" />
  <rect x="44" y="26" width="1" height="23" fill="#30346D" />
  <rect x="43" y="28" width="1" height="19" fill="#30346D" />
  <rect x="60" y="29" width="1" height="16" fill="#30346D" />
  <rect x="48" y="31" width="1" height="6" fill="#30346D" />
  <rect x="49" y="31" width="1" height="7" fill="#30346D" />
  <rect x="50" y="31" width="2" height="8" fill="#30346D" />
  <rect x="52" y="31" width="2" height="9" fill="#30346D" />
  <rect x="54" y="31" width="1" height="10" fill="#30346D" />
  <rect x="55" y="31" width="3" height="4" fill="#30346D" />
  <rect x="58" y="31" width="1" height="23" fill="#30346D" />
  <rect x="59" y="31" width="1" height="15" fill="#30346D" />
  <rect x="42" y="32" width="1" height="11" fill="#30346D" />
  <rect x="55" y="36" width="1" height="6" fill="#30346D" />
  <rect x="56" y="36" width="1" height="25" fill="#30346D" />
  <rect x="57" y="37" width="1" height="18" fill="#30346D" />
  <rect x="46" y="40" width="1" height="12" fill="#30346D" />
  <rect x="55" y="43" width="1" height="17" fill="#30346D" />
  <rect x="47" y="44" width="1" height="10" fill="#30346D" />
  <rect x="48" y="46" width="1" height="8" fill="#30346D" />
  <rect x="54" y="46" width="1" height="14" fill="#30346D" />
  <rect x="67" y="43" width="1" height="6" fill="#30346D" />
  <rect x="80" y="44" width="1" height="16" fill="#30346D" />
  <rect x="87" y="44" width="1" height="10" fill="#30346D" />
  <rect x="61" y="46" width="1" height="6" fill="#30346D" />
  <rect x="81" y="46" width="1" height="13" fill="#30346D" />
  <rect x="86" y="46" width="1" height="9" fill="#30346D" />
  <rect x="60" y="47" width="1" height="6" fill="#30346D" />
  <rect x="73" y="47" width="1" height="5" fill="#30346D" />
  <rect x="74" y="47" width="1" height="6" fill="#30346D" />
  <rect x="75" y="48" width="2" height="6" fill="#30346D" />
  <rect x="85" y="48" width="1" height="8" fill="#30346D" />
  <rect x="49" y="48" width="1" height="8" fill="#30346D" />
  <rect x="59" y="48" width="1" height="6" fill="#30346D" />
  <rect x="50" y="49" width="1" height="8" fill="#30346D" />
  <rect x="53" y="49" width="1" height="10" fill="#30346D" />
  <rect x="82" y="49" width="1" height="9" fill="#30346D" />
  <rect x="84" y="49" width="1" height="8" fill="#30346D" />
  <rect x="51" y="51" width="1" height="7" fill="#30346D" />
  <rect x="83" y="51" width="1" height="7" fill="#30346D" />
  <rect x="52" y="52" width="1" height="6" fill="#30346D" />
  <rect x="76" y="56" width="1" height="6" fill="#30346D" />
  <rect x="77" y="56" width="1" height="5" fill="#30346D" />
  <rect x="57" y="56" width="1" height="5" fill="#30346D" />
  <rect x="58" y="56" width="1" height="6" fill="#30346D" />
  <rect x="59" y="57" width="2" height="5" fill="#30346D" />
  <rect x="74" y="57" width="2" height="5" fill="#30346D" />
  <rect x="61" y="58" width="1" height="4" fill="#30346D" />
  <rect x="62" y="58" width="3" height="5" fill="#30346D" />
  <rect x="70" y="58" width="3" height="5" fill="#30346D" />
  <rect x="73" y="58" width="1" height="4" fill="#30346D" />
  <rect x="65" y="59" width="5" height="4" fill="#30346D" />
  <rect x="20" y="16" width="4" height="84" fill="#442434" />
  <rect x="32" y="16" width="4" height="84" fill="#442434" />
  <rect x="24" y="20" width="8" height="4" fill="#442434" />
  <rect x="24" y="28" width="8" height="4" fill="#442434" />
  <rect x="24" y="36" width="8" height="4" fill="#442434" />
  <rect x="24" y="44" width="8" height="4" fill="#442434" />
  <rect x="24" y="52" width="8" height="4" fill="#442434" />
  <rect x="24" y="60" width="8" height="4" fill="#442434" />
  <rect x="24" y="68" width="8" height="4" fill="#442434" />
  <rect x="24" y="76" width="8" height="4" fill="#442434" />
  <rect x="24" y="84" width="8" height="4" fill="#442434" />
  <rect x="24" y="92" width="8" height="4" fill="#442434" />
  <rect x="24" y="16" width="8" height="4" fill="#837E86" />
  <rect x="24" y="24" width="8" height="4" fill="#837E86" />
  <rect x="24" y="32" width="8" height="4" fill="#837E86" />
  <rect x="24" y="40" width="8" height="4" fill="#837E86" />
  <rect x="24" y="56" width="8" height="4" fill="#837E86" />
  <rect x="24" y="64" width="8" height="4" fill="#837E86" />
  <rect x="24" y="72" width="8" height="4" fill="#837E86" />
  <rect x="24" y="80" width="8" height="4" fill="#837E86" />
  <rect x="24" y="88" width="8" height="4" fill="#837E86" />
  <rect x="61" y="17" width="1" height="2" fill="#757161" />
  <rect x="62" y="17" width="2" height="1" fill="#757161" />
  <rect x="70" y="17" width="4" height="1" fill="#757161" />
  <rect x="59" y="18" width="1" height="2" fill="#757161" />
  <rect x="60" y="18" width="1" height="1" fill="#757161" />
  <rect x="74" y="18" width="2" height="1" fill="#757161" />
  <rect x="57" y="19" width="1" height="2" fill="#757161" />
  <rect x="58" y="19" width="1" height="1" fill="#757161" />
  <rect x="56" y="20" width="1" height="2" fill="#757161" />
  <rect x="54" y="21" width="1" height="2" fill="#757161" />
  <rect x="55" y="21" width="1" height="1" fill="#757161" />
  <rect x="53" y="22" width="1" height="2" fill="#757161" />
  <rect x="52" y="23" width="1" height="2" fill="#757161" />
  <rect x="67" y="23" width="1" height="4" fill="#757161" />
  <rect x="51" y="24" width="1" height="3" fill="#757161" />
  <rect x="50" y="26" width="1" height="2" fill="#757161" />
  <rect x="66" y="26" width="1" height="4" fill="#757161" />
  <rect x="49" y="27" width="1" height="3" fill="#757161" />
  <rect x="48" y="29" width="1" height="2" fill="#757161" />
  <rect x="65" y="29" width="1" height="2" fill="#757161" />
  <rect x="55" y="35" width="2" height="1" fill="#757161" />
  <rect x="57" y="35" width="1" height="2" fill="#757161" />
  <rect x="63" y="35" width="1" height="3" fill="#757161" />
  <rect x="64" y="35" width="8" height="1" fill="#757161" />
  <rect x="77" y="35" width="1" height="1" fill="#757161" />
  <rect x="46" y="36" width="1" height="4" fill="#757161" />
  <rect x="87" y="36" width="1" height="2" fill="#757161" />
  <rect x="88" y="36" width="1" height="1" fill="#757161" />
  <rect x="47" y="37" width="1" height="1" fill="#757161" />
  <rect x="48" y="37" width="1" height="2" fill="#757161" />
  <rect x="62" y="37" width="1" height="3" fill="#757161" />
  <rect x="86" y="37" width="1" height="2" fill="#757161" />
  <rect x="49" y="38" width="1" height="2" fill="#757161" />
  <rect x="84" y="38" width="1" height="2" fill="#757161" />
  <rect x="85" y="38" width="1" height="1" fill="#757161" />
  <rect x="47" y="39" width="1" height="5" fill="#757161" />
  <rect x="50" y="39" width="1" height="1" fill="#757161" />
  <rect x="51" y="39" width="1" height="2" fill="#757161" />
  <rect x="63" y="39" width="1" height="2" fill="#757161" />
  <rect x="82" y="39" width="1" height="2" fill="#757161" />
  <rect x="83" y="39" width="1" height="1" fill="#757161" />
  <rect x="52" y="40" width="2" height="1" fill="#757161" />
  <rect x="81" y="40" width="1" height="2" fill="#757161" />
  <rect x="80" y="41" width="1" height="3" fill="#757161" />
  <rect x="48" y="43" width="1" height="3" fill="#757161" />
  <rect x="81" y="43" width="1" height="3" fill="#757161" />
  <rect x="74" y="44" width="1" height="2" fill="#757161" />
  <rect x="75" y="44" width="1" height="1" fill="#757161" />
  <rect x="49" y="45" width="1" height="3" fill="#757161" />
  <rect x="60" y="45" width="1" height="2" fill="#757161" />
  <rect x="61" y="45" width="1" height="1" fill="#757161" />
  <rect x="73" y="45" width="1" height="2" fill="#757161" />
  <rect x="82" y="45" width="1" height="4" fill="#757161" />
  <rect x="59" y="46" width="1" height="2" fill="#757161" />
  <rect x="50" y="47" width="1" height="2" fill="#757161" />
  <rect x="51" y="48" width="1" height="3" fill="#757161" />
  <rect x="83" y="48" width="1" height="3" fill="#757161" />
  <rect x="66" y="49" width="1" height="2" fill="#757161" />
  <rect x="67" y="49" width="1" height="1" fill="#757161" />
  <rect x="68" y="49" width="1" height="2" fill="#757161" />
  <rect x="52" y="50" width="1" height="2" fill="#757161" />
  <rect x="64" y="50" width="1" height="2" fill="#757161" />
  <rect x="65" y="50" width="1" height="1" fill="#757161" />
  <rect x="69" y="50" width="1" height="1" fill="#757161" />
  <rect x="63" y="51" width="1" height="2" fill="#757161" />
  <rect x="61" y="52" width="1" height="2" fill="#757161" />
  <rect x="62" y="52" width="1" height="1" fill="#757161" />
  <rect x="60" y="53" width="1" height="2" fill="#757161" />
  <rect x="58" y="54" width="1" height="2" fill="#757161" />
  <rect x="59" y="54" width="1" height="3" fill="#757161" />
  <rect x="57" y="55" width="1" height="1" fill="#757161" />
  <rect x="60" y="56" width="1" height="1" fill="#757161" />
  <rect x="61" y="56" width="1" height="2" fill="#757161" />
  <rect x="62" y="57" width="3" height="1" fill="#757161" />
  <rect x="65" y="57" width="1" height="2" fill="#757161" />
  <rect x="66" y="58" width="4" height="1" fill="#757161" />
  <rect x="62" y="18" width="1" height="5" fill="#6EC2CA" />
  <rect x="63" y="18" width="1" height="2" fill="#6EC2CA" />
  <rect x="71" y="18" width="1" height="2" fill="#6EC2CA" />
  <rect x="72" y="18" width="1" height="5" fill="#6EC2CA" />
  <rect x="73" y="18" width="1" height="8" fill="#6EC2CA" />
  <rect x="60" y="19" width="1" height="10" fill="#6EC2CA" />
  <rect x="61" y="19" width="1" height="7" fill="#6EC2CA" />
  <rect x="74" y="19" width="1" height="9" fill="#6EC2CA" />
  <rect x="75" y="19" width="3" height="12" fill="#6EC2CA" />
  <rect x="58" y="20" width="2" height="11" fill="#6EC2CA" />
  <rect x="78" y="20" width="1" height="11" fill="#6EC2CA" />
  <rect x="57" y="21" width="1" height="10" fill="#6EC2CA" />
  <rect x="79" y="21" width="2" height="10" fill="#6EC2CA" />
  <rect x="55" y="22" width="2" height="9" fill="#6EC2CA" />
  <rect x="81" y="22" width="1" height="9" fill="#6EC2CA" />
  <rect x="54" y="23" width="1" height="8" fill="#6EC2CA" />
  <rect x="82" y="23" width="1" height="8" fill="#6EC2CA" />
  <rect x="53" y="24" width="1" height="7" fill="#6EC2CA" />
  <rect x="83" y="24" width="1" height="7" fill="#6EC2CA" />
  <rect x="52" y="25" width="1" height="6" fill="#6EC2CA" />
  <rect x="68" y="26" width="1" height="5" fill="#6EC2CA" />
  <rect x="84" y="26" width="1" height="5" fill="#6EC2CA" />
  <rect x="51" y="27" width="1" height="4" fill="#6EC2CA" />
  <rect x="67" y="27" width="1" height="4" fill="#6EC2CA" />
  <rect x="85" y="27" width="1" height="4" fill="#6EC2CA" />
  <rect x="50" y="28" width="1" height="3" fill="#6EC2CA" />
  <rect x="69" y="29" width="1" height="2" fill="#6EC2CA" />
  <rect x="86" y="29" width="1" height="2" fill="#6EC2CA" />
  <rect x="49" y="30" width="1" height="1" fill="#6EC2CA" />
  <rect x="66" y="30" width="1" height="1" fill="#6EC2CA" />
  <rect x="78" y="35" width="1" height="1" fill="#6EC2CA" />
  <rect x="64" y="36" width="1" height="5" fill="#6EC2CA" />
  <rect x="65" y="36" width="2" height="6" fill="#6EC2CA" />
  <rect x="67" y="36" width="1" height="7" fill="#6EC2CA" />
  <rect x="68" y="36" width="2" height="6" fill="#6EC2CA" />
  <rect x="70" y="36" width="1" height="5" fill="#6EC2CA" />
  <rect x="71" y="36" width="2" height="4" fill="#6EC2CA" />
  <rect x="88" y="37" width="1" height="3" fill="#6EC2CA" />
  <rect x="47" y="38" width="1" height="1" fill="#6EC2CA" />
  <rect x="63" y="38" width="1" height="1" fill="#6EC2CA" />
  <rect x="87" y="38" width="1" height="6" fill="#6EC2CA" />
  <rect x="48" y="39" width="1" height="4" fill="#6EC2CA" />
  <rect x="85" y="39" width="1" height="9" fill="#6EC2CA" />
  <rect x="86" y="39" width="1" height="7" fill="#6EC2CA" />
  <rect x="49" y="40" width="1" height="5" fill="#6EC2CA" />
  <rect x="50" y="40" width="1" height="7" fill="#6EC2CA" />
  <rect x="83" y="40" width="1" height="8" fill="#6EC2CA" />
  <rect x="84" y="40" width="1" height="9" fill="#6EC2CA" />
  <rect x="51" y="41" width="1" height="7" fill="#6EC2CA" />
  <rect x="52" y="41" width="1" height="9" fill="#6EC2CA" />
  <rect x="53" y="41" width="1" height="8" fill="#6EC2CA" />
  <rect x="54" y="41" width="1" height="5" fill="#6EC2CA" />
  <rect x="82" y="41" width="1" height="4" fill="#6EC2CA" />
  <rect x="55" y="42" width="1" height="1" fill="#6EC2CA" />
  <rect x="81" y="42" width="1" height="1" fill="#6EC2CA" />
  <rect x="75" y="45" width="1" height="3" fill="#6EC2CA" />
  <rect x="74" y="46" width="1" height="1" fill="#6EC2CA" />
  <rect x="76" y="47" width="1" height="1" fill="#6EC2CA" />
  <rect x="67" y="50" width="1" height="8" fill="#6EC2CA" />
  <rect x="65" y="51" width="1" height="6" fill="#6EC2CA" />
  <rect x="66" y="51" width="1" height="7" fill="#6EC2CA" />
  <rect x="68" y="51" width="4" height="7" fill="#6EC2CA" />
  <rect x="64" y="52" width="1" height="5" fill="#6EC2CA" />
  <rect x="72" y="52" width="2" height="6" fill="#6EC2CA" />
  <rect x="62" y="53" width="2" height="4" fill="#6EC2CA" />
  <rect x="74" y="53" width="1" height="4" fill="#6EC2CA" />
  <rect x="61" y="54" width="1" height="2" fill="#6EC2CA" />
  <rect x="75" y="54" width="1" height="3" fill="#6EC2CA" />
  <rect x="76" y="54" width="1" height="2" fill="#6EC2CA" />
  <rect x="60" y="55" width="1" height="1" fill="#6EC2CA" />
  <rect x="77" y="55" width="1" height="1" fill="#6EC2CA" />
  <rect x="48" y="84" width="4" height="4" fill="#9A939F" />
  <rect x="52" y="88" width="4" height="4" fill="#9A939F" />
  <rect x="24" y="104" width="4" height="4" fill="#D2AA9A" />
  <rect x="32" y="104" width="4" height="4" fill="#D2AA9A" />
  <rect x="40" y="104" width="8" height="4" fill="#D2AA9A" />
  <rect x="56" y="104" width="4" height="4" fill="#D2AA9A" />
  <rect x="64" y="104" width="4" height="4" fill="#D2AA9A" />
  <rect x="72" y="104" width="4" height="4" fill="#D2AA9A" />
  <rect x="84" y="104" width="4" height="4" fill="#D2AA9A" />
  <rect x="28" y="104" width="4" height="4" fill="#7D322C" />
  <rect x="36" y="104" width="4" height="4" fill="#7D322C" />
  <rect x="48" y="104" width="8" height="4" fill="#7D322C" />
  <rect x="60" y="104" width="4" height="4" fill="#7D322C" />
  <rect x="68" y="104" width="4" height="4" fill="#7D322C" />
  <rect x="76" y="104" width="8" height="4" fill="#7D322C" />
</svg>
