<svg
  version="1.1"
  width="24"
  height="26"
  xmlns="http://www.w3.org/2000/svg"
  shape-rendering="crispEdges"
>
  <rect x="8" y="0" width="8" height="2" fill="#000000" />
  <rect x="2" y="4" width="2" height="2" fill="#000000" />
  <rect x="4" y="2" width="4" height="2" fill="#000000" />
  <rect x="16" y="2" width="2" height="2" fill="#000000" />
  <rect x="21" y="4" width="1" height="2" fill="#000000" />
  <rect x="0" y="6" width="2" height="12" fill="#000000" />
  <rect x="2" y="18" width="2" height="2" fill="#000000" />
  <rect x="18" y="2" width="2" height="2" fill="#000000" />
  <rect x="22" y="6" width="2" height="12" fill="#000000" />
  <rect x="0" y="20" width="2" height="4" fill="#000000" />
  <rect x="4" y="20" width="2" height="2" fill="#000000" />
  <rect x="6" y="20" width="2" height="4" fill="#000000" />
  <rect x="16" y="20" width="2" height="4" fill="#000000" />
  <rect x="18" y="20" width="2" height="2" fill="#000000" />
  <rect x="20" y="4" width="1" height="2" fill="#000000" />
  <rect x="20" y="18" width="2" height="2" fill="#000000" />
  <rect x="8" y="22" width="8" height="2" fill="#000000" />
  <rect x="22" y="20" width="2" height="4" fill="#000000" />
  <rect x="2" y="24" width="4" height="2" fill="#000000" />
  <rect x="18" y="24" width="4" height="2" fill="#000000" />
  <rect x="8" y="2" width="8" height="20" fill="#D04648" />
  <rect x="4" y="4" width="4" height="16" fill="#D04648" />
  <rect x="16" y="4" width="4" height="16" fill="#D04648" />
  <rect x="2" y="6" width="2" height="12" fill="#D04648" />
  <rect x="20" y="6" width="2" height="12" fill="#D04648" />
  <rect x="20" y="20" width="2" height="4" fill="#D04648" />
  <rect x="2" y="20" width="2" height="4" fill="#D04648" />
  <rect x="4" y="22" width="2" height="2" fill="#D04648" />
  <rect x="18" y="22" width="2" height="2" fill="#D04648" />
</svg>
