<svg
  version="1.1"
  width="28"
  height="32"
  xmlns="http://www.w3.org/2000/svg"
  shape-rendering="crispEdges"
  fill="#D04648"
>
  <defs>
    <filter id="darken">
      <feColorMatrix
        type="matrix"
        values="         0.827  0     0     0   0         0     0.714 0     0   0         0     0     0.694 0   0         0     0     0     1   0"
      />
    </filter>
  </defs>

  <rect x="10" y="0" width="8" height="2" fill="#000000" />
  <rect x="4" y="4" width="2" height="2" fill="#000000" />
  <rect x="2" y="6" width="2" height="12" fill="#000000" />
  <rect x="6" y="2" width="4" height="2" fill="#000000" />
  <rect x="24" y="6" width="2" height="12" fill="#000000" />
  <rect x="4" y="18" width="2" height="2" fill="#000000" />
  <rect x="18" y="2" width="4" height="2" fill="#000000" />
  <rect x="22" y="4" width="2" height="2" fill="#000000" />
  <rect x="22" y="18" width="2" height="2" fill="#000000" />
  <rect x="2" y="20" width="2" height="2" fill="#000000" />
  <rect x="0" y="22" width="2" height="4" fill="#000000" />
  <rect x="4" y="24" width="2" height="6" fill="#000000" />
  <rect x="22" y="24" width="2" height="6" fill="#000000" />
  <rect x="24" y="20" width="2" height="2" fill="#000000" />
  <rect x="2" y="26" width="2" height="2" fill="#000000" />
  <rect x="24" y="26" width="2" height="2" fill="#000000" />
  <rect x="26" y="22" width="2" height="4" fill="#000000" />
  <rect x="12" y="28" width="4" height="2" fill="#000000" />
  <rect x="6" y="30" width="6" height="2" fill="#000000" />
  <rect x="16" y="30" width="6" height="2" fill="#000000" />
  <rect x="10" y="2" width="8" height="26" />
  <rect x="18" y="4" width="4" height="24" />
  <rect x="4" y="6" width="1" height="12" />
  <rect x="6" y="4" width="4" height="24" />
  <rect x="5" y="6" width="1" height="12" />
  <rect x="4" y="20" width="2" height="4" />
  <rect x="2" y="22" width="2" height="4" />
  <rect x="22" y="6" width="2" height="12" />
  <rect x="22" y="20" width="2" height="4" />
  <rect x="24" y="22" width="2" height="4" />
  <rect x="6" y="28" width="6" height="2" filter="url(#darken)" />
  <rect x="16" y="28" width="6" height="2" filter="url(#darken)" />
</svg>
