<svg
  version="1.1"
  width="24"
  height="32"
  xmlns="http://www.w3.org/2000/svg"
  shape-rendering="crispEdges"
  fill="#D04648"
>
  <rect x="8" y="0" width="8" height="2" fill="#000000" />
  <rect x="16" y="2" width="4" height="2" fill="#000000" />
  <rect x="2" y="4" width="2" height="2" fill="#000000" />
  <rect x="4" y="2" width="4" height="2" fill="#000000" />
  <rect x="0" y="6" width="2" height="12" fill="#000000" />
  <rect x="2" y="18" width="2" height="2" fill="#000000" />
  <rect x="18" y="10" width="2" height="8" fill="#000000" />
  <rect x="4" y="20" width="2" height="8" fill="#000000" />
  <rect x="8" y="20" width="4" height="2" fill="#000000" />
  <rect x="20" y="4" width="2" height="2" fill="#000000" />
  <rect x="20" y="8" width="2" height="2" fill="#000000" />
  <rect x="20" y="18" width="2" height="4" fill="#000000" />
  <rect x="6" y="22" width="2" height="4" fill="#000000" />
  <rect x="18" y="22" width="2" height="6" fill="#000000" />
  <rect x="22" y="6" width="2" height="14" fill="#000000" />
  <rect x="12" y="24" width="2" height="2" fill="#000000" />
  <rect x="8" y="26" width="4" height="2" fill="#000000" />
  <rect x="6" y="28" width="2" height="2" fill="#000000" />
  <rect x="16" y="28" width="2" height="2" fill="#000000" />
  <rect x="8" y="30" width="8" height="2" fill="#000000" />
  <rect x="8" y="2" width="4" height="18" />
  <rect x="12" y="2" width="2" height="22" />
  <rect x="14" y="2" width="2" height="28" />
  <rect x="4" y="4" width="2" height="16" />
  <rect x="2" y="6" width="2" height="12" />
  <rect x="6" y="4" width="2" height="18" />
  <rect x="16" y="4" width="2" height="24" />
  <rect x="18" y="4" width="2" height="6" />
  <rect x="20" y="6" width="2" height="2" />
  <rect x="20" y="10" width="2" height="8" />
  <rect x="18" y="18" width="2" height="4" />
  <rect x="6" y="26" width="2" height="2" />
  <rect x="8" y="22" width="4" height="4" />
  <rect x="12" y="26" width="2" height="4" />
  <rect x="8" y="28" width="4" height="2" />
</svg>
