<svg
  version="1.1"
  width="24"
  height="32"
  xmlns="http://www.w3.org/2000/svg"
  shape-rendering="crispEdges"
  fill="#D04648"
>
  <rect x="0" y="6" width="2" height="12" fill="#000000" />
  <rect x="2" y="4" width="1" height="2" fill="#000000" />
  <rect x="2" y="18" width="1" height="2" fill="#000000" />
  <rect x="3" y="4" width="1" height="2" fill="#000000" />
  <rect x="3" y="18" width="1" height="2" fill="#000000" />
  <rect x="4" y="2" width="1" height="2" fill="#000000" />
  <rect x="4" y="20" width="1" height="8" fill="#000000" />
  <rect x="5" y="2" width="1" height="2" fill="#000000" />
  <rect x="5" y="20" width="1" height="8" fill="#000000" />
  <rect x="6" y="2" width="1" height="2" fill="#000000" />
  <rect x="6" y="22" width="1" height="2" fill="#000000" />
  <rect x="6" y="28" width="1" height="2" fill="#000000" />
  <rect x="7" y="2" width="1" height="2" fill="#000000" />
  <rect x="7" y="22" width="1" height="2" fill="#000000" />
  <rect x="7" y="28" width="1" height="2" fill="#000000" />
  <rect x="8" y="0" width="1" height="2" fill="#000000" />
  <rect x="8" y="24" width="1" height="2" fill="#000000" />
  <rect x="8" y="30" width="1" height="2" fill="#000000" />
  <rect x="9" y="0" width="1" height="2" fill="#000000" />
  <rect x="9" y="24" width="1" height="2" fill="#000000" />
  <rect x="9" y="30" width="1" height="2" fill="#000000" />
  <rect x="10" y="0" width="1" height="2" fill="#000000" />
  <rect x="10" y="26" width="1" height="2" fill="#000000" />
  <rect x="10" y="30" width="1" height="2" fill="#000000" />
  <rect x="11" y="0" width="1" height="2" fill="#000000" />
  <rect x="11" y="26" width="1" height="2" fill="#000000" />
  <rect x="11" y="30" width="1" height="2" fill="#000000" />
  <rect x="12" y="0" width="1" height="2" fill="#000000" />
  <rect x="12" y="20" width="1" height="2" fill="#000000" />
  <rect x="12" y="26" width="1" height="2" fill="#000000" />
  <rect x="12" y="30" width="1" height="2" fill="#000000" />
  <rect x="13" y="0" width="1" height="2" fill="#000000" />
  <rect x="13" y="20" width="1" height="2" fill="#000000" />
  <rect x="13" y="26" width="1" height="2" fill="#000000" />
  <rect x="13" y="30" width="1" height="2" fill="#000000" />
  <rect x="14" y="0" width="1" height="2" fill="#000000" />
  <rect x="14" y="22" width="1" height="4" fill="#000000" />
  <rect x="14" y="30" width="1" height="2" fill="#000000" />
  <rect x="15" y="0" width="1" height="2" fill="#000000" />
  <rect x="15" y="22" width="1" height="4" fill="#000000" />
  <rect x="15" y="30" width="1" height="2" fill="#000000" />
  <rect x="16" y="2" width="1" height="2" fill="#000000" />
  <rect x="16" y="28" width="1" height="2" fill="#000000" />
  <rect x="17" y="2" width="1" height="2" fill="#000000" />
  <rect x="17" y="28" width="1" height="2" fill="#000000" />
  <rect x="18" y="2" width="1" height="2" fill="#000000" />
  <rect x="18" y="10" width="1" height="8" fill="#000000" />
  <rect x="18" y="22" width="1" height="6" fill="#000000" />
  <rect x="19" y="2" width="1" height="2" fill="#000000" />
  <rect x="19" y="10" width="1" height="8" fill="#000000" />
  <rect x="19" y="22" width="1" height="6" fill="#000000" />
  <rect x="20" y="4" width="1" height="2" fill="#000000" />
  <rect x="20" y="8" width="1" height="2" fill="#000000" />
  <rect x="20" y="18" width="1" height="4" fill="#000000" />
  <rect x="21" y="4" width="1" height="2" fill="#000000" />
  <rect x="21" y="8" width="1" height="2" fill="#000000" />
  <rect x="21" y="18" width="1" height="4" fill="#000000" />
  <rect x="22" y="6" width="2" height="14" fill="#000000" />
  <rect x="2" y="6" width="2" height="12" />
  <rect x="4" y="4" width="2" height="16" />
  <rect x="6" y="4" width="1" height="18" />
  <rect x="6" y="24" width="1" height="4" />
  <rect x="7" y="4" width="1" height="18" />
  <rect x="7" y="24" width="1" height="4" />
  <rect x="8" y="2" width="1" height="22" />
  <rect x="8" y="26" width="1" height="4" />
  <rect x="9" y="2" width="1" height="22" />
  <rect x="9" y="26" width="1" height="4" />
  <rect x="10" y="2" width="1" height="24" />
  <rect x="10" y="28" width="1" height="2" />
  <rect x="11" y="2" width="1" height="24" />
  <rect x="11" y="28" width="1" height="2" />
  <rect x="12" y="2" width="1" height="18" />
  <rect x="12" y="22" width="1" height="4" />
  <rect x="12" y="28" width="1" height="2" />
  <rect x="13" y="2" width="1" height="18" />
  <rect x="13" y="22" width="1" height="4" />
  <rect x="13" y="28" width="1" height="2" />
  <rect x="14" y="2" width="1" height="20" />
  <rect x="14" y="26" width="1" height="4" />
  <rect x="15" y="2" width="1" height="20" />
  <rect x="15" y="26" width="1" height="4" />
  <rect x="16" y="4" width="2" height="24" />
  <rect x="18" y="4" width="1" height="6" />
  <rect x="18" y="18" width="1" height="4" />
  <rect x="19" y="4" width="1" height="6" />
  <rect x="19" y="18" width="1" height="4" />
  <rect x="20" y="6" width="1" height="2" />
  <rect x="20" y="10" width="1" height="8" />
  <rect x="21" y="6" width="1" height="2" />
  <rect x="21" y="10" width="1" height="8" />
</svg>
