<svg
  version="1.1"
  width="28"
  height="32"
  xmlns="http://www.w3.org/2000/svg"
  shape-rendering="crispEdges"
  fill="#8594A1"
>
  <rect x="0" y="12" width="1" height="4" fill="#000000" />
  <rect x="0" y="22" width="1" height="4" fill="#000000" />
  <rect x="1" y="12" width="1" height="4" fill="#000000" />
  <rect x="1" y="22" width="1" height="4" fill="#000000" />
  <rect x="2" y="6" width="1" height="12" fill="#000000" />
  <rect x="2" y="20" width="1" height="2" fill="#000000" />
  <rect x="2" y="26" width="1" height="2" fill="#000000" />
  <rect x="3" y="6" width="1" height="12" fill="#000000" />
  <rect x="3" y="20" width="1" height="2" fill="#000000" />
  <rect x="3" y="26" width="1" height="2" fill="#000000" />
  <rect x="4" y="4" width="1" height="2" fill="#000000" />
  <rect x="4" y="18" width="1" height="4" fill="#000000" />
  <rect x="4" y="26" width="1" height="4" fill="#000000" />
  <rect x="5" y="4" width="1" height="2" fill="#000000" />
  <rect x="5" y="18" width="1" height="4" fill="#000000" />
  <rect x="5" y="26" width="1" height="4" fill="#000000" />
  <rect x="6" y="4" width="1" height="2" fill="#000000" />
  <rect x="6" y="22" width="1" height="2" fill="#000000" />
  <rect x="6" y="30" width="1" height="2" fill="#000000" />
  <rect x="7" y="4" width="1" height="2" fill="#000000" />
  <rect x="7" y="22" width="1" height="2" fill="#000000" />
  <rect x="7" y="30" width="1" height="2" fill="#000000" />
  <rect x="8" y="4" width="1" height="2" fill="#000000" />
  <rect x="8" y="12" width="1" height="4" fill="#000000" />
  <rect x="8" y="30" width="1" height="2" fill="#000000" />
  <rect x="9" y="4" width="1" height="2" fill="#000000" />
  <rect x="9" y="12" width="1" height="4" fill="#000000" />
  <rect x="9" y="30" width="1" height="2" fill="#000000" />
  <rect x="10" y="2" width="1" height="2" fill="#000000" />
  <rect x="10" y="12" width="1" height="4" fill="#000000" />
  <rect x="10" y="30" width="1" height="2" fill="#000000" />
  <rect x="11" y="2" width="1" height="2" fill="#000000" />
  <rect x="11" y="12" width="1" height="4" fill="#000000" />
  <rect x="11" y="30" width="1" height="2" fill="#000000" />
  <rect x="12" y="0" width="1" height="2" fill="#000000" />
  <rect x="12" y="16" width="1" height="2" fill="#000000" />
  <rect x="12" y="28" width="1" height="2" fill="#000000" />
  <rect x="13" y="0" width="1" height="2" fill="#000000" />
  <rect x="13" y="16" width="1" height="2" fill="#000000" />
  <rect x="13" y="28" width="1" height="2" fill="#000000" />
  <rect x="14" y="0" width="1" height="2" fill="#000000" />
  <rect x="14" y="16" width="1" height="2" fill="#000000" />
  <rect x="14" y="28" width="1" height="2" fill="#000000" />
  <rect x="15" y="0" width="1" height="2" fill="#000000" />
  <rect x="15" y="16" width="1" height="2" fill="#000000" />
  <rect x="15" y="28" width="1" height="2" fill="#000000" />
  <rect x="16" y="2" width="1" height="2" fill="#000000" />
  <rect x="16" y="12" width="1" height="4" fill="#000000" />
  <rect x="16" y="28" width="1" height="2" fill="#000000" />
  <rect x="17" y="2" width="1" height="2" fill="#000000" />
  <rect x="17" y="12" width="1" height="4" fill="#000000" />
  <rect x="17" y="28" width="1" height="2" fill="#000000" />
  <rect x="18" y="4" width="1" height="2" fill="#000000" />
  <rect x="18" y="12" width="1" height="4" fill="#000000" />
  <rect x="18" y="28" width="1" height="2" fill="#000000" />
  <rect x="19" y="4" width="1" height="2" fill="#000000" />
  <rect x="19" y="12" width="1" height="4" fill="#000000" />
  <rect x="19" y="28" width="1" height="2" fill="#000000" />
  <rect x="20" y="4" width="1" height="2" fill="#000000" />
  <rect x="20" y="22" width="1" height="2" fill="#000000" />
  <rect x="20" y="28" width="1" height="2" fill="#000000" />
  <rect x="21" y="4" width="1" height="2" fill="#000000" />
  <rect x="21" y="22" width="1" height="2" fill="#000000" />
  <rect x="21" y="28" width="1" height="2" fill="#000000" />
  <rect x="22" y="4" width="1" height="2" fill="#000000" />
  <rect x="22" y="18" width="1" height="4" fill="#000000" />
  <rect x="22" y="26" width="1" height="2" fill="#000000" />
  <rect x="23" y="4" width="1" height="2" fill="#000000" />
  <rect x="23" y="18" width="1" height="4" fill="#000000" />
  <rect x="23" y="26" width="1" height="2" fill="#000000" />
  <rect x="24" y="6" width="1" height="12" fill="#000000" />
  <rect x="24" y="20" width="1" height="2" fill="#000000" />
  <rect x="24" y="26" width="1" height="2" fill="#000000" />
  <rect x="25" y="6" width="1" height="12" fill="#000000" />
  <rect x="25" y="20" width="1" height="2" fill="#000000" />
  <rect x="25" y="26" width="1" height="2" fill="#000000" />
  <rect x="26" y="12" width="1" height="4" fill="#000000" />
  <rect x="26" y="22" width="1" height="4" fill="#000000" />
  <rect x="27" y="12" width="1" height="4" fill="#000000" />
  <rect x="27" y="22" width="1" height="4" fill="#000000" />
  <rect x="2" y="22" width="2" height="4" />
  <rect x="4" y="6" width="1" height="12" />
  <rect x="4" y="22" width="1" height="4" />
  <rect x="5" y="6" width="1" height="12" />
  <rect x="5" y="22" width="1" height="4" />
  <rect x="6" y="6" width="1" height="14" />
  <rect x="6" y="24" width="1" height="6" />
  <rect x="7" y="6" width="1" height="14" />
  <rect x="7" y="24" width="1" height="6" />
  <rect x="8" y="6" width="1" height="6" />
  <rect x="8" y="16" width="1" height="14" />
  <rect x="9" y="6" width="1" height="6" />
  <rect x="9" y="16" width="1" height="14" />
  <rect x="10" y="4" width="1" height="8" />
  <rect x="10" y="16" width="1" height="14" />
  <rect x="11" y="4" width="1" height="8" />
  <rect x="11" y="16" width="1" height="14" />
  <rect x="12" y="4" width="1" height="12" />
  <rect x="12" y="18" width="1" height="10" />
  <rect x="13" y="4" width="1" height="12" />
  <rect x="13" y="18" width="1" height="10" />
  <rect x="14" y="4" width="1" height="12" />
  <rect x="14" y="18" width="1" height="10" />
  <rect x="15" y="4" width="1" height="12" />
  <rect x="15" y="18" width="1" height="10" />
  <rect x="16" y="4" width="1" height="8" />
  <rect x="16" y="16" width="1" height="12" />
  <rect x="17" y="4" width="1" height="8" />
  <rect x="17" y="16" width="1" height="12" />
  <rect x="18" y="6" width="1" height="6" />
  <rect x="18" y="16" width="1" height="12" />
  <rect x="19" y="6" width="1" height="6" />
  <rect x="19" y="16" width="1" height="12" />
  <rect x="20" y="6" width="1" height="14" />
  <rect x="20" y="24" width="1" height="4" />
  <rect x="21" y="6" width="1" height="14" />
  <rect x="21" y="24" width="1" height="4" />
  <rect x="22" y="6" width="1" height="12" />
  <rect x="22" y="22" width="1" height="4" />
  <rect x="23" y="6" width="1" height="12" />
  <rect x="23" y="22" width="3" height="4" />
  <rect x="6" y="20" width="2" height="2" fill="#6A7681" />
  <rect x="20" y="20" width="2" height="2" fill="#6A7681" />
  <rect x="12" y="2" width="4" height="2" fill="#DAD45E" />
</svg>
