<svg
  version="1.1"
  width="26"
  height="32"
  xmlns="http://www.w3.org/2000/svg"
  shape-rendering="crispEdges"
  fill="#8594A1"
>
  <rect x="10" y="0" width="4" height="2" fill="#000000" />
  <rect x="8" y="2" width="2" height="2" fill="#000000" />
  <rect x="14" y="2" width="2" height="2" fill="#000000" />
  <rect x="2" y="4" width="4" height="2" fill="#000000" />
  <rect x="17" y="4" width="5" height="2" fill="#000000" />
  <rect x="0" y="6" width="2" height="14" fill="#000000" />
  <rect x="6" y="4" width="2" height="2" fill="#000000" />
  <rect x="22" y="6" width="2" height="12" fill="#000000" />
  <rect x="4" y="12" width="4" height="4" fill="#000000" />
  <rect x="2" y="16" width="2" height="2" fill="#000000" />
  <rect x="16" y="4" width="1" height="2" fill="#000000" />
  <rect x="24" y="12" width="2" height="4" fill="#000000" />
  <rect x="2" y="20" width="2" height="2" fill="#000000" />
  <rect x="12" y="20" width="4" height="2" fill="#000000" />
  <rect x="18" y="20" width="2" height="8" fill="#000000" />
  <rect x="20" y="18" width="2" height="2" fill="#000000" />
  <rect x="4" y="22" width="2" height="6" fill="#000000" />
  <rect x="16" y="22" width="2" height="4" fill="#000000" />
  <rect x="10" y="24" width="2" height="2" fill="#000000" />
  <rect x="12" y="26" width="4" height="2" fill="#000000" />
  <rect x="6" y="28" width="2" height="2" fill="#000000" />
  <rect x="16" y="28" width="2" height="2" fill="#000000" />
  <rect x="8" y="30" width="8" height="2" fill="#000000" />
  <rect x="10" y="2" width="4" height="2" fill="#DAD45E" />
  <rect x="4" y="6" width="4" height="6" />
  <rect x="8" y="4" width="2" height="26" />
  <rect x="10" y="4" width="2" height="20" />
  <rect x="12" y="4" width="4" height="16" />
  <rect x="2" y="6" width="2" height="10" />
  <rect x="16" y="6" width="2" height="16" />
  <rect x="18" y="6" width="2" height="14" />
  <rect x="20" y="6" width="2" height="12" />
  <rect x="12" y="22" width="4" height="4" />
  <rect x="4" y="16" width="2" height="6" />
  <rect x="6" y="16" width="2" height="12" />
  <rect x="2" y="18" width="2" height="2" />
  <rect x="10" y="26" width="2" height="4" />
  <rect x="16" y="26" width="2" height="2" />
  <rect x="12" y="28" width="4" height="2" />
</svg>
