<svg
  version="1.1"
  width="26"
  height="32"
  xmlns="http://www.w3.org/2000/svg"
  shape-rendering="crispEdges"
  fill="#8594A1"
>
  <rect x="12" y="0" width="4" height="2" fill="#000000" />
  <rect x="10" y="2" width="2" height="2" fill="#000000" />
  <rect x="16" y="2" width="2" height="2" fill="#000000" />
  <rect x="4" y="4" width="2" height="2" fill="#000000" />
  <rect x="18" y="4" width="1" height="2" fill="#000000" />
  <rect x="2" y="6" width="2" height="12" fill="#000000" />
  <rect x="6" y="4" width="4" height="2" fill="#000000" />
  <rect x="19" y="4" width="5" height="2" fill="#000000" />
  <rect x="24" y="6" width="2" height="14" fill="#000000" />
  <rect x="0" y="12" width="2" height="4" fill="#000000" />
  <rect x="4" y="18" width="2" height="2" fill="#000000" />
  <rect x="18" y="12" width="2" height="4" fill="#000000" />
  <rect x="22" y="16" width="2" height="2" fill="#000000" />
  <rect x="6" y="20" width="2" height="6" fill="#000000" />
  <rect x="8" y="20" width="2" height="2" fill="#000000" />
  <rect x="20" y="12" width="2" height="4" fill="#000000" />
  <rect x="20" y="22" width="2" height="4" fill="#000000" />
  <rect x="22" y="20" width="2" height="2" fill="#000000" />
  <rect x="12" y="24" width="2" height="2" fill="#000000" />
  <rect x="22" y="24" width="2" height="2" fill="#000000" />
  <rect x="4" y="26" width="2" height="4" fill="#000000" />
  <rect x="8" y="26" width="2" height="2" fill="#000000" />
  <rect x="10" y="26" width="2" height="4" fill="#000000" />
  <rect x="24" y="26" width="2" height="2" fill="#000000" />
  <rect x="12" y="28" width="6" height="2" fill="#000000" />
  <rect x="22" y="28" width="2" height="2" fill="#000000" />
  <rect x="6" y="30" width="4" height="2" fill="#000000" />
  <rect x="18" y="30" width="4" height="2" fill="#000000" />
  <rect x="12" y="2" width="4" height="2" fill="#DAD45E" />
  <rect x="4" y="6" width="2" height="12" />
  <rect x="10" y="4" width="2" height="22" />
  <rect x="6" y="6" width="4" height="14" />
  <rect x="12" y="4" width="2" height="20" />
  <rect x="14" y="4" width="4" height="24" />
  <rect x="18" y="6" width="4" height="6" />
  <rect x="22" y="6" width="2" height="10" />
  <rect x="22" y="18" width="2" height="2" />
  <rect x="18" y="16" width="2" height="14" />
  <rect x="20" y="16" width="2" height="6" />
  <rect x="8" y="22" width="2" height="4" />
  <rect x="12" y="26" width="2" height="2" />
  <rect x="20" y="26" width="2" height="4" />
  <rect x="22" y="26" width="2" height="2" />
  <rect x="6" y="26" width="2" height="4" fill="#6A7681" />
  <rect x="8" y="28" width="2" height="2" fill="#6A7681" />
</svg>
