<svg
  version="1.1"
  width="28"
  height="24"
  xmlns="http://www.w3.org/2000/svg"
  shape-rendering="crispEdges"
>
  <rect x="12" y="0" width="2" height="24" fill="#000000" />
  <rect x="22" y="1" width="2" height="2" fill="#000000" />
  <rect x="10" y="2" width="2" height="4" fill="#000000" />
  <rect x="24" y="3" width="2" height="4" fill="#000000" />
  <rect x="8" y="4" width="2" height="4" fill="#000000" />
  <rect x="18" y="5" width="2" height="2" fill="#000000" />
  <rect x="6" y="6" width="2" height="12" fill="#000000" />
  <rect x="20" y="7" width="2" height="2" fill="#000000" />
  <rect x="26" y="7" width="2" height="10" fill="#000000" />
  <rect x="0" y="8" width="6" height="8" fill="#000000" />
  <rect x="16" y="9" width="1" height="2" fill="#000000" />
  <rect x="8" y="10" width="2" height="10" fill="#000000" />
  <rect x="10" y="8" width="2" height="14" fill="#000000" />
  <rect x="17" y="9" width="1" height="2" fill="#000000" />
  <rect x="22" y="9" width="2" height="6" fill="#000000" />
  <rect x="18" y="11" width="2" height="2" fill="#000000" />
  <rect x="16" y="13" width="2" height="2" fill="#000000" />
  <rect x="20" y="15" width="2" height="2" fill="#000000" />
  <rect x="18" y="17" width="2" height="2" fill="#000000" />
  <rect x="24" y="17" width="2" height="4" fill="#000000" />
  <rect x="22" y="21" width="2" height="2" fill="#000000" />
  <rect x="10" y="6" width="2" height="2" fill="#DAD45E" />
  <rect x="8" y="8" width="2" height="2" fill="#DAD45E" />
</svg>
