<svg
  version="1.1"
  width="28"
  height="36"
  xmlns="http://www.w3.org/2000/svg"
  shape-rendering="crispEdges"
  fill="#D04648"
>
  <rect x="10" y="0" width="8" height="2" fill="#000000" />
  <rect x="18" y="2" width="4" height="2" fill="#000000" />
  <rect x="4" y="4" width="2" height="2" fill="#000000" />
  <rect x="2" y="6" width="2" height="14" fill="#000000" />
  <rect x="6" y="2" width="4" height="2" fill="#000000" />
  <rect x="22" y="4" width="2" height="2" fill="#000000" />
  <rect x="24" y="6" width="2" height="14" fill="#000000" />
  <rect x="10" y="10" width="2" height="2" fill="#000000" />
  <rect x="8" y="12" width="2" height="4" fill="#000000" />
  <rect x="12" y="8" width="4" height="2" fill="#000000" />
  <rect x="18" y="12" width="2" height="4" fill="#000000" />
  <rect x="10" y="16" width="2" height="2" fill="#000000" />
  <rect x="16" y="10" width="2" height="2" fill="#000000" />
  <rect x="16" y="16" width="2" height="2" fill="#000000" />
  <rect x="4" y="18" width="2" height="2" fill="#000000" />
  <rect x="12" y="18" width="4" height="2" fill="#000000" />
  <rect x="22" y="18" width="2" height="2" fill="#000000" />
  <rect x="0" y="19" width="2" height="5" fill="#000000" />
  <rect x="6" y="20" width="2" height="4" fill="#000000" />
  <rect x="20" y="20" width="2" height="4" fill="#000000" />
  <rect x="26" y="20" width="2" height="4" fill="#000000" />
  <rect x="2" y="24" width="2" height="2" fill="#000000" />
  <rect x="24" y="24" width="2" height="2" fill="#000000" />
  <rect x="4" y="26" width="2" height="2" fill="#000000" />
  <rect x="12" y="26" width="4" height="2" fill="#000000" />
  <rect x="22" y="26" width="2" height="2" fill="#000000" />
  <rect x="6" y="28" width="6" height="2" fill="#000000" />
  <rect x="16" y="28" width="6" height="2" fill="#000000" />
  <rect x="10" y="2" width="2" height="8"  />
  <rect x="12" y="2" width="4" height="6"  />
  <rect x="4" y="6" width="2" height="12"  />
  <rect x="6" y="4" width="2" height="16"  />
  <rect x="8" y="4" width="2" height="8"  />
  <rect x="18" y="4" width="2" height="8"  />
  <rect x="20" y="4" width="2" height="16"  />
  <rect x="22" y="6" width="2" height="12"  />
  <rect x="13" y="10" width="3" height="8"  />
  <rect x="10" y="12" width="2" height="4"  />
  <rect x="12" y="10" width="1" height="8"  />
  <rect x="8" y="16" width="2" height="12"  />
  <rect x="16" y="2" width="2" height="8"  />
  <rect x="16" y="12" width="2" height="4"  />
  <rect x="10" y="18" width="2" height="10"  />
  <rect x="16" y="18" width="2" height="10"  />
  <rect x="18" y="16" width="2" height="12"  />
  <rect x="20" y="24" width="2" height="4"  />
  <rect x="2" y="20" width="2" height="4"  />
  <rect x="4" y="20" width="2" height="6"  />
  <rect x="12" y="20" width="4" height="6"  />
  <rect x="22" y="20" width="2" height="6"  />
  <rect x="6" y="24" width="2" height="4"  />
  <rect x="24" y="20" width="2" height="4"  />
  <rect x="6" y="32" width="16" height="4" fill="#4E4A4E" />
  <rect x="4" y="34" width="2" height="2" fill="#4E4A4E" />
  <rect x="22" y="34" width="2" height="2" fill="#4E4A4E" />
</svg>
