<svg
  version="1.1"
  width="28"
  height="32"
  xmlns="http://www.w3.org/2000/svg"
  shape-rendering="crispEdges"
  fill="#D04648"
>
  <rect x="10" y="6" width="8" height="2" fill="#000000" />
  <rect x="4" y="10" width="2" height="2" fill="#000000" />
  <rect x="6" y="8" width="4" height="2" fill="#000000" />
  <rect x="18" y="8" width="2" height="2" fill="#000000" />
  <rect x="23" y="10" width="1" height="2" fill="#000000" />
  <rect x="2" y="12" width="2" height="12" fill="#000000" />
  <rect x="4" y="24" width="2" height="2" fill="#000000" />
  <rect x="20" y="8" width="2" height="2" fill="#000000" />
  <rect x="24" y="12" width="2" height="12" fill="#000000" />
  <rect x="2" y="26" width="2" height="4" fill="#000000" />
  <rect x="6" y="26" width="2" height="2" fill="#000000" />
  <rect x="8" y="26" width="2" height="4" fill="#000000" />
  <rect x="18" y="26" width="2" height="4" fill="#000000" />
  <rect x="20" y="26" width="2" height="2" fill="#000000" />
  <rect x="22" y="10" width="1" height="2" fill="#000000" />
  <rect x="22" y="24" width="2" height="2" fill="#000000" />
  <rect x="10" y="28" width="8" height="2" fill="#000000" />
  <rect x="24" y="26" width="2" height="4" fill="#000000" />
  <rect x="4" y="30" width="4" height="2" fill="#000000" />
  <rect x="20" y="30" width="4" height="2" fill="#000000" />
  <rect x="10" y="8" width="8" height="20" />
  <rect x="6" y="10" width="4" height="16" />
  <rect x="18" y="10" width="4" height="16" />
  <rect x="4" y="12" width="2" height="12" />
  <rect x="22" y="12" width="2" height="12" />
  <rect x="22" y="26" width="2" height="4" />
  <rect x="4" y="26" width="2" height="4" />
  <rect x="6" y="28" width="2" height="2" />
  <rect x="20" y="28" width="2" height="2" />
</svg>
