<svg
  version="1.1"
  width="24"
  height="24"
  xmlns="http://www.w3.org/2000/svg"
  shape-rendering="crispEdges"
>
  <rect x="8" y="0" width="8" height="2" fill="#000000" />
  <rect x="2" y="4" width="2" height="4" fill="#000000" />
  <rect x="4" y="2" width="3" height="2" fill="#000000" />
  <rect x="5" y="7" width="2" height="4" fill="#000000" />
  <rect x="7" y="2" width="1" height="2" fill="#000000" />
  <rect x="16" y="2" width="4" height="2" fill="#000000" />
  <rect x="20" y="4" width="2" height="4" fill="#000000" />
  <rect x="7" y="5" width="1" height="6" fill="#000000" />
  <rect x="0" y="8" width="2" height="8" fill="#000000" />
  <rect x="8" y="5" width="1" height="6" fill="#000000" />
  <rect x="9" y="5" width="6" height="4" fill="#000000" />
  <rect x="15" y="5" width="2" height="8" fill="#000000" />
  <rect x="22" y="8" width="2" height="8" fill="#000000" />
  <rect x="9" y="13" width="4" height="2" fill="#000000" />
  <rect x="13" y="11" width="2" height="4" fill="#000000" />
  <rect x="2" y="16" width="2" height="4" fill="#000000" />
  <rect x="20" y="16" width="2" height="4" fill="#000000" />
  <rect x="9" y="17" width="6" height="2" fill="#000000" />
  <rect x="17" y="7" width="2" height="4" fill="#000000" />
  <rect x="4" y="20" width="4" height="2" fill="#000000" />
  <rect x="16" y="20" width="4" height="2" fill="#000000" />
  <rect x="8" y="22" width="8" height="2" fill="#000000" />
  <rect x="8" y="2" width="8" height="3" fill="#DAD45E" />
  <rect x="4" y="4" width="1" height="16" fill="#DAD45E" />
  <rect x="5" y="4" width="2" height="3" fill="#DAD45E" />
  <rect x="7" y="4" width="1" height="1" fill="#DAD45E" />
  <rect x="16" y="4" width="1" height="1" fill="#DAD45E" />
  <rect x="17" y="4" width="2" height="3" fill="#DAD45E" />
  <rect x="19" y="4" width="1" height="16" fill="#DAD45E" />
  <rect x="5" y="11" width="3" height="9" fill="#DAD45E" />
  <rect x="2" y="8" width="2" height="8" fill="#DAD45E" />
  <rect x="20" y="8" width="2" height="8" fill="#DAD45E" />
  <rect x="9" y="9" width="4" height="4" fill="#DAD45E" />
  <rect x="13" y="9" width="2" height="2" fill="#DAD45E" />
  <rect x="8" y="11" width="1" height="11" fill="#DAD45E" />
  <rect x="17" y="11" width="2" height="9" fill="#DAD45E" />
  <rect x="9" y="15" width="6" height="2" fill="#DAD45E" />
  <rect x="15" y="13" width="1" height="9" fill="#DAD45E" />
  <rect x="16" y="13" width="1" height="7" fill="#DAD45E" />
  <rect x="9" y="19" width="6" height="3" fill="#DAD45E" />
</svg>
