<svg
  version="1.1"
  width="60"
  height="60"
  xmlns="http://www.w3.org/2000/svg"
  shape-rendering="crispEdges"
  fill="#D04648"
>

  <defs>
    <filter id="darken">
      <feColorMatrix
        type="matrix"
        values="         0.827  0     0     0   0         0     0.714 0     0   0         0     0     0.694 0   0         0     0     0     1   0"
      />
    </filter>
  </defs>

  <rect x="20" y="0" width="20" height="4" fill="#000000" />
  <rect x="8" y="8" width="4" height="4" fill="#000000" />
  <rect x="4" y="12" width="4" height="8" fill="#000000" />
  <rect x="12" y="4" width="8" height="4" fill="#000000" />
  <rect x="40" y="4" width="8" height="4" fill="#000000" />
  <rect x="48" y="8" width="4" height="4" fill="#000000" />
  <rect x="52" y="12" width="4" height="8" fill="#000000" />
  <rect x="24" y="13" width="12" height="3" fill="#000000" />
  <rect x="18" y="16" width="6" height="3" fill="#000000" />
  <rect x="36" y="16" width="6" height="3" fill="#000000" />
  <rect x="15" y="19" width="3" height="3" fill="#000000" />
  <rect x="42" y="19" width="3" height="3" fill="#000000" />
  <rect x="0" y="20" width="4" height="20" fill="#000000" />
  <rect x="56" y="20" width="4" height="20" fill="#000000" />
  <rect x="12" y="22" width="3" height="18" fill="#000000" />
  <rect x="45" y="22" width="3" height="18" fill="#000000" />
  <rect x="27" y="25" width="6" height="3" fill="#000000" />
  <rect x="24" y="28" width="3" height="3" fill="#000000" />
  <rect x="33" y="28" width="3" height="3" fill="#000000" />
  <rect x="21" y="31" width="3" height="6" fill="#000000" />
  <rect x="36" y="31" width="3" height="6" fill="#000000" />
  <rect x="24" y="37" width="3" height="3" fill="#000000" />
  <rect x="33" y="37" width="3" height="3" fill="#000000" />
  <rect x="4" y="40" width="4" height="8" fill="#000000" />
  <rect x="15" y="40" width="3" height="6" fill="#000000" />
  <rect x="27" y="40" width="6" height="3" fill="#000000" />
  <rect x="42" y="40" width="3" height="6" fill="#000000" />
  <rect x="52" y="40" width="4" height="8" fill="#000000" />
  <rect x="12" y="43" width="3" height="3" fill="#000000" />
  <rect x="45" y="43" width="3" height="3" fill="#000000" />
  <rect x="9" y="46" width="3" height="6" fill="#000000" />
  <rect x="18" y="46" width="3" height="3" fill="#000000" />
  <rect x="39" y="46" width="3" height="3" fill="#000000" />
  <rect x="8" y="48" width="1" height="4" fill="#000000" />
  <rect x="48" y="46" width="3" height="6" fill="#000000" />
  <rect x="51" y="48" width="1" height="4" fill="#000000" />
  <rect x="12" y="52" width="8" height="4" fill="#000000" />
  <rect x="40" y="52" width="8" height="4" fill="#000000" />
  <rect x="20" y="56" width="20" height="4" fill="#000000" />
  <rect x="20" y="4" width="4" height="12" fill="#4E4A4E" />
  <rect x="24" y="4" width="12" height="9" fill="#4E4A4E" />
  <rect x="36" y="4" width="4" height="12" fill="#4E4A4E" />
  <rect x="8" y="12" width="1" height="36" fill="#4E4A4E" />
  <rect x="9" y="12" width="3" height="34" fill="#4E4A4E" />
  <rect x="12" y="8" width="3" height="14" fill="#4E4A4E" />
  <rect x="15" y="8" width="3" height="11" fill="#4E4A4E" />
  <rect x="18" y="8" width="2" height="8" fill="#4E4A4E" />
  <rect x="42" y="8" width="3" height="11" fill="#4E4A4E" />
  <rect x="45" y="8" width="3" height="14" fill="#4E4A4E" />
  <rect x="48" y="12" width="3" height="34" fill="#4E4A4E" />
  <rect x="51" y="12" width="1" height="36" fill="#4E4A4E" />
  <rect x="4" y="20" width="4" height="20" fill="#4E4A4E" />
  <rect x="52" y="20" width="4" height="20" fill="#4E4A4E" />
  <rect x="12" y="40" width="3" height="3" fill="#4E4A4E" />
  <rect x="40" y="8" width="2" height="8" fill="#4E4A4E" />
  <rect x="45" y="40" width="3" height="3" fill="#4E4A4E" />
  <rect x="24" y="16" width="3" height="12"  />
  <rect x="27" y="16" width="6" height="9"  />
  <rect x="33" y="16" width="3" height="12"  />
  <rect x="18" y="19" width="3" height="24"  />
  <rect x="36" y="19" width="3" height="12"  />
  <rect x="39" y="19" width="3" height="24"  />
  <rect x="15" y="22" width="3" height="18"  />
  <rect x="22" y="19" width="2" height="12"  />
  <rect x="27" y="28" width="6" height="12"  />
  <rect x="33" y="31" width="3" height="6"  />
  <rect x="21" y="19" width="1" height="12"  />
  <rect x="42" y="22" width="3" height="18"  />
  <rect x="24" y="31" width="3" height="6"  />
  <rect x="21" y="37" width="3" height="19"  />
  <rect x="36" y="37" width="3" height="19"  />
  <rect x="24" y="40" width="3" height="16"  />
  <rect x="33" y="40" width="3" height="16"  />
  <rect x="27" y="43" width="6" height="13"  />
  <rect x="12" y="46" width="6" height="6"  />
  <rect x="42" y="46" width="6" height="6"  />
  <rect x="18" y="49" width="2" height="3"  />
  <rect x="20" y="49" width="1" height="7"  />
  <rect x="39" y="49" width="1" height="7"  />
  <rect x="40" y="49" width="2" height="3"  />
  <rect x="18" y="43" width="3" height="3" filter="url(#darken)" />
  <rect x="39" y="43" width="3" height="3" filter="url(#darken)" />
</svg>
