<svg
  version="1.1"
  width="144"
  height="84"
  xmlns="http://www.w3.org/2000/svg"
  shape-rendering="crispEdges"
>
  <rect x="102" y="0" width="6" height="30" fill="#DAD45E" />
  <rect x="0" y="12" width="6" height="12" fill="#DAD45E" />
  <rect x="12" y="0" width="12" height="6" fill="#DAD45E" />
  <rect x="42" y="0" width="6" height="30" fill="#DAD45E" />
  <rect x="56" y="0" width="4" height="30" fill="#DAD45E" />
  <rect x="78" y="0" width="6" height="30" fill="#DAD45E" />
  <rect x="132" y="0" width="12" height="6" fill="#DAD45E" />
  <rect x="6" y="6" width="6" height="24" fill="#DAD45E" />
  <rect x="36" y="6" width="6" height="24" fill="#DAD45E" />
  <rect x="72" y="6" width="6" height="24" fill="#DAD45E" />
  <rect x="96" y="6" width="6" height="12" fill="#DAD45E" />
  <rect x="90" y="12" width="6" height="12" fill="#DAD45E" />
  <rect x="12" y="24" width="12" height="6" fill="#DAD45E" />
  <rect x="24" y="48" width="6" height="30" fill="#DAD45E" />
  <rect x="48" y="18" width="6" height="12" fill="#DAD45E" />
  <rect x="6" y="54" width="6" height="24" fill="#DAD45E" />
  <rect x="126" y="6" width="6" height="24" fill="#DAD45E" />
  <rect x="120" y="12" width="6" height="12" fill="#DAD45E" />
  <rect x="132" y="12" width="6" height="6" fill="#DAD45E" />
  <rect x="132" y="24" width="12" height="6" fill="#DAD45E" />
  <rect x="48" y="0" width="6" height="6" fill="#DAD45E" />
  <rect x="48" y="54" width="6" height="24" fill="#DAD45E" />
  <rect x="54" y="0" width="2" height="30" fill="#DAD45E" />
  <rect x="84" y="6" width="6" height="12" fill="#DAD45E" />
  <rect x="12" y="48" width="6" height="30" fill="#DAD45E" />
  <rect x="84" y="48" width="6" height="30" fill="#DAD45E" />
  <rect x="90" y="48" width="6" height="6" fill="#DAD45E" />
  <rect x="96" y="48" width="6" height="12" fill="#DAD45E" />
  <rect x="54" y="48" width="6" height="6" fill="#DAD45E" />
  <rect x="78" y="54" width="6" height="24" fill="#DAD45E" />
  <rect x="54" y="60" width="6" height="6" fill="#DAD45E" />
  <rect x="60" y="48" width="6" height="6" fill="#DAD45E" />
  <rect x="126" y="48" width="12" height="6" fill="#DAD45E" />
  <rect x="54" y="72" width="12" height="6" fill="#DAD45E" />
  <rect x="120" y="54" width="6" height="24" fill="#DAD45E" />
  <rect x="18" y="60" width="6" height="6" fill="#DAD45E" />
  <rect x="42" y="60" width="6" height="12" fill="#DAD45E" />
  <rect x="90" y="60" width="6" height="6" fill="#DAD45E" />
  <rect x="114" y="60" width="6" height="12" fill="#DAD45E" />
  <rect x="126" y="60" width="6" height="6" fill="#DAD45E" />
  <rect x="96" y="66" width="6" height="12" fill="#DAD45E" />
  <rect x="126" y="72" width="12" height="6" fill="#DAD45E" />
  <rect x="0" y="6" width="6" height="6" fill="#DEEDD6" />
  <rect x="6" y="0" width="6" height="6" fill="#DEEDD6" />
  <rect x="36" y="0" width="6" height="6" fill="#DEEDD6" />
  <rect x="72" y="0" width="6" height="6" fill="#DEEDD6" />
  <rect x="126" y="0" width="6" height="6" fill="#DEEDD6" />
  <rect x="120" y="6" width="6" height="6" fill="#DEEDD6" />
  <rect x="6" y="48" width="6" height="6" fill="#DEEDD6" />
  <rect x="48" y="48" width="6" height="6" fill="#DEEDD6" />
  <rect x="78" y="48" width="6" height="6" fill="#DEEDD6" />
  <rect x="120" y="48" width="6" height="6" fill="#DEEDD6" />
  <rect x="42" y="54" width="6" height="6" fill="#DEEDD6" />
  <rect x="114" y="54" width="6" height="6" fill="#DEEDD6" />
  <rect x="12" y="6" width="12" height="6" fill="#757161" />
  <rect x="48" y="6" width="6" height="6" fill="#757161" />
  <rect x="132" y="6" width="12" height="6" fill="#757161" />
  <rect x="84" y="18" width="6" height="6" fill="#757161" />
  <rect x="96" y="18" width="6" height="6" fill="#757161" />
  <rect x="132" y="18" width="6" height="6" fill="#757161" />
  <rect x="0" y="24" width="6" height="6" fill="#757161" />
  <rect x="90" y="24" width="6" height="6" fill="#757161" />
  <rect x="120" y="24" width="6" height="6" fill="#757161" />
  <rect x="6" y="30" width="18" height="6" fill="#757161" />
  <rect x="36" y="30" width="24" height="6" fill="#757161" />
  <rect x="72" y="30" width="12" height="6" fill="#757161" />
  <rect x="102" y="30" width="6" height="6" fill="#757161" />
  <rect x="126" y="30" width="18" height="6" fill="#757161" />
  <rect x="54" y="54" width="12" height="6" fill="#757161" />
  <rect x="90" y="54" width="6" height="6" fill="#757161" />
  <rect x="126" y="54" width="12" height="6" fill="#757161" />
  <rect x="96" y="60" width="6" height="6" fill="#757161" />
  <rect x="18" y="66" width="6" height="6" fill="#757161" />
  <rect x="54" y="66" width="6" height="6" fill="#757161" />
  <rect x="90" y="66" width="6" height="12" fill="#757161" />
  <rect x="126" y="66" width="6" height="6" fill="#757161" />
  <rect x="42" y="72" width="6" height="6" fill="#757161" />
  <rect x="114" y="72" width="6" height="6" fill="#757161" />
  <rect x="6" y="78" width="12" height="6" fill="#757161" />
  <rect x="24" y="78" width="6" height="6" fill="#757161" />
  <rect x="48" y="78" width="18" height="6" fill="#757161" />
  <rect x="78" y="78" width="12" height="6" fill="#757161" />
  <rect x="96" y="78" width="6" height="6" fill="#757161" />
  <rect x="120" y="78" width="18" height="6" fill="#757161" />
</svg>
