<svg
  version="1.1"
  width="564"
  height="92"
  xmlns="http://www.w3.org/2000/svg"
  shape-rendering="crispEdges"
>
  <rect x="228" y="0" width="16" height="4" fill="#000000" />
  <rect x="416" y="0" width="32" height="4" fill="#000000" />
  <rect x="4" y="4" width="4" height="4" fill="#000000" />
  <rect x="36" y="4" width="16" height="4" fill="#000000" />
  <rect x="220" y="4" width="8" height="4" fill="#000000" />
  <rect x="244" y="4" width="8" height="4" fill="#000000" />
  <rect x="368" y="4" width="24" height="4" fill="#000000" />
  <rect x="412" y="4" width="4" height="76" fill="#000000" />
  <rect x="448" y="4" width="4" height="4" fill="#000000" />
  <rect x="472" y="4" width="8" height="4" fill="#000000" />
  <rect x="0" y="8" width="4" height="48" fill="#000000" />
  <rect x="8" y="4" width="12" height="4" fill="#000000" />
  <rect x="20" y="8" width="4" height="48" fill="#000000" />
  <rect x="32" y="8" width="4" height="48" fill="#000000" />
  <rect x="52" y="8" width="4" height="68" fill="#000000" />
  <rect x="216" y="8" width="4" height="4" fill="#000000" />
  <rect x="252" y="8" width="4" height="4" fill="#000000" />
  <rect x="364" y="8" width="4" height="4" fill="#000000" />
  <rect x="392" y="8" width="4" height="4" fill="#000000" />
  <rect x="452" y="8" width="4" height="4" fill="#000000" />
  <rect x="468" y="8" width="4" height="36" fill="#000000" />
  <rect x="480" y="8" width="4" height="28" fill="#000000" />
  <rect x="512" y="8" width="40" height="4" fill="#000000" />
  <rect x="24" y="12" width="4" height="48" fill="#000000" />
  <rect x="128" y="12" width="16" height="4" fill="#000000" />
  <rect x="256" y="12" width="4" height="8" fill="#000000" />
  <rect x="276" y="12" width="24" height="4" fill="#000000" />
  <rect x="360" y="12" width="4" height="4" fill="#000000" />
  <rect x="396" y="12" width="4" height="4" fill="#000000" />
  <rect x="428" y="12" width="12" height="20" fill="#000000" />
  <rect x="456" y="12" width="4" height="4" fill="#000000" />
  <rect x="484" y="12" width="4" height="24" fill="#000000" />
  <rect x="508" y="12" width="4" height="64" fill="#000000" />
  <rect x="552" y="12" width="4" height="20" fill="#000000" />
  <rect x="28" y="16" width="4" height="44" fill="#000000" />
  <rect x="60" y="16" width="4" height="48" fill="#000000" />
  <rect x="120" y="16" width="8" height="4" fill="#000000" />
  <rect x="260" y="16" width="4" height="56" fill="#000000" />
  <rect x="272" y="16" width="4" height="36" fill="#000000" />
  <rect x="300" y="16" width="4" height="4" fill="#000000" />
  <rect x="356" y="16" width="4" height="4" fill="#000000" />
  <rect x="376" y="16" width="8" height="24" fill="#000000" />
  <rect x="400" y="16" width="4" height="4" fill="#000000" />
  <rect x="440" y="16" width="4" height="12" fill="#000000" />
  <rect x="460" y="16" width="4" height="56" fill="#000000" />
  <rect x="488" y="16" width="4" height="20" fill="#000000" />
  <rect x="556" y="16" width="4" height="16" fill="#000000" />
  <rect x="304" y="19" width="4" height="29" fill="#000000" />
  <rect x="68" y="20" width="8" height="4" fill="#000000" />
  <rect x="92" y="20" width="8" height="4" fill="#000000" />
  <rect x="116" y="20" width="4" height="4" fill="#000000" />
  <rect x="264" y="20" width="4" height="48" fill="#000000" />
  <rect x="316" y="20" width="24" height="4" fill="#000000" />
  <rect x="352" y="20" width="4" height="52" fill="#000000" />
  <rect x="372" y="20" width="4" height="20" fill="#000000" />
  <rect x="384" y="20" width="4" height="20" fill="#000000" />
  <rect x="404" y="20" width="4" height="64" fill="#000000" />
  <rect x="464" y="20" width="4" height="20" fill="#000000" />
  <rect x="528" y="20" width="12" height="20" fill="#000000" />
  <rect x="540" y="20" width="12" height="12" fill="#000000" />
  <rect x="560" y="20" width="4" height="8" fill="#000000" />
  <rect x="64" y="24" width="4" height="36" fill="#000000" />
  <rect x="76" y="24" width="4" height="8" fill="#000000" />
  <rect x="88" y="24" width="4" height="20" fill="#000000" />
  <rect x="100" y="24" width="4" height="48" fill="#000000" />
  <rect x="112" y="24" width="4" height="8" fill="#000000" />
  <rect x="284" y="24" width="12" height="4" fill="#000000" />
  <rect x="308" y="24" width="4" height="20" fill="#000000" />
  <rect x="312" y="24" width="4" height="36" fill="#000000" />
  <rect x="340" y="24" width="4" height="4" fill="#000000" />
  <rect x="408" y="24" width="4" height="60" fill="#000000" />
  <rect x="344" y="27" width="4" height="29" fill="#000000" />
  <rect x="80" y="28" width="4" height="8" fill="#000000" />
  <rect x="104" y="28" width="4" height="40" fill="#000000" />
  <rect x="244" y="28" width="8" height="28" fill="#000000" />
  <rect x="268" y="28" width="4" height="32" fill="#000000" />
  <rect x="456" y="28" width="4" height="16" fill="#000000" />
  <rect x="84" y="32" width="4" height="8" fill="#000000" />
  <rect x="108" y="32" width="4" height="32" fill="#000000" />
  <rect x="252" y="32" width="4" height="20" fill="#000000" />
  <rect x="300" y="32" width="4" height="16" fill="#000000" />
  <rect x="324" y="32" width="12" height="4" fill="#000000" />
  <rect x="348" y="32" width="4" height="20" fill="#000000" />
  <rect x="452" y="32" width="4" height="8" fill="#000000" />
  <rect x="492" y="32" width="8" height="4" fill="#000000" />
  <rect x="256" y="35" width="4" height="13" fill="#000000" />
  <rect x="500" y="35" width="4" height="21" fill="#000000" />
  <rect x="284" y="36" width="8" height="28" fill="#000000" />
  <rect x="292" y="36" width="4" height="24" fill="#000000" />
  <rect x="296" y="36" width="4" height="12" fill="#000000" />
  <rect x="540" y="36" width="4" height="4" fill="#000000" />
  <rect x="340" y="40" width="4" height="16" fill="#000000" />
  <rect x="428" y="40" width="12" height="20" fill="#000000" />
  <rect x="504" y="40" width="4" height="16" fill="#000000" />
  <rect x="544" y="40" width="4" height="20" fill="#000000" />
  <rect x="76" y="44" width="4" height="28" fill="#000000" />
  <rect x="116" y="44" width="4" height="4" fill="#000000" />
  <rect x="324" y="44" width="8" height="28" fill="#000000" />
  <rect x="332" y="44" width="4" height="24" fill="#000000" />
  <rect x="336" y="44" width="4" height="12" fill="#000000" />
  <rect x="440" y="44" width="4" height="12" fill="#000000" />
  <rect x="472" y="44" width="4" height="4" fill="#000000" />
  <rect x="476" y="44" width="4" height="8" fill="#000000" />
  <rect x="480" y="44" width="20" height="12" fill="#000000" />
  <rect x="548" y="44" width="4" height="16" fill="#000000" />
  <rect x="372" y="48" width="8" height="36" fill="#000000" />
  <rect x="380" y="48" width="4" height="32" fill="#000000" />
  <rect x="384" y="48" width="4" height="24" fill="#000000" />
  <rect x="464" y="48" width="4" height="20" fill="#000000" />
  <rect x="528" y="48" width="12" height="20" fill="#000000" />
  <rect x="540" y="48" width="4" height="12" fill="#000000" />
  <rect x="256" y="52" width="4" height="24" fill="#000000" />
  <rect x="276" y="52" width="4" height="4" fill="#000000" />
  <rect x="280" y="52" width="4" height="8" fill="#000000" />
  <rect x="468" y="52" width="4" height="12" fill="#000000" />
  <rect x="4" y="56" width="4" height="8" fill="#000000" />
  <rect x="48" y="56" width="4" height="24" fill="#000000" />
  <rect x="56" y="12" width="4" height="60" fill="#000000" />
  <rect x="212" y="12" width="4" height="8" fill="#000000" />
  <rect x="144" y="16" width="8" height="4" fill="#000000" />
  <rect x="152" y="20" width="4" height="4" fill="#000000" />
  <rect x="168" y="20" width="32" height="4" fill="#000000" />
  <rect x="208" y="20" width="4" height="32" fill="#000000" />
  <rect x="200" y="23" width="4" height="21" fill="#000000" />
  <rect x="156" y="24" width="4" height="8" fill="#000000" />
  <rect x="164" y="24" width="4" height="24" fill="#000000" />
  <rect x="132" y="28" width="4" height="12" fill="#000000" />
  <rect x="136" y="28" width="4" height="16" fill="#000000" />
  <rect x="160" y="28" width="4" height="20" fill="#000000" />
  <rect x="204" y="28" width="4" height="16" fill="#000000" />
  <rect x="240" y="28" width="4" height="4" fill="#000000" />
  <rect x="128" y="32" width="4" height="4" fill="#000000" />
  <rect x="140" y="32" width="4" height="12" fill="#000000" />
  <rect x="168" y="32" width="8" height="4" fill="#000000" />
  <rect x="176" y="32" width="4" height="28" fill="#000000" />
  <rect x="188" y="32" width="8" height="40" fill="#000000" />
  <rect x="196" y="32" width="4" height="36" fill="#000000" />
  <rect x="236" y="32" width="4" height="20" fill="#000000" />
  <rect x="144" y="36" width="8" height="12" fill="#000000" />
  <rect x="152" y="36" width="4" height="16" fill="#000000" />
  <rect x="156" y="36" width="4" height="12" fill="#000000" />
  <rect x="232" y="36" width="4" height="12" fill="#000000" />
  <rect x="112" y="40" width="4" height="4" fill="#000000" />
  <rect x="168" y="40" width="4" height="4" fill="#000000" />
  <rect x="240" y="40" width="4" height="16" fill="#000000" />
  <rect x="80" y="48" width="4" height="24" fill="#000000" />
  <rect x="120" y="48" width="4" height="4" fill="#000000" />
  <rect x="124" y="48" width="4" height="12" fill="#000000" />
  <rect x="552" y="48" width="4" height="8" fill="#000000" />
  <rect x="84" y="52" width="4" height="16" fill="#000000" />
  <rect x="128" y="52" width="4" height="12" fill="#000000" />
  <rect x="132" y="52" width="4" height="16" fill="#000000" />
  <rect x="156" y="52" width="4" height="4" fill="#000000" />
  <rect x="212" y="52" width="4" height="8" fill="#000000" />
  <rect x="88" y="56" width="4" height="8" fill="#000000" />
  <rect x="112" y="56" width="12" height="4" fill="#000000" />
  <rect x="136" y="56" width="4" height="12" fill="#000000" />
  <rect x="160" y="56" width="4" height="28" fill="#000000" />
  <rect x="456" y="56" width="4" height="20" fill="#000000" />
  <rect x="72" y="60" width="4" height="8" fill="#000000" />
  <rect x="92" y="60" width="4" height="8" fill="#000000" />
  <rect x="96" y="60" width="4" height="12" fill="#000000" />
  <rect x="252" y="60" width="4" height="16" fill="#000000" />
  <rect x="316" y="60" width="4" height="4" fill="#000000" />
  <rect x="320" y="60" width="4" height="8" fill="#000000" />
  <rect x="452" y="60" width="4" height="20" fill="#000000" />
  <rect x="8" y="64" width="4" height="4" fill="#000000" />
  <rect x="44" y="64" width="4" height="16" fill="#000000" />
  <rect x="112" y="64" width="4" height="8" fill="#000000" />
  <rect x="244" y="64" width="8" height="16" fill="#000000" />
  <rect x="448" y="64" width="4" height="16" fill="#000000" />
  <rect x="540" y="64" width="12" height="4" fill="#000000" />
  <rect x="12" y="68" width="4" height="4" fill="#000000" />
  <rect x="16" y="68" width="4" height="8" fill="#000000" />
  <rect x="36" y="68" width="8" height="16" fill="#000000" />
  <rect x="68" y="60" width="4" height="4" fill="#000000" />
  <rect x="140" y="60" width="4" height="4" fill="#000000" />
  <rect x="164" y="60" width="4" height="20" fill="#000000" />
  <rect x="180" y="60" width="4" height="4" fill="#000000" />
  <rect x="184" y="60" width="4" height="8" fill="#000000" />
  <rect x="216" y="60" width="4" height="4" fill="#000000" />
  <rect x="156" y="64" width="4" height="24" fill="#000000" />
  <rect x="168" y="64" width="4" height="8" fill="#000000" />
  <rect x="220" y="64" width="4" height="4" fill="#000000" />
  <rect x="224" y="64" width="4" height="8" fill="#000000" />
  <rect x="228" y="68" width="8" height="8" fill="#000000" />
  <rect x="236" y="68" width="8" height="12" fill="#000000" />
  <rect x="416" y="68" width="4" height="4" fill="#000000" />
  <rect x="420" y="68" width="4" height="8" fill="#000000" />
  <rect x="424" y="68" width="24" height="12" fill="#000000" />
  <rect x="552" y="68" width="4" height="20" fill="#000000" />
  <rect x="20" y="72" width="8" height="8" fill="#000000" />
  <rect x="28" y="72" width="8" height="12" fill="#000000" />
  <rect x="116" y="72" width="4" height="4" fill="#000000" />
  <rect x="152" y="72" width="4" height="16" fill="#000000" />
  <rect x="356" y="72" width="4" height="4" fill="#000000" />
  <rect x="360" y="72" width="4" height="8" fill="#000000" />
  <rect x="364" y="72" width="8" height="12" fill="#000000" />
  <rect x="388" y="72" width="4" height="4" fill="#000000" />
  <rect x="392" y="72" width="4" height="8" fill="#000000" />
  <rect x="396" y="72" width="8" height="12" fill="#000000" />
  <rect x="556" y="72" width="4" height="16" fill="#000000" />
  <rect x="120" y="76" width="4" height="4" fill="#000000" />
  <rect x="124" y="76" width="4" height="8" fill="#000000" />
  <rect x="144" y="76" width="8" height="16" fill="#000000" />
  <rect x="512" y="76" width="4" height="4" fill="#000000" />
  <rect x="516" y="76" width="4" height="8" fill="#000000" />
  <rect x="520" y="76" width="32" height="12" fill="#000000" />
  <rect x="560" y="76" width="4" height="8" fill="#000000" />
  <rect x="128" y="80" width="8" height="8" fill="#000000" />
  <rect x="136" y="80" width="8" height="12" fill="#000000" />
  <rect x="416" y="4" width="4" height="32" fill="#DEEDD6" />
  <rect x="420" y="4" width="28" height="4" fill="#DEEDD6" />
  <rect x="4" y="8" width="4" height="32" fill="#DEEDD6" />
  <rect x="8" y="8" width="12" height="4" fill="#DEEDD6" />
  <rect x="36" y="8" width="4" height="32" fill="#DEEDD6" />
  <rect x="40" y="8" width="12" height="4" fill="#DEEDD6" />
  <rect x="472" y="8" width="4" height="20" fill="#DEEDD6" />
  <rect x="476" y="8" width="4" height="4" fill="#DEEDD6" />
  <rect x="512" y="12" width="4" height="32" fill="#DEEDD6" />
  <rect x="516" y="12" width="36" height="4" fill="#DEEDD6" />
  <rect x="128" y="16" width="4" height="8" fill="#DEEDD6" />
  <rect x="132" y="16" width="12" height="4" fill="#DEEDD6" />
  <rect x="276" y="16" width="4" height="20" fill="#DEEDD6" />
  <rect x="280" y="16" width="20" height="4" fill="#DEEDD6" />
  <rect x="120" y="20" width="4" height="8" fill="#DEEDD6" />
  <rect x="124" y="20" width="4" height="4" fill="#DEEDD6" />
  <rect x="148" y="20" width="4" height="4" fill="#DEEDD6" />
  <rect x="444" y="20" width="4" height="12" fill="#DEEDD6" />
  <rect x="68" y="24" width="4" height="20" fill="#DEEDD6" />
  <rect x="72" y="24" width="4" height="4" fill="#DEEDD6" />
  <rect x="92" y="24" width="4" height="20" fill="#DEEDD6" />
  <rect x="96" y="24" width="4" height="4" fill="#DEEDD6" />
  <rect x="116" y="24" width="4" height="12" fill="#DEEDD6" />
  <rect x="168" y="24" width="4" height="8" fill="#DEEDD6" />
  <rect x="172" y="24" width="28" height="4" fill="#DEEDD6" />
  <rect x="296" y="24" width="4" height="8" fill="#DEEDD6" />
  <rect x="316" y="24" width="4" height="20" fill="#DEEDD6" />
  <rect x="320" y="24" width="20" height="4" fill="#DEEDD6" />
  <rect x="289" y="28" width="7" height="4" fill="#DEEDD6" />
  <rect x="440" y="28" width="4" height="8" fill="#DEEDD6" />
  <rect x="112" y="32" width="4" height="8" fill="#DEEDD6" />
  <rect x="180" y="32" width="4" height="12" fill="#DEEDD6" />
  <rect x="336" y="32" width="4" height="8" fill="#DEEDD6" />
  <rect x="431" y="32" width="9" height="4" fill="#DEEDD6" />
  <rect x="328" y="36" width="8" height="4" fill="#DEEDD6" />
  <rect x="532" y="40" width="12" height="4" fill="#DEEDD6" />
  <rect x="140" y="44" width="4" height="4" fill="#DEEDD6" />
  <rect x="148" y="48" width="4" height="4" fill="#DEEDD6" />
  <rect x="228" y="4" width="4" height="64" fill="#FFFFFF" />
  <rect x="232" y="4" width="4" height="32" fill="#FFFFFF" />
  <rect x="236" y="4" width="4" height="28" fill="#FFFFFF" />
  <rect x="240" y="4" width="4" height="24" fill="#FFFFFF" />
  <rect x="220" y="8" width="8" height="56" fill="#FFFFFF" />
  <rect x="244" y="8" width="8" height="20" fill="#FFFFFF" />
  <rect x="216" y="12" width="4" height="48" fill="#FFFFFF" />
  <rect x="252" y="12" width="4" height="20" fill="#FFFFFF" />
  <rect x="212" y="20" width="4" height="32" fill="#FFFFFF" />
  <rect x="256" y="20" width="4" height="15" fill="#FFFFFF" />
  <rect x="240" y="32" width="4" height="8" fill="#FFFFFF" />
  <rect x="232" y="48" width="4" height="20" fill="#FFFFFF" />
  <rect x="256" y="48" width="4" height="4" fill="#FFFFFF" />
  <rect x="236" y="52" width="4" height="16" fill="#FFFFFF" />
  <rect x="252" y="52" width="4" height="8" fill="#FFFFFF" />
  <rect x="240" y="56" width="4" height="12" fill="#FFFFFF" />
  <rect x="244" y="56" width="8" height="8" fill="#FFFFFF" />
  <rect x="8" y="12" width="12" height="28" fill="#DAD45E" />
  <rect x="420" y="8" width="8" height="28" fill="#DAD45E" />
  <rect x="428" y="8" width="12" height="4" fill="#DAD45E" />
  <rect x="440" y="8" width="4" height="8" fill="#DAD45E" />
  <rect x="444" y="8" width="4" height="12" fill="#DAD45E" />
  <rect x="448" y="8" width="4" height="28" fill="#DAD45E" />
  <rect x="40" y="12" width="12" height="28" fill="#DAD45E" />
  <rect x="452" y="12" width="4" height="20" fill="#DAD45E" />
  <rect x="476" y="12" width="4" height="16" fill="#DAD45E" />
  <rect x="456" y="16" width="4" height="12" fill="#DAD45E" />
  <rect x="516" y="16" width="12" height="28" fill="#DAD45E" />
  <rect x="528" y="16" width="24" height="4" fill="#DAD45E" />
  <rect x="132" y="20" width="8" height="8" fill="#DAD45E" />
  <rect x="140" y="20" width="4" height="12" fill="#DAD45E" />
  <rect x="144" y="20" width="4" height="16" fill="#DAD45E" />
  <rect x="280" y="20" width="4" height="16" fill="#DAD45E" />
  <rect x="284" y="20" width="16" height="4" fill="#DAD45E" />
  <rect x="300" y="20" width="4" height="12" fill="#DAD45E" />
  <rect x="124" y="24" width="4" height="24" fill="#DAD45E" />
  <rect x="128" y="24" width="4" height="8" fill="#DAD45E" />
  <rect x="148" y="24" width="8" height="12" fill="#DAD45E" />
  <rect x="72" y="28" width="4" height="16" fill="#DAD45E" />
  <rect x="96" y="28" width="4" height="16" fill="#DAD45E" />
  <rect x="120" y="28" width="4" height="20" fill="#DAD45E" />
  <rect x="172" y="28" width="12" height="4" fill="#DAD45E" />
  <rect x="184" y="28" width="4" height="16" fill="#DAD45E" />
  <rect x="188" y="28" width="12" height="4" fill="#DAD45E" />
  <rect x="284" y="28" width="5" height="8" fill="#DAD45E" />
  <rect x="320" y="28" width="4" height="16" fill="#DAD45E" />
  <rect x="324" y="28" width="16" height="4" fill="#DAD45E" />
  <rect x="340" y="28" width="4" height="12" fill="#DAD45E" />
  <rect x="76" y="32" width="4" height="12" fill="#DAD45E" />
  <rect x="156" y="32" width="4" height="4" fill="#DAD45E" />
  <rect x="289" y="32" width="11" height="4" fill="#DAD45E" />
  <rect x="80" y="36" width="4" height="8" fill="#DAD45E" />
  <rect x="116" y="36" width="4" height="8" fill="#DAD45E" />
  <rect x="128" y="36" width="4" height="16" fill="#DAD45E" />
  <rect x="324" y="36" width="4" height="8" fill="#DAD45E" />
  <rect x="84" y="40" width="4" height="4" fill="#DAD45E" />
  <rect x="132" y="40" width="4" height="12" fill="#DAD45E" />
  <rect x="136" y="44" width="4" height="8" fill="#DAD45E" />
  <rect x="140" y="48" width="8" height="4" fill="#DAD45E" />
  <rect x="428" y="32" width="3" height="4" fill="#DAD45E" />
  <rect x="444" y="32" width="4" height="4" fill="#DAD45E" />
  <rect x="328" y="40" width="12" height="4" fill="#DAD45E" />
  <rect x="528" y="40" width="4" height="4" fill="#DAD45E" />
  <rect x="368" y="8" width="4" height="8" fill="#D2AA9A" />
  <rect x="372" y="8" width="20" height="4" fill="#D2AA9A" />
  <rect x="364" y="12" width="4" height="8" fill="#D2AA9A" />
  <rect x="360" y="16" width="4" height="8" fill="#D2AA9A" />
  <rect x="356" y="20" width="4" height="52" fill="#D2AA9A" />
  <rect x="388" y="20" width="4" height="24" fill="#D2AA9A" />
  <rect x="376" y="40" width="12" height="4" fill="#D2AA9A" />
  <rect x="388" y="48" width="4" height="24" fill="#D2AA9A" />
  <rect x="372" y="12" width="4" height="8" fill="#D04648" />
  <rect x="376" y="12" width="8" height="4" fill="#D04648" />
  <rect x="384" y="12" width="8" height="8" fill="#D04648" />
  <rect x="392" y="12" width="4" height="60" fill="#D04648" />
  <rect x="368" y="16" width="4" height="56" fill="#D04648" />
  <rect x="396" y="16" width="4" height="56" fill="#D04648" />
  <rect x="364" y="20" width="4" height="52" fill="#D04648" />
  <rect x="400" y="20" width="4" height="52" fill="#D04648" />
  <rect x="360" y="24" width="4" height="48" fill="#D04648" />
  <rect x="372" y="40" width="4" height="8" fill="#D04648" />
  <rect x="376" y="44" width="16" height="4" fill="#D04648" />
  <rect x="472" y="28" width="4" height="16" fill="#8594A1" />
  <rect x="276" y="36" width="4" height="16" fill="#8594A1" />
  <rect x="416" y="36" width="4" height="32" fill="#8594A1" />
  <rect x="484" y="36" width="16" height="4" fill="#8594A1" />
  <rect x="80" y="44" width="4" height="4" fill="#8594A1" />
  <rect x="180" y="44" width="4" height="16" fill="#8594A1" />
  <rect x="316" y="44" width="4" height="16" fill="#8594A1" />
  <rect x="512" y="44" width="4" height="32" fill="#8594A1" />
  <rect x="84" y="48" width="4" height="4" fill="#8594A1" />
  <rect x="444" y="48" width="4" height="12" fill="#8594A1" />
  <rect x="88" y="52" width="4" height="4" fill="#8594A1" />
  <rect x="32" y="56" width="4" height="8" fill="#8594A1" />
  <rect x="4" y="40" width="4" height="16" fill="#8594A1" />
  <rect x="36" y="40" width="4" height="20" fill="#8594A1" />
  <rect x="68" y="44" width="4" height="16" fill="#8594A1" />
  <rect x="92" y="56" width="4" height="4" fill="#8594A1" />
  <rect x="440" y="56" width="4" height="8" fill="#8594A1" />
  <rect x="8" y="60" width="4" height="4" fill="#8594A1" />
  <rect x="28" y="60" width="4" height="4" fill="#8594A1" />
  <rect x="112" y="60" width="16" height="4" fill="#8594A1" />
  <rect x="432" y="60" width="8" height="4" fill="#8594A1" />
  <rect x="140" y="64" width="4" height="8" fill="#8594A1" />
  <rect x="144" y="64" width="4" height="4" fill="#8594A1" />
  <rect x="116" y="68" width="4" height="4" fill="#8594A1" />
  <rect x="136" y="68" width="4" height="4" fill="#8594A1" />
  <rect x="532" y="68" width="20" height="4" fill="#8594A1" />
  <rect x="476" y="28" width="4" height="16" fill="#4E4A4E" />
  <rect x="280" y="36" width="4" height="16" fill="#4E4A4E" />
  <rect x="420" y="36" width="8" height="32" fill="#4E4A4E" />
  <rect x="428" y="36" width="12" height="4" fill="#4E4A4E" />
  <rect x="440" y="36" width="4" height="8" fill="#4E4A4E" />
  <rect x="444" y="36" width="4" height="12" fill="#4E4A4E" />
  <rect x="448" y="36" width="4" height="28" fill="#4E4A4E" />
  <rect x="480" y="36" width="4" height="8" fill="#4E4A4E" />
  <rect x="8" y="40" width="4" height="20" fill="#4E4A4E" />
  <rect x="12" y="40" width="8" height="28" fill="#4E4A4E" />
  <rect x="40" y="40" width="4" height="28" fill="#4E4A4E" />
  <rect x="44" y="40" width="4" height="24" fill="#4E4A4E" />
  <rect x="48" y="40" width="4" height="16" fill="#4E4A4E" />
  <rect x="452" y="40" width="4" height="20" fill="#4E4A4E" />
  <rect x="484" y="40" width="16" height="4" fill="#4E4A4E" />
  <rect x="72" y="44" width="4" height="16" fill="#4E4A4E" />
  <rect x="84" y="44" width="4" height="4" fill="#4E4A4E" />
  <rect x="88" y="44" width="4" height="8" fill="#4E4A4E" />
  <rect x="92" y="44" width="4" height="12" fill="#4E4A4E" />
  <rect x="96" y="44" width="4" height="16" fill="#4E4A4E" />
  <rect x="184" y="44" width="4" height="16" fill="#4E4A4E" />
  <rect x="320" y="44" width="4" height="16" fill="#4E4A4E" />
  <rect x="456" y="44" width="4" height="12" fill="#4E4A4E" />
  <rect x="516" y="44" width="12" height="32" fill="#4E4A4E" />
  <rect x="528" y="44" width="16" height="4" fill="#4E4A4E" />
  <rect x="136" y="52" width="4" height="4" fill="#4E4A4E" />
  <rect x="140" y="52" width="4" height="8" fill="#4E4A4E" />
  <rect x="144" y="52" width="4" height="12" fill="#4E4A4E" />
  <rect x="148" y="52" width="4" height="24" fill="#4E4A4E" />
  <rect x="152" y="52" width="4" height="20" fill="#4E4A4E" />
  <rect x="20" y="56" width="4" height="16" fill="#4E4A4E" />
  <rect x="156" y="56" width="4" height="8" fill="#4E4A4E" />
  <rect x="24" y="60" width="4" height="12" fill="#4E4A4E" />
  <rect x="36" y="60" width="4" height="8" fill="#4E4A4E" />
  <rect x="428" y="60" width="4" height="8" fill="#4E4A4E" />
  <rect x="444" y="60" width="4" height="8" fill="#4E4A4E" />
  <rect x="28" y="64" width="8" height="8" fill="#4E4A4E" />
  <rect x="116" y="64" width="4" height="4" fill="#4E4A4E" />
  <rect x="120" y="64" width="8" height="12" fill="#4E4A4E" />
  <rect x="128" y="64" width="4" height="16" fill="#4E4A4E" />
  <rect x="432" y="64" width="12" height="4" fill="#4E4A4E" />
  <rect x="132" y="68" width="4" height="12" fill="#4E4A4E" />
  <rect x="144" y="68" width="4" height="8" fill="#4E4A4E" />
  <rect x="528" y="68" width="4" height="8" fill="#4E4A4E" />
  <rect x="136" y="72" width="8" height="8" fill="#4E4A4E" />
  <rect x="532" y="72" width="20" height="4" fill="#4E4A4E" />
</svg>
