<svg
  version="1.1"
  width="208"
  height="196"
  xmlns="http://www.w3.org/2000/svg"
  shape-rendering="crispEdges"
>
  <rect x="0" y="0" width="4" height="196" fill="#4E4A4E" />
  <rect x="4" y="0" width="4" height="4" fill="#4E4A4E" />
  <rect x="4" y="8" width="4" height="12" fill="#4E4A4E" />
  <rect x="8" y="0" width="4" height="12" fill="#4E4A4E" />
  <rect x="12" y="0" width="8" height="8" fill="#4E4A4E" />
  <rect x="20" y="0" width="168" height="4" fill="#4E4A4E" />
  <rect x="196" y="0" width="4" height="12" fill="#4E4A4E" />
  <rect x="200" y="0" width="4" height="4" fill="#4E4A4E" />
  <rect x="204" y="0" width="4" height="196" fill="#4E4A4E" />
  <rect x="200" y="8" width="4" height="12" fill="#4E4A4E" />
  <rect x="4" y="176" width="4" height="12" fill="#4E4A4E" />
  <rect x="8" y="184" width="4" height="12" fill="#4E4A4E" />
  <rect x="196" y="184" width="4" height="12" fill="#4E4A4E" />
  <rect x="12" y="188" width="8" height="8" fill="#4E4A4E" />
  <rect x="188" y="0" width="8" height="8" fill="#4E4A4E" />
  <rect x="200" y="176" width="4" height="12" fill="#4E4A4E" />
  <rect x="188" y="188" width="8" height="8" fill="#4E4A4E" />
  <rect x="4" y="192" width="4" height="4" fill="#4E4A4E" />
  <rect x="20" y="192" width="168" height="4" fill="#4E4A4E" />
  <rect x="200" y="192" width="4" height="4" fill="#4E4A4E" />
  <rect x="4" y="4" width="4" height="4" fill="#000000" />
  <rect x="200" y="4" width="4" height="4" fill="#000000" />
  <rect x="4" y="188" width="4" height="4" fill="#000000" />
  <rect x="200" y="188" width="4" height="4" fill="#000000" />
  <rect x="13" y="8" width="3" height="8" fill="#DEEDD6" />
  <rect x="8" y="12" width="4" height="12" fill="#DEEDD6" />
  <rect x="12" y="8" width="1" height="8" fill="#DEEDD6" />
  <rect x="16" y="8" width="4" height="4" fill="#DEEDD6" />
  <rect x="196" y="12" width="4" height="12" fill="#DEEDD6" />
  <rect x="4" y="20" width="4" height="156" fill="#DEEDD6" />
  <rect x="20" y="4" width="4" height="8" fill="#DEEDD6" />
  <rect x="24" y="4" width="160" height="4" fill="#DEEDD6" />
  <rect x="188" y="8" width="4" height="4" fill="#DEEDD6" />
  <rect x="192" y="8" width="4" height="8" fill="#DEEDD6" />
  <rect x="200" y="20" width="4" height="156" fill="#DEEDD6" />
  <rect x="8" y="172" width="4" height="12" fill="#DEEDD6" />
  <rect x="12" y="180" width="4" height="8" fill="#DEEDD6" />
  <rect x="16" y="184" width="4" height="4" fill="#DEEDD6" />
  <rect x="20" y="184" width="4" height="8" fill="#DEEDD6" />
  <rect x="184" y="4" width="4" height="8" fill="#DEEDD6" />
  <rect x="196" y="172" width="4" height="12" fill="#DEEDD6" />
  <rect x="192" y="180" width="4" height="8" fill="#DEEDD6" />
  <rect x="184" y="184" width="4" height="8" fill="#DEEDD6" />
  <rect x="188" y="184" width="4" height="4" fill="#DEEDD6" />
  <rect x="24" y="188" width="160" height="4" fill="#DEEDD6" />
  <rect x="24" y="8" width="160" height="180" fill="#8594A1" />
  <rect x="12" y="16" width="4" height="164" fill="#8594A1" />
  <rect x="192" y="16" width="4" height="164" fill="#8594A1" />
  <rect x="16" y="12" width="8" height="172" fill="#8594A1" />
  <rect x="8" y="24" width="4" height="148" fill="#8594A1" />
  <rect x="184" y="12" width="8" height="172" fill="#8594A1" />
  <rect x="196" y="24" width="4" height="148" fill="#8594A1" />
</svg>
