<svg width="58" height="38" viewBox="0 0 58 38" fill="none" xmlns="http://www.w3.org/2000/svg">
<rect x="12" y="8" width="2" height="2" fill="#30346D"/>
<rect x="12" y="4" width="2" height="2" fill="#30346D"/>
<rect x="10" y="10" width="4" height="4" fill="#30346D"/>
<rect x="6" y="12" width="2" height="2" fill="#30346D"/>
<rect x="4" y="12" width="2" height="2" fill="#30346D"/>
<rect x="6" y="10" width="2" height="2" fill="#30346D"/>
<rect x="4" y="8" width="2" height="4" fill="#30346D"/>
<rect x="8" y="11" width="2" height="2" fill="#30346D"/>
<rect x="6" y="8" width="2" height="2" fill="#30346D"/>
<rect x="4" y="6" width="8" height="2" fill="#30346D"/>
<rect x="14" y="4" width="2" height="12" fill="#30346D"/>
<rect x="4" y="2" width="12" height="2" fill="#30346D"/>
<rect x="10" y="8" width="2" height="2" fill="white"/>
<rect x="8" y="8" width="2" height="3" fill="white"/>
<rect x="12" y="6" width="2" height="2" fill="white"/>
<rect x="4" y="6" width="2" height="2" fill="white"/>
<path d="M6 4H9H12V6H6V4Z" fill="white"/>
<rect x="16" y="2" width="2" height="14" fill="#140C1C"/>
<rect x="2" y="16" width="14" height="2" fill="#140C1C"/>
<rect x="2" y="2" width="2" height="12" fill="#30346D"/>
<rect x="2" y="14" width="12" height="2" fill="#30346D"/>
<rect y="2" width="2" height="14" fill="#140C1C"/>
<rect x="2" width="14" height="2" fill="#140C1C"/>
<path d="M8 12H10V14H8V12Z" fill="white"/>
<rect x="4" y="4" width="2" height="2" fill="#30346D"/>
<rect x="30" y="10" width="4" height="4" fill="#597BDC"/>
<rect x="30" y="8" width="2" height="2" fill="#597BCE"/>
<rect x="26" y="12" width="2" height="2" fill="#597BCE"/>
<rect x="24" y="12" width="2" height="2" fill="#597BCE"/>
<rect x="26" y="10" width="2" height="2" fill="#597BCE"/>
<rect x="24" y="10" width="2" height="2" fill="#597BCE"/>
<rect x="26" y="8" width="2" height="2" fill="#597BCE"/>
<rect x="32" y="6" width="2" height="2" fill="#597BCE"/>
<rect x="32" y="4" width="2" height="2" fill="#597BCE"/>
<rect x="30" y="4" width="2" height="2" fill="#597BCE"/>
<rect x="24" y="6" width="2" height="2" fill="#597BCE"/>
<rect x="26" y="4" width="2" height="2" fill="#597BCE"/>
<rect x="34" y="4" width="2" height="12" fill="#597BCE"/>
<rect x="24" y="2" width="12" height="2" fill="#597BCE"/>
<rect x="30" y="6" width="2" height="2" fill="white"/>
<rect x="24" y="8" width="2" height="2" fill="white"/>
<rect x="28" y="4" width="2" height="10" fill="white"/>
<rect x="32" y="8" width="2" height="2" fill="white"/>
<rect x="26" y="6" width="2" height="2" fill="white"/>
<rect x="36" y="2" width="2" height="14" fill="#140C1C"/>
<rect x="22" y="16" width="14" height="2" fill="#140C1C"/>
<rect x="24" y="4" width="2" height="2" fill="#597BCE"/>
<rect x="22" y="2" width="2" height="12" fill="#597BCE"/>
<rect x="22" y="14" width="12" height="2" fill="#597BCE"/>
<rect x="20" y="2" width="2" height="14" fill="#140C1C"/>
<rect x="22" width="14" height="2" fill="#140C1C"/>
<rect x="32" y="32" width="2" height="2" fill="#D04648"/>
<rect x="32" y="30" width="2" height="2" fill="#D04648"/>
<rect x="30" y="26" width="2" height="2" fill="#D04648"/>
<rect x="30" y="28" width="2" height="2" fill="#D04648"/>
<rect x="26" y="32" width="2" height="2" fill="#D04648"/>
<rect x="24" y="32" width="2" height="2" fill="#D04648"/>
<rect x="26" y="26" width="2" height="2" fill="#D04648"/>
<rect x="24" y="30" width="2" height="2" fill="#D04648"/>
<rect x="26" y="28" width="2" height="2" fill="#D04648"/>
<rect x="32" y="26" width="2" height="2" fill="#D04648"/>
<rect x="32" y="24" width="2" height="2" fill="#D04648"/>
<rect x="30" y="24" width="2" height="2" fill="#D04648"/>
<rect x="24" y="26" width="2" height="2" fill="#D04648"/>
<rect x="26" y="24" width="2" height="2" fill="#D04648"/>
<rect x="34" y="24" width="2" height="12" fill="#D04648"/>
<rect x="24" y="22" width="12" height="2" fill="#D04648"/>
<rect x="30" y="30" width="2" height="2" fill="white"/>
<rect x="24" y="28" width="2" height="2" fill="white"/>
<rect x="28" y="24" width="2" height="10" fill="white"/>
<rect x="32" y="28" width="2" height="2" fill="white"/>
<rect x="26" y="30" width="2" height="2" fill="white"/>
<rect x="36" y="22" width="2" height="14" fill="#140C1C"/>
<rect x="22" y="36" width="14" height="2" fill="#140C1C"/>
<rect x="24" y="24" width="2" height="2" fill="#D04648"/>
<rect x="22" y="22" width="2" height="12" fill="#D04648"/>
<rect x="22" y="34" width="12" height="2" fill="#D04648"/>
<rect x="20" y="22" width="2" height="14" fill="#140C1C"/>
<rect x="22" y="20" width="14" height="2" fill="#140C1C"/>
<rect x="30" y="32" width="2" height="2" fill="#597BCE"/>
<rect x="32" y="32" width="2" height="2" fill="#597BCE"/>
<rect x="32" y="30" width="2" height="2" fill="#597BCE"/>
<rect x="30" y="26" width="2" height="2" fill="#597BCE"/>
<rect x="30" y="28" width="2" height="2" fill="#597BCE"/>
<rect x="26" y="32" width="2" height="2" fill="#597BCE"/>
<rect x="24" y="32" width="2" height="2" fill="#597BCE"/>
<rect x="26" y="26" width="2" height="2" fill="#597BCE"/>
<rect x="24" y="30" width="2" height="2" fill="#597BCE"/>
<rect x="26" y="28" width="2" height="2" fill="#597BCE"/>
<rect x="32" y="26" width="2" height="2" fill="#597BCE"/>
<rect x="32" y="24" width="2" height="2" fill="#597BCE"/>
<rect x="30" y="24" width="2" height="2" fill="#597BCE"/>
<rect x="24" y="26" width="2" height="2" fill="#597BCE"/>
<rect x="26" y="24" width="2" height="2" fill="#597BCE"/>
<rect x="34" y="24" width="2" height="12" fill="#597BCE"/>
<rect x="24" y="22" width="12" height="2" fill="#597BCE"/>
<rect x="30" y="30" width="2" height="2" fill="white"/>
<rect x="24" y="28" width="2" height="2" fill="white"/>
<rect x="28" y="24" width="2" height="10" fill="white"/>
<rect x="32" y="28" width="2" height="2" fill="white"/>
<rect x="26" y="30" width="2" height="2" fill="white"/>
<rect x="36" y="22" width="2" height="14" fill="#140C1C"/>
<rect x="22" y="36" width="14" height="2" fill="#140C1C"/>
<rect x="24" y="24" width="2" height="2" fill="#597BCE"/>
<rect x="22" y="22" width="2" height="12" fill="#597BCE"/>
<rect x="22" y="34" width="12" height="2" fill="#597BCE"/>
<rect x="20" y="22" width="2" height="14" fill="#140C1C"/>
<rect x="22" y="20" width="14" height="2" fill="#140C1C"/>
<rect x="8" y="30" width="2" height="2" fill="#597BCE"/>
<rect x="8" y="26" width="2" height="2" fill="#597BCE"/>
<rect x="8" y="24" width="2" height="2" fill="white"/>
<rect x="6" y="30" width="2" height="2" fill="white"/>
<rect x="12" y="32" width="2" height="2" fill="#597BCE"/>
<rect x="10" y="26" width="2" height="2" fill="#597BCE"/>
<rect x="12" y="30" width="2" height="2" fill="#597BCE"/>
<rect x="10" y="32" width="2" height="2" fill="#597BCE"/>
<rect x="6" y="32" width="2" height="2" fill="#597BCE"/>
<rect x="4" y="32" width="2" height="2" fill="#597BCE"/>
<rect x="10" y="30" width="2" height="2" fill="#597BCE"/>
<rect x="4" y="30" width="2" height="2" fill="#597BCE"/>
<rect x="12" y="26" width="2" height="2" fill="#597BCE"/>
<rect x="12" y="24" width="2" height="2" fill="#597BCE"/>
<rect x="10" y="24" width="2" height="2" fill="#597BCE"/>
<rect x="4" y="26" width="2" height="2" fill="#597BCE"/>
<rect x="6" y="24" width="2" height="2" fill="#597BCE"/>
<rect x="14" y="24" width="2" height="12" fill="#597BCE"/>
<rect x="4" y="22" width="12" height="2" fill="#597BCE"/>
<rect x="4" y="28" width="10" height="2" fill="white"/>
<rect x="8" y="32" width="2" height="2" fill="white"/>
<rect x="6" y="26" width="2" height="2" fill="white"/>
<rect x="16" y="22" width="2" height="14" fill="#140C1C"/>
<rect x="2" y="36" width="14" height="2" fill="#140C1C"/>
<rect x="4" y="24" width="2" height="2" fill="#597BCE"/>
<rect x="2" y="22" width="2" height="12" fill="#597BCE"/>
<rect x="2" y="34" width="12" height="2" fill="#597BCE"/>
<rect y="22" width="2" height="14" fill="#140C1C"/>
<rect x="2" y="20" width="14" height="2" fill="#140C1C"/>
<rect x="48" y="30" width="2" height="2" fill="#597BCE"/>
<rect x="48" y="26" width="2" height="2" fill="#597BCE"/>
<rect x="48" y="24" width="2" height="2" fill="white"/>
<rect x="50" y="30" width="2" height="2" fill="white"/>
<rect x="52" y="32" width="2" height="2" fill="#597BCE"/>
<path d="M46 30H48V32H46V30Z" fill="#597BCE"/>
<rect x="52" y="30" width="2" height="2" fill="#597BCE"/>
<rect x="50" y="32" width="2" height="2" fill="#597BCE"/>
<rect x="46" y="32" width="2" height="2" fill="#597BCE"/>
<rect x="44" y="32" width="2" height="2" fill="#597BCE"/>
<rect x="46" y="26" width="2" height="2" fill="#597BCE"/>
<rect x="44" y="30" width="2" height="2" fill="#597BCE"/>
<rect x="52" y="26" width="2" height="2" fill="#597BCE"/>
<rect x="52" y="24" width="2" height="2" fill="#597BCE"/>
<rect x="50" y="24" width="2" height="2" fill="#597BCE"/>
<rect x="44" y="26" width="2" height="2" fill="#597BCE"/>
<rect x="46" y="24" width="2" height="2" fill="#597BCE"/>
<rect x="54" y="24" width="2" height="12" fill="#597BCE"/>
<rect x="44" y="22" width="12" height="2" fill="#597BCE"/>
<rect x="44" y="28" width="10" height="2" fill="white"/>
<rect x="48" y="32" width="2" height="2" fill="white"/>
<rect x="50" y="26" width="2" height="2" fill="white"/>
<rect x="56" y="22" width="2" height="14" fill="#140C1C"/>
<rect x="42" y="36" width="14" height="2" fill="#140C1C"/>
<rect x="44" y="24" width="2" height="2" fill="#597BCE"/>
<rect x="42" y="22" width="2" height="12" fill="#597BCE"/>
<rect x="42" y="34" width="12" height="2" fill="#597BCE"/>
<rect x="40" y="22" width="2" height="14" fill="#140C1C"/>
<rect x="42" y="20" width="14" height="2" fill="#140C1C"/>
</svg>
