<svg
  version="1.1"
  width="68"
  height="64"
  xmlns="http://www.w3.org/2000/svg"
  shape-rendering="crispEdges"
>
  <rect x="24" y="0" width="20" height="4" fill="#4E4A4E" />
  <rect x="16" y="4" width="4" height="4" fill="#4E4A4E" />
  <rect x="44" y="4" width="8" height="4" fill="#4E4A4E" />
  <rect x="8" y="12" width="4" height="8" fill="#4E4A4E" />
  <rect x="12" y="8" width="4" height="4" fill="#4E4A4E" />
  <rect x="52" y="8" width="4" height="4" fill="#4E4A4E" />
  <rect x="56" y="12" width="4" height="8" fill="#4E4A4E" />
  <rect x="4" y="20" width="4" height="20" fill="#4E4A4E" />
  <rect x="20" y="4" width="4" height="4" fill="#4E4A4E" />
  <rect x="28" y="16" width="12" height="4" fill="#4E4A4E" />
  <rect x="60" y="20" width="4" height="32" fill="#4E4A4E" />
  <rect x="20" y="24" width="4" height="12" fill="#4E4A4E" />
  <rect x="24" y="20" width="4" height="4" fill="#4E4A4E" />
  <rect x="44" y="24" width="4" height="12" fill="#4E4A4E" />
  <rect x="24" y="36" width="4" height="4" fill="#4E4A4E" />
  <rect x="8" y="40" width="4" height="8" fill="#4E4A4E" />
  <rect x="28" y="40" width="12" height="4" fill="#4E4A4E" />
  <rect x="40" y="20" width="4" height="4" fill="#4E4A4E" />
  <rect x="64" y="24" width="4" height="20" fill="#4E4A4E" />
  <rect x="40" y="36" width="4" height="4" fill="#4E4A4E" />
  <rect x="56" y="40" width="4" height="16" fill="#4E4A4E" />
  <rect x="12" y="48" width="4" height="4" fill="#4E4A4E" />
  <rect x="16" y="52" width="8" height="4" fill="#4E4A4E" />
  <rect x="44" y="52" width="4" height="12" fill="#4E4A4E" />
  <rect x="48" y="52" width="4" height="8" fill="#4E4A4E" />
  <rect x="52" y="48" width="4" height="12" fill="#4E4A4E" />
  <rect x="24" y="56" width="4" height="4" fill="#4E4A4E" />
  <rect x="28" y="56" width="16" height="8" fill="#4E4A4E" />
  <rect x="24" y="4" width="4" height="16" fill="#757161" />
  <rect x="28" y="4" width="12" height="12" fill="#757161" />
  <rect x="40" y="4" width="4" height="16" fill="#757161" />
  <rect x="16" y="8" width="4" height="44" fill="#757161" />
  <rect x="20" y="8" width="4" height="16" fill="#757161" />
  <rect x="44" y="8" width="4" height="16" fill="#757161" />
  <rect x="48" y="8" width="4" height="44" fill="#757161" />
  <rect x="12" y="12" width="4" height="36" fill="#757161" />
  <rect x="52" y="12" width="4" height="36" fill="#757161" />
  <rect x="8" y="20" width="4" height="20" fill="#757161" />
  <rect x="28" y="20" width="12" height="20" fill="#757161" />
  <rect x="56" y="20" width="4" height="20" fill="#757161" />
  <rect x="24" y="24" width="4" height="12" fill="#757161" />
  <rect x="20" y="36" width="4" height="16" fill="#757161" />
  <rect x="44" y="36" width="4" height="16" fill="#757161" />
  <rect x="40" y="24" width="4" height="12" fill="#757161" />
  <rect x="40" y="40" width="4" height="16" fill="#757161" />
  <rect x="24" y="40" width="4" height="16" fill="#757161" />
  <rect x="28" y="44" width="12" height="12" fill="#757161" />
</svg>
