<svg
  version="1.1"
  width="116"
  height="34"
  xmlns="http://www.w3.org/2000/svg"
  shape-rendering="crispEdges"
  fill="#000000"
>
  <rect x="2" y="2" width="2" height="12" />
  <rect x="0" y="4" width="2" height="10" />
  <rect x="4" y="0" width="2" height="4" />
  <rect x="6" y="0" width="2" height="2" />
  <rect x="16" y="4" width="4" height="10" />
  <rect x="32" y="4" width="2" height="10" />
  <rect x="34" y="4" width="6" height="2" />
  <rect x="40" y="4" width="2" height="6" />
  <rect x="4" y="8" width="4" height="2" />
  <rect x="8" y="0" width="2" height="4" />
  <rect x="10" y="2" width="2" height="12" />
  <rect x="12" y="4" width="2" height="10" />
  <rect x="22" y="4" width="6" height="2" />
  <rect x="56" y="4" width="2" height="6" />
  <rect x="58" y="4" width="2" height="8" />
  <rect x="66" y="4" width="2" height="12" />
  <rect x="68" y="4" width="2" height="10" />
  <rect x="74" y="4" width="2" height="10" />
  <rect x="76" y="4" width="6" height="2" />
  <rect x="82" y="4" width="2" height="10" />
  <rect x="88" y="4" width="2" height="8" />
  <rect x="90" y="4" width="2" height="10" />
  <rect x="98" y="4" width="4" height="10" />
  <rect x="20" y="6" width="2" height="2" />
  <rect x="30" y="6" width="2" height="6" />
  <rect x="42" y="6" width="2" height="4" />
  <rect x="72" y="6" width="2" height="6" />
  <rect x="84" y="6" width="2" height="6" />
  <rect x="8" y="8" width="2" height="2" />
  <rect x="34" y="8" width="6" height="2" />
  <rect x="60" y="10" width="6" height="2" />
  <rect x="34" y="12" width="8" height="2" />
  <rect x="76" y="12" width="6" height="2" />
  <rect x="92" y="12" width="6" height="2" />
  <rect x="58" y="14" width="8" height="2" />
  <rect x="58" y="20" width="2" height="12" />
  <rect x="60" y="20" width="2" height="14" />
  <rect x="106" y="20" width="2" height="6" />
  <rect x="108" y="20" width="4" height="4" />
  <rect x="112" y="20" width="2" height="8" />
  <rect x="94" y="21" width="4" height="13" />
  <rect x="104" y="22" width="2" height="4" />
  <rect x="114" y="22" width="2" height="4" />
  <rect x="2" y="24" width="10" height="2" />
  <rect x="12" y="24" width="2" height="10" />
  <rect x="34" y="24" width="6" height="2" />
  <rect x="44" y="24" width="2" height="10" />
  <rect x="46" y="24" width="6" height="2" />
  <rect x="52" y="24" width="2" height="10" />
  <rect x="62" y="24" width="6" height="2" />
  <rect x="68" y="24" width="2" height="10" />
  <rect x="76" y="24" width="2" height="10" />
  <rect x="78" y="24" width="6" height="2" />
  <rect x="84" y="24" width="2" height="10" />
  <rect x="90" y="24" width="4" height="2" />
  <rect x="98" y="24" width="4" height="2" />
  <rect x="14" y="26" width="2" height="8" />
  <rect x="32" y="26" width="2" height="2" />
  <rect x="70" y="26" width="2" height="6" />
  <rect x="74" y="26" width="2" height="6" />
  <rect x="86" y="26" width="2" height="6" />
  <rect x="110" y="26" width="2" height="4" />
  <rect x="2" y="28" width="2" height="6" />
  <rect x="4" y="28" width="6" height="2" />
  <rect x="10" y="28" width="2" height="6" />
  <rect x="28" y="24" width="4" height="10" />
  <rect x="42" y="26" width="2" height="6" />
  <rect x="54" y="26" width="2" height="6" />
  <rect x="108" y="28" width="2" height="2" />
  <rect x="0" y="30" width="2" height="2" />
  <rect x="4" y="32" width="6" height="2" />
  <rect x="46" y="32" width="6" height="2" />
  <rect x="62" y="32" width="6" height="2" />
  <rect x="78" y="32" width="6" height="2" />
  <rect x="108" y="32" width="4" height="2" />
</svg>
