<svg
  version="1.1"
  width="96"
  height="56"
  xmlns="http://www.w3.org/2000/svg"
  shape-rendering="crispEdges"
>
  <rect x="0" y="4" width="4" height="4" fill="#FFFFFF" />
  <rect x="4" y="0" width="4" height="4" fill="#FFFFFF" />
  <rect x="24" y="0" width="4" height="4" fill="#FFFFFF" />
  <rect x="48" y="0" width="4" height="4" fill="#FFFFFF" />
  <rect x="84" y="0" width="4" height="4" fill="#FFFFFF" />
  <rect x="80" y="4" width="4" height="4" fill="#FFFFFF" />
  <rect x="4" y="32" width="4" height="4" fill="#FFFFFF" />
  <rect x="32" y="32" width="4" height="4" fill="#FFFFFF" />
  <rect x="52" y="32" width="4" height="4" fill="#FFFFFF" />
  <rect x="80" y="32" width="4" height="4" fill="#FFFFFF" />
  <rect x="28" y="36" width="4" height="4" fill="#FFFFFF" />
  <rect x="76" y="36" width="4" height="4" fill="#FFFFFF" />
  <rect x="0" y="8" width="4" height="8" fill="#DAD45E" />
  <rect x="8" y="0" width="8" height="4" fill="#DAD45E" />
  <rect x="28" y="0" width="4" height="16" fill="#DAD45E" />
  <rect x="52" y="0" width="4" height="16" fill="#DAD45E" />
  <rect x="68" y="0" width="4" height="4" fill="#DAD45E" />
  <rect x="4" y="4" width="4" height="12" fill="#DAD45E" />
  <rect x="24" y="4" width="4" height="12" fill="#DAD45E" />
  <rect x="64" y="4" width="4" height="8" fill="#DAD45E" />
  <rect x="84" y="4" width="4" height="12" fill="#DAD45E" />
  <rect x="80" y="8" width="4" height="8" fill="#DAD45E" />
  <rect x="33" y="12" width="3" height="4" fill="#DAD45E" />
  <rect x="8" y="32" width="4" height="16" fill="#DAD45E" />
  <rect x="16" y="32" width="4" height="4" fill="#DAD45E" />
  <rect x="4" y="36" width="4" height="12" fill="#DAD45E" />
  <rect x="48" y="4" width="4" height="12" fill="#DAD45E" />
  <rect x="56" y="4" width="4" height="8" fill="#DAD45E" />
  <rect x="32" y="0" width="4" height="4" fill="#DAD45E" />
  <rect x="60" y="8" width="4" height="8" fill="#DAD45E" />
  <rect x="32" y="12" width="1" height="4" fill="#DAD45E" />
  <rect x="32" y="36" width="4" height="12" fill="#DAD45E" />
  <rect x="36" y="0" width="4" height="8" fill="#DAD45E" />
  <rect x="88" y="0" width="8" height="4" fill="#DAD45E" />
  <rect x="88" y="8" width="4" height="4" fill="#DAD45E" />
  <rect x="36" y="32" width="8" height="4" fill="#DAD45E" />
  <rect x="56" y="32" width="4" height="16" fill="#DAD45E" />
  <rect x="60" y="32" width="8" height="4" fill="#DAD45E" />
  <rect x="84" y="32" width="8" height="4" fill="#DAD45E" />
  <rect x="52" y="36" width="4" height="12" fill="#DAD45E" />
  <rect x="36" y="40" width="4" height="4" fill="#DAD45E" />
  <rect x="80" y="36" width="4" height="12" fill="#DAD45E" />
  <rect x="12" y="40" width="4" height="4" fill="#DAD45E" />
  <rect x="28" y="40" width="4" height="8" fill="#DAD45E" />
  <rect x="60" y="40" width="4" height="4" fill="#DAD45E" />
  <rect x="76" y="40" width="4" height="8" fill="#DAD45E" />
  <rect x="84" y="40" width="4" height="4" fill="#DAD45E" />
  <rect x="8" y="4" width="8" height="4" fill="#4E4A4E" />
  <rect x="32" y="4" width="4" height="4" fill="#4E4A4E" />
  <rect x="88" y="4" width="8" height="4" fill="#4E4A4E" />
  <rect x="56" y="12" width="4" height="4" fill="#4E4A4E" />
  <rect x="64" y="12" width="4" height="4" fill="#4E4A4E" />
  <rect x="88" y="12" width="4" height="4" fill="#4E4A4E" />
  <rect x="0" y="16" width="4" height="4" fill="#4E4A4E" />
  <rect x="60" y="16" width="4" height="4" fill="#4E4A4E" />
  <rect x="80" y="16" width="4" height="4" fill="#4E4A4E" />
  <rect x="4" y="20" width="12" height="4" fill="#4E4A4E" />
  <rect x="24" y="20" width="16" height="4" fill="#4E4A4E" />
  <rect x="48" y="20" width="8" height="4" fill="#4E4A4E" />
  <rect x="68" y="20" width="4" height="4" fill="#4E4A4E" />
  <rect x="84" y="20" width="12" height="4" fill="#4E4A4E" />
  <rect x="36" y="36" width="8" height="4" fill="#4E4A4E" />
  <rect x="60" y="36" width="4" height="4" fill="#4E4A4E" />
  <rect x="84" y="36" width="8" height="4" fill="#4E4A4E" />
  <rect x="64" y="40" width="4" height="4" fill="#4E4A4E" />
  <rect x="12" y="44" width="4" height="4" fill="#4E4A4E" />
  <rect x="36" y="44" width="4" height="4" fill="#4E4A4E" />
  <rect x="60" y="44" width="4" height="8" fill="#4E4A4E" />
  <rect x="84" y="44" width="4" height="4" fill="#4E4A4E" />
  <rect x="28" y="48" width="4" height="4" fill="#4E4A4E" />
  <rect x="76" y="48" width="4" height="4" fill="#4E4A4E" />
  <rect x="4" y="52" width="8" height="4" fill="#4E4A4E" />
  <rect x="16" y="52" width="4" height="4" fill="#4E4A4E" />
  <rect x="32" y="52" width="12" height="4" fill="#4E4A4E" />
  <rect x="52" y="52" width="8" height="4" fill="#4E4A4E" />
  <rect x="64" y="52" width="4" height="4" fill="#4E4A4E" />
  <rect x="80" y="52" width="12" height="4" fill="#4E4A4E" />
  <rect x="68" y="4" width="4" height="16" fill="#D27D2B" />
  <rect x="4" y="16" width="12" height="4" fill="#D27D2B" />
  <rect x="24" y="16" width="12" height="4" fill="#D27D2B" />
  <rect x="48" y="16" width="8" height="4" fill="#D27D2B" />
  <rect x="84" y="16" width="12" height="4" fill="#D27D2B" />
  <rect x="16" y="36" width="4" height="16" fill="#D27D2B" />
  <rect x="36" y="8" width="4" height="12" fill="#D27D2B" />
  <rect x="64" y="36" width="4" height="4" fill="#D27D2B" />
  <rect x="64" y="44" width="4" height="8" fill="#D27D2B" />
  <rect x="4" y="48" width="8" height="4" fill="#D27D2B" />
  <rect x="32" y="48" width="12" height="4" fill="#D27D2B" />
  <rect x="80" y="48" width="12" height="4" fill="#D27D2B" />
  <rect x="52" y="48" width="8" height="4" fill="#D27D2B" />
</svg>
