<svg
  version="1.1"
  width="64"
  height="32"
  xmlns="http://www.w3.org/2000/svg"
  shape-rendering="crispEdges"
>
  <rect x="0" y="4" width="4" height="20" fill="#D04648" />
  <rect x="4" y="0" width="4" height="28" fill="#D04648" />
  <rect x="8" y="0" width="12" height="4" fill="#D04648" />
  <rect x="20" y="0" width="4" height="28" fill="#D04648" />
  <rect x="32" y="0" width="8" height="28" fill="#D04648" />
  <rect x="52" y="0" width="4" height="8" fill="#D04648" />
  <rect x="56" y="0" width="4" height="4" fill="#D04648" />
  <rect x="48" y="4" width="4" height="8" fill="#D04648" />
  <rect x="44" y="8" width="4" height="12" fill="#D04648" />
  <rect x="40" y="12" width="4" height="8" fill="#D04648" />
  <rect x="48" y="16" width="4" height="8" fill="#D04648" />
  <rect x="8" y="24" width="12" height="4" fill="#D04648" />
  <rect x="24" y="4" width="4" height="20" fill="#D04648" />
  <rect x="52" y="20" width="4" height="8" fill="#D04648" />
  <rect x="56" y="24" width="4" height="4" fill="#D04648" />
  <rect x="8" y="4" width="4" height="20" fill="#000000" />
  <rect x="40" y="4" width="4" height="8" fill="#000000" />
  <rect x="56" y="4" width="4" height="8" fill="#000000" />
  <rect x="60" y="4" width="4" height="4" fill="#000000" />
  <rect x="52" y="8" width="4" height="8" fill="#000000" />
  <rect x="48" y="12" width="4" height="4" fill="#000000" />
  <rect x="12" y="4" width="8" height="4" fill="#000000" />
  <rect x="28" y="8" width="4" height="20" fill="#000000" />
  <rect x="40" y="20" width="4" height="12" fill="#000000" />
  <rect x="44" y="20" width="4" height="4" fill="#000000" />
  <rect x="24" y="24" width="4" height="8" fill="#000000" />
  <rect x="8" y="28" width="16" height="4" fill="#000000" />
  <rect x="36" y="28" width="4" height="4" fill="#000000" />
  <rect x="56" y="28" width="8" height="4" fill="#000000" />
</svg>
