<svg xmlns="http://www.w3.org/2000/svg" viewBox="0 0 130 22" fill="#FFF">
  <style>
    @keyframes bounce {
      0%, 30%{ transform: translateY(0); }
      15% { transform: translateY(-6px); }
    }
    .letter {
      animation: bounce 1s linear infinite;
    }
    .letter:nth-child(2) { animation-delay: 0.1s; }
    .letter:nth-child(3) { animation-delay: 0.2s; }
    .letter:nth-child(4) { animation-delay: 0.3s; }
    .letter:nth-child(5) { animation-delay: 0.4s; }
    .letter:nth-child(6) { animation-delay: 0.5s; }
    .letter:nth-child(7) { animation-delay: 0.6s; }
    .letter:nth-child(8) { animation-delay: 0.7s; }
    .letter:nth-child(9) { animation-delay: 0.8s; }
    .letter:nth-child(10) { animation-delay: 0.9s; }
  </style>
  <g class="letter">
    <rect x="2" y="6" width="6" height="2" />
    <rect x="4" y="8" width="4" height="10"/>
    <rect x="0" y="18" width="12" height="2"/>
  </g>
  <g class="letter">
    <rect x="16" y="10" width="10" height="2" />
    <rect x="14" y="12" width="4" height="6" />
    <rect x="24" y="12" width="4" height="6" />
    <rect x="16" y="18" width="10" height="2" />
  </g>
  <g class="letter">
    <rect x="32" y="10" width="12" height="2" />
    <rect x="42" y="12" width="4" height="2" />
    <rect x="32" y="14" width="14" height="2" />
    <rect x="30" y="16" width="4" height="1" />
    <rect x="40" y="16" width="6" height="1" />
    <rect x="30" y="17" width="4" height="1" />
    <rect x="40" y="17" width="6" height="1" />
    <rect x="32" y="18" width="14" height="2" />
  </g>
  <g class="letter">
    <rect x="58" y="6" width="4" height="4" />
    <rect x="50" y="10" width="12" height="2" />
    <rect x="48" y="12" width="4" height="6" />
    <rect x="58" y="12" width="4" height="6" />
    <rect x="50" y="18" width="12" height="2" />
  </g>
  <g class="letter">
    <rect x="68" y="7" width="4" height="2" />
    <rect x="66" y="10" width="6" height="2" />
    <rect x="68" y="12" width="4" height="6" />
    <rect x="64" y="18" width="12" height="2" />
  </g>
  <g class="letter">
    <rect x="78" y="10" width="12" height="2" />
    <rect x="78" y="12" width="1" height="1" />
    <rect x="79" y="12" width="3" height="1" />
    <rect x="88" y="12" width="4" height="1" />
    <rect x="78" y="13" width="4" height="7" />
    <rect x="88" y="13" width="4" height="7" />
  </g>
  <g class="letter">
    <rect x="96" y="10" width="12" height="2" />
    <rect x="94" y="12" width="4" height="4" />
    <rect x="104" y="12" width="4" height="4" />
    <rect x="96" y="16" width="12" height="2" />
    <rect x="104" y="18" width="4" height="2" />
    <rect x="96" y="20" width="10" height="2" />
  </g>
  <g class="letter">
    <rect x="110" y="16" width="4" height="4" />
  </g>
  <g class="letter">
    <rect x="118" y="16" width="4" height="4" />
  </g>
  <g class="letter">
    <rect x="126" y="16" width="4" height="4" />
  </g>
</svg>
