<?xml version="1.0" encoding="UTF-8" ?>
<svg version="1.1" width="130" height="16" xmlns="http://www.w3.org/2000/svg" shape-rendering="crispEdges">
<rect x="2" y="0" width="1" height="1" fill="#000000" />
<rect x="3" y="0" width="1" height="1" fill="#000000" />
<rect x="4" y="0" width="1" height="1" fill="#000000" />
<rect x="5" y="0" width="1" height="1" fill="#000000" />
<rect x="6" y="0" width="1" height="1" fill="#000000" />
<rect x="7" y="0" width="1" height="1" fill="#000000" />
<rect x="58" y="0" width="1" height="1" fill="#000000" />
<rect x="59" y="0" width="1" height="1" fill="#000000" />
<rect x="60" y="0" width="1" height="1" fill="#000000" />
<rect x="61" y="0" width="1" height="1" fill="#000000" />
<rect x="68" y="0" width="1" height="1" fill="#000000" />
<rect x="69" y="0" width="1" height="1" fill="#000000" />
<rect x="70" y="0" width="1" height="1" fill="#000000" />
<rect x="71" y="0" width="1" height="1" fill="#000000" />
<rect x="2" y="1" width="1" height="1" fill="#000000" />
<rect x="3" y="1" width="1" height="1" fill="#000000" />
<rect x="4" y="1" width="1" height="1" fill="#000000" />
<rect x="5" y="1" width="1" height="1" fill="#000000" />
<rect x="6" y="1" width="1" height="1" fill="#000000" />
<rect x="7" y="1" width="1" height="1" fill="#000000" />
<rect x="58" y="1" width="1" height="1" fill="#000000" />
<rect x="59" y="1" width="1" height="1" fill="#000000" />
<rect x="60" y="1" width="1" height="1" fill="#000000" />
<rect x="61" y="1" width="1" height="1" fill="#000000" />
<rect x="68" y="1" width="1" height="1" fill="#000000" />
<rect x="69" y="1" width="1" height="1" fill="#000000" />
<rect x="70" y="1" width="1" height="1" fill="#000000" />
<rect x="71" y="1" width="1" height="1" fill="#000000" />
<rect x="4" y="2" width="1" height="1" fill="#000000" />
<rect x="5" y="2" width="1" height="1" fill="#000000" />
<rect x="6" y="2" width="1" height="1" fill="#000000" />
<rect x="7" y="2" width="1" height="1" fill="#000000" />
<rect x="58" y="2" width="1" height="1" fill="#000000" />
<rect x="59" y="2" width="1" height="1" fill="#000000" />
<rect x="60" y="2" width="1" height="1" fill="#000000" />
<rect x="61" y="2" width="1" height="1" fill="#000000" />
<rect x="4" y="3" width="1" height="1" fill="#000000" />
<rect x="5" y="3" width="1" height="1" fill="#000000" />
<rect x="6" y="3" width="1" height="1" fill="#000000" />
<rect x="7" y="3" width="1" height="1" fill="#000000" />
<rect x="58" y="3" width="1" height="1" fill="#000000" />
<rect x="59" y="3" width="1" height="1" fill="#000000" />
<rect x="60" y="3" width="1" height="1" fill="#000000" />
<rect x="61" y="3" width="1" height="1" fill="#000000" />
<rect x="4" y="4" width="1" height="1" fill="#000000" />
<rect x="5" y="4" width="1" height="1" fill="#000000" />
<rect x="6" y="4" width="1" height="1" fill="#000000" />
<rect x="7" y="4" width="1" height="1" fill="#000000" />
<rect x="16" y="4" width="1" height="1" fill="#000000" />
<rect x="17" y="4" width="1" height="1" fill="#000000" />
<rect x="18" y="4" width="1" height="1" fill="#000000" />
<rect x="19" y="4" width="1" height="1" fill="#000000" />
<rect x="20" y="4" width="1" height="1" fill="#000000" />
<rect x="21" y="4" width="1" height="1" fill="#000000" />
<rect x="22" y="4" width="1" height="1" fill="#000000" />
<rect x="23" y="4" width="1" height="1" fill="#000000" />
<rect x="24" y="4" width="1" height="1" fill="#000000" />
<rect x="25" y="4" width="1" height="1" fill="#000000" />
<rect x="32" y="4" width="1" height="1" fill="#000000" />
<rect x="33" y="4" width="1" height="1" fill="#000000" />
<rect x="34" y="4" width="1" height="1" fill="#000000" />
<rect x="35" y="4" width="1" height="1" fill="#000000" />
<rect x="36" y="4" width="1" height="1" fill="#000000" />
<rect x="37" y="4" width="1" height="1" fill="#000000" />
<rect x="38" y="4" width="1" height="1" fill="#000000" />
<rect x="39" y="4" width="1" height="1" fill="#000000" />
<rect x="40" y="4" width="1" height="1" fill="#000000" />
<rect x="41" y="4" width="1" height="1" fill="#000000" />
<rect x="42" y="4" width="1" height="1" fill="#000000" />
<rect x="43" y="4" width="1" height="1" fill="#000000" />
<rect x="50" y="4" width="1" height="1" fill="#000000" />
<rect x="51" y="4" width="1" height="1" fill="#000000" />
<rect x="52" y="4" width="1" height="1" fill="#000000" />
<rect x="53" y="4" width="1" height="1" fill="#000000" />
<rect x="54" y="4" width="1" height="1" fill="#000000" />
<rect x="55" y="4" width="1" height="1" fill="#000000" />
<rect x="56" y="4" width="1" height="1" fill="#000000" />
<rect x="57" y="4" width="1" height="1" fill="#000000" />
<rect x="58" y="4" width="1" height="1" fill="#000000" />
<rect x="59" y="4" width="1" height="1" fill="#000000" />
<rect x="60" y="4" width="1" height="1" fill="#000000" />
<rect x="61" y="4" width="1" height="1" fill="#000000" />
<rect x="66" y="4" width="1" height="1" fill="#000000" />
<rect x="67" y="4" width="1" height="1" fill="#000000" />
<rect x="68" y="4" width="1" height="1" fill="#000000" />
<rect x="69" y="4" width="1" height="1" fill="#000000" />
<rect x="70" y="4" width="1" height="1" fill="#000000" />
<rect x="71" y="4" width="1" height="1" fill="#000000" />
<rect x="78" y="4" width="1" height="1" fill="#000000" />
<rect x="79" y="4" width="1" height="1" fill="#000000" />
<rect x="80" y="4" width="1" height="1" fill="#000000" />
<rect x="81" y="4" width="1" height="1" fill="#000000" />
<rect x="82" y="4" width="1" height="1" fill="#000000" />
<rect x="83" y="4" width="1" height="1" fill="#000000" />
<rect x="84" y="4" width="1" height="1" fill="#000000" />
<rect x="85" y="4" width="1" height="1" fill="#000000" />
<rect x="86" y="4" width="1" height="1" fill="#000000" />
<rect x="87" y="4" width="1" height="1" fill="#000000" />
<rect x="88" y="4" width="1" height="1" fill="#000000" />
<rect x="89" y="4" width="1" height="1" fill="#000000" />
<rect x="96" y="4" width="1" height="1" fill="#000000" />
<rect x="97" y="4" width="1" height="1" fill="#000000" />
<rect x="98" y="4" width="1" height="1" fill="#000000" />
<rect x="99" y="4" width="1" height="1" fill="#000000" />
<rect x="100" y="4" width="1" height="1" fill="#000000" />
<rect x="101" y="4" width="1" height="1" fill="#000000" />
<rect x="102" y="4" width="1" height="1" fill="#000000" />
<rect x="103" y="4" width="1" height="1" fill="#000000" />
<rect x="104" y="4" width="1" height="1" fill="#000000" />
<rect x="105" y="4" width="1" height="1" fill="#000000" />
<rect x="106" y="4" width="1" height="1" fill="#000000" />
<rect x="107" y="4" width="1" height="1" fill="#000000" />
<rect x="4" y="5" width="1" height="1" fill="#000000" />
<rect x="5" y="5" width="1" height="1" fill="#000000" />
<rect x="6" y="5" width="1" height="1" fill="#000000" />
<rect x="7" y="5" width="1" height="1" fill="#000000" />
<rect x="16" y="5" width="1" height="1" fill="#000000" />
<rect x="17" y="5" width="1" height="1" fill="#000000" />
<rect x="18" y="5" width="1" height="1" fill="#000000" />
<rect x="19" y="5" width="1" height="1" fill="#000000" />
<rect x="20" y="5" width="1" height="1" fill="#000000" />
<rect x="21" y="5" width="1" height="1" fill="#000000" />
<rect x="22" y="5" width="1" height="1" fill="#000000" />
<rect x="23" y="5" width="1" height="1" fill="#000000" />
<rect x="24" y="5" width="1" height="1" fill="#000000" />
<rect x="25" y="5" width="1" height="1" fill="#000000" />
<rect x="32" y="5" width="1" height="1" fill="#000000" />
<rect x="33" y="5" width="1" height="1" fill="#000000" />
<rect x="34" y="5" width="1" height="1" fill="#000000" />
<rect x="35" y="5" width="1" height="1" fill="#000000" />
<rect x="36" y="5" width="1" height="1" fill="#000000" />
<rect x="37" y="5" width="1" height="1" fill="#000000" />
<rect x="38" y="5" width="1" height="1" fill="#000000" />
<rect x="39" y="5" width="1" height="1" fill="#000000" />
<rect x="40" y="5" width="1" height="1" fill="#000000" />
<rect x="41" y="5" width="1" height="1" fill="#000000" />
<rect x="42" y="5" width="1" height="1" fill="#000000" />
<rect x="43" y="5" width="1" height="1" fill="#000000" />
<rect x="50" y="5" width="1" height="1" fill="#000000" />
<rect x="51" y="5" width="1" height="1" fill="#000000" />
<rect x="52" y="5" width="1" height="1" fill="#000000" />
<rect x="53" y="5" width="1" height="1" fill="#000000" />
<rect x="54" y="5" width="1" height="1" fill="#000000" />
<rect x="55" y="5" width="1" height="1" fill="#000000" />
<rect x="56" y="5" width="1" height="1" fill="#000000" />
<rect x="57" y="5" width="1" height="1" fill="#000000" />
<rect x="58" y="5" width="1" height="1" fill="#000000" />
<rect x="59" y="5" width="1" height="1" fill="#000000" />
<rect x="60" y="5" width="1" height="1" fill="#000000" />
<rect x="61" y="5" width="1" height="1" fill="#000000" />
<rect x="66" y="5" width="1" height="1" fill="#000000" />
<rect x="67" y="5" width="1" height="1" fill="#000000" />
<rect x="68" y="5" width="1" height="1" fill="#000000" />
<rect x="69" y="5" width="1" height="1" fill="#000000" />
<rect x="70" y="5" width="1" height="1" fill="#000000" />
<rect x="71" y="5" width="1" height="1" fill="#000000" />
<rect x="78" y="5" width="1" height="1" fill="#000000" />
<rect x="79" y="5" width="1" height="1" fill="#000000" />
<rect x="80" y="5" width="1" height="1" fill="#000000" />
<rect x="81" y="5" width="1" height="1" fill="#000000" />
<rect x="82" y="5" width="1" height="1" fill="#000000" />
<rect x="83" y="5" width="1" height="1" fill="#000000" />
<rect x="84" y="5" width="1" height="1" fill="#000000" />
<rect x="85" y="5" width="1" height="1" fill="#000000" />
<rect x="86" y="5" width="1" height="1" fill="#000000" />
<rect x="87" y="5" width="1" height="1" fill="#000000" />
<rect x="88" y="5" width="1" height="1" fill="#000000" />
<rect x="89" y="5" width="1" height="1" fill="#000000" />
<rect x="96" y="5" width="1" height="1" fill="#000000" />
<rect x="97" y="5" width="1" height="1" fill="#000000" />
<rect x="98" y="5" width="1" height="1" fill="#000000" />
<rect x="99" y="5" width="1" height="1" fill="#000000" />
<rect x="100" y="5" width="1" height="1" fill="#000000" />
<rect x="101" y="5" width="1" height="1" fill="#000000" />
<rect x="102" y="5" width="1" height="1" fill="#000000" />
<rect x="103" y="5" width="1" height="1" fill="#000000" />
<rect x="104" y="5" width="1" height="1" fill="#000000" />
<rect x="105" y="5" width="1" height="1" fill="#000000" />
<rect x="106" y="5" width="1" height="1" fill="#000000" />
<rect x="107" y="5" width="1" height="1" fill="#000000" />
<rect x="4" y="6" width="1" height="1" fill="#000000" />
<rect x="5" y="6" width="1" height="1" fill="#000000" />
<rect x="6" y="6" width="1" height="1" fill="#000000" />
<rect x="7" y="6" width="1" height="1" fill="#000000" />
<rect x="14" y="6" width="1" height="1" fill="#000000" />
<rect x="15" y="6" width="1" height="1" fill="#000000" />
<rect x="16" y="6" width="1" height="1" fill="#000000" />
<rect x="17" y="6" width="1" height="1" fill="#000000" />
<rect x="24" y="6" width="1" height="1" fill="#000000" />
<rect x="25" y="6" width="1" height="1" fill="#000000" />
<rect x="26" y="6" width="1" height="1" fill="#000000" />
<rect x="27" y="6" width="1" height="1" fill="#000000" />
<rect x="42" y="6" width="1" height="1" fill="#000000" />
<rect x="43" y="6" width="1" height="1" fill="#000000" />
<rect x="44" y="6" width="1" height="1" fill="#000000" />
<rect x="45" y="6" width="1" height="1" fill="#000000" />
<rect x="48" y="6" width="1" height="1" fill="#000000" />
<rect x="49" y="6" width="1" height="1" fill="#000000" />
<rect x="50" y="6" width="1" height="1" fill="#000000" />
<rect x="51" y="6" width="1" height="1" fill="#000000" />
<rect x="58" y="6" width="1" height="1" fill="#000000" />
<rect x="59" y="6" width="1" height="1" fill="#000000" />
<rect x="60" y="6" width="1" height="1" fill="#000000" />
<rect x="61" y="6" width="1" height="1" fill="#000000" />
<rect x="68" y="6" width="1" height="1" fill="#000000" />
<rect x="69" y="6" width="1" height="1" fill="#000000" />
<rect x="70" y="6" width="1" height="1" fill="#000000" />
<rect x="71" y="6" width="1" height="1" fill="#000000" />
<rect x="78" y="6" width="1" height="1" fill="#000000" />
<rect x="79" y="6" width="1" height="1" fill="#000000" />
<rect x="80" y="6" width="1" height="1" fill="#000000" />
<rect x="81" y="6" width="1" height="1" fill="#000000" />
<rect x="88" y="6" width="1" height="1" fill="#000000" />
<rect x="89" y="6" width="1" height="1" fill="#000000" />
<rect x="90" y="6" width="1" height="1" fill="#000000" />
<rect x="91" y="6" width="1" height="1" fill="#000000" />
<rect x="94" y="6" width="1" height="1" fill="#000000" />
<rect x="95" y="6" width="1" height="1" fill="#000000" />
<rect x="96" y="6" width="1" height="1" fill="#000000" />
<rect x="97" y="6" width="1" height="1" fill="#000000" />
<rect x="104" y="6" width="1" height="1" fill="#000000" />
<rect x="105" y="6" width="1" height="1" fill="#000000" />
<rect x="106" y="6" width="1" height="1" fill="#000000" />
<rect x="107" y="6" width="1" height="1" fill="#000000" />
<rect x="4" y="7" width="1" height="1" fill="#000000" />
<rect x="5" y="7" width="1" height="1" fill="#000000" />
<rect x="6" y="7" width="1" height="1" fill="#000000" />
<rect x="7" y="7" width="1" height="1" fill="#000000" />
<rect x="14" y="7" width="1" height="1" fill="#000000" />
<rect x="15" y="7" width="1" height="1" fill="#000000" />
<rect x="16" y="7" width="1" height="1" fill="#000000" />
<rect x="17" y="7" width="1" height="1" fill="#000000" />
<rect x="24" y="7" width="1" height="1" fill="#000000" />
<rect x="25" y="7" width="1" height="1" fill="#000000" />
<rect x="26" y="7" width="1" height="1" fill="#000000" />
<rect x="27" y="7" width="1" height="1" fill="#000000" />
<rect x="42" y="7" width="1" height="1" fill="#000000" />
<rect x="43" y="7" width="1" height="1" fill="#000000" />
<rect x="44" y="7" width="1" height="1" fill="#000000" />
<rect x="45" y="7" width="1" height="1" fill="#000000" />
<rect x="48" y="7" width="1" height="1" fill="#000000" />
<rect x="49" y="7" width="1" height="1" fill="#000000" />
<rect x="50" y="7" width="1" height="1" fill="#000000" />
<rect x="51" y="7" width="1" height="1" fill="#000000" />
<rect x="58" y="7" width="1" height="1" fill="#000000" />
<rect x="59" y="7" width="1" height="1" fill="#000000" />
<rect x="60" y="7" width="1" height="1" fill="#000000" />
<rect x="61" y="7" width="1" height="1" fill="#000000" />
<rect x="68" y="7" width="1" height="1" fill="#000000" />
<rect x="69" y="7" width="1" height="1" fill="#000000" />
<rect x="70" y="7" width="1" height="1" fill="#000000" />
<rect x="71" y="7" width="1" height="1" fill="#000000" />
<rect x="78" y="7" width="1" height="1" fill="#000000" />
<rect x="79" y="7" width="1" height="1" fill="#000000" />
<rect x="80" y="7" width="1" height="1" fill="#000000" />
<rect x="81" y="7" width="1" height="1" fill="#000000" />
<rect x="88" y="7" width="1" height="1" fill="#000000" />
<rect x="89" y="7" width="1" height="1" fill="#000000" />
<rect x="90" y="7" width="1" height="1" fill="#000000" />
<rect x="91" y="7" width="1" height="1" fill="#000000" />
<rect x="94" y="7" width="1" height="1" fill="#000000" />
<rect x="95" y="7" width="1" height="1" fill="#000000" />
<rect x="96" y="7" width="1" height="1" fill="#000000" />
<rect x="97" y="7" width="1" height="1" fill="#000000" />
<rect x="104" y="7" width="1" height="1" fill="#000000" />
<rect x="105" y="7" width="1" height="1" fill="#000000" />
<rect x="106" y="7" width="1" height="1" fill="#000000" />
<rect x="107" y="7" width="1" height="1" fill="#000000" />
<rect x="4" y="8" width="1" height="1" fill="#000000" />
<rect x="5" y="8" width="1" height="1" fill="#000000" />
<rect x="6" y="8" width="1" height="1" fill="#000000" />
<rect x="7" y="8" width="1" height="1" fill="#000000" />
<rect x="14" y="8" width="1" height="1" fill="#000000" />
<rect x="15" y="8" width="1" height="1" fill="#000000" />
<rect x="16" y="8" width="1" height="1" fill="#000000" />
<rect x="17" y="8" width="1" height="1" fill="#000000" />
<rect x="24" y="8" width="1" height="1" fill="#000000" />
<rect x="25" y="8" width="1" height="1" fill="#000000" />
<rect x="26" y="8" width="1" height="1" fill="#000000" />
<rect x="27" y="8" width="1" height="1" fill="#000000" />
<rect x="32" y="8" width="1" height="1" fill="#000000" />
<rect x="33" y="8" width="1" height="1" fill="#000000" />
<rect x="34" y="8" width="1" height="1" fill="#000000" />
<rect x="35" y="8" width="1" height="1" fill="#000000" />
<rect x="36" y="8" width="1" height="1" fill="#000000" />
<rect x="37" y="8" width="1" height="1" fill="#000000" />
<rect x="38" y="8" width="1" height="1" fill="#000000" />
<rect x="39" y="8" width="1" height="1" fill="#000000" />
<rect x="40" y="8" width="1" height="1" fill="#000000" />
<rect x="41" y="8" width="1" height="1" fill="#000000" />
<rect x="42" y="8" width="1" height="1" fill="#000000" />
<rect x="43" y="8" width="1" height="1" fill="#000000" />
<rect x="44" y="8" width="1" height="1" fill="#000000" />
<rect x="45" y="8" width="1" height="1" fill="#000000" />
<rect x="48" y="8" width="1" height="1" fill="#000000" />
<rect x="49" y="8" width="1" height="1" fill="#000000" />
<rect x="50" y="8" width="1" height="1" fill="#000000" />
<rect x="51" y="8" width="1" height="1" fill="#000000" />
<rect x="58" y="8" width="1" height="1" fill="#000000" />
<rect x="59" y="8" width="1" height="1" fill="#000000" />
<rect x="60" y="8" width="1" height="1" fill="#000000" />
<rect x="61" y="8" width="1" height="1" fill="#000000" />
<rect x="68" y="8" width="1" height="1" fill="#000000" />
<rect x="69" y="8" width="1" height="1" fill="#000000" />
<rect x="70" y="8" width="1" height="1" fill="#000000" />
<rect x="71" y="8" width="1" height="1" fill="#000000" />
<rect x="78" y="8" width="1" height="1" fill="#000000" />
<rect x="79" y="8" width="1" height="1" fill="#000000" />
<rect x="80" y="8" width="1" height="1" fill="#000000" />
<rect x="81" y="8" width="1" height="1" fill="#000000" />
<rect x="88" y="8" width="1" height="1" fill="#000000" />
<rect x="89" y="8" width="1" height="1" fill="#000000" />
<rect x="90" y="8" width="1" height="1" fill="#000000" />
<rect x="91" y="8" width="1" height="1" fill="#000000" />
<rect x="94" y="8" width="1" height="1" fill="#000000" />
<rect x="95" y="8" width="1" height="1" fill="#000000" />
<rect x="96" y="8" width="1" height="1" fill="#000000" />
<rect x="97" y="8" width="1" height="1" fill="#000000" />
<rect x="104" y="8" width="1" height="1" fill="#000000" />
<rect x="105" y="8" width="1" height="1" fill="#000000" />
<rect x="106" y="8" width="1" height="1" fill="#000000" />
<rect x="107" y="8" width="1" height="1" fill="#000000" />
<rect x="4" y="9" width="1" height="1" fill="#000000" />
<rect x="5" y="9" width="1" height="1" fill="#000000" />
<rect x="6" y="9" width="1" height="1" fill="#000000" />
<rect x="7" y="9" width="1" height="1" fill="#000000" />
<rect x="14" y="9" width="1" height="1" fill="#000000" />
<rect x="15" y="9" width="1" height="1" fill="#000000" />
<rect x="16" y="9" width="1" height="1" fill="#000000" />
<rect x="17" y="9" width="1" height="1" fill="#000000" />
<rect x="24" y="9" width="1" height="1" fill="#000000" />
<rect x="25" y="9" width="1" height="1" fill="#000000" />
<rect x="26" y="9" width="1" height="1" fill="#000000" />
<rect x="27" y="9" width="1" height="1" fill="#000000" />
<rect x="32" y="9" width="1" height="1" fill="#000000" />
<rect x="33" y="9" width="1" height="1" fill="#000000" />
<rect x="34" y="9" width="1" height="1" fill="#000000" />
<rect x="35" y="9" width="1" height="1" fill="#000000" />
<rect x="36" y="9" width="1" height="1" fill="#000000" />
<rect x="37" y="9" width="1" height="1" fill="#000000" />
<rect x="38" y="9" width="1" height="1" fill="#000000" />
<rect x="39" y="9" width="1" height="1" fill="#000000" />
<rect x="40" y="9" width="1" height="1" fill="#000000" />
<rect x="41" y="9" width="1" height="1" fill="#000000" />
<rect x="42" y="9" width="1" height="1" fill="#000000" />
<rect x="43" y="9" width="1" height="1" fill="#000000" />
<rect x="44" y="9" width="1" height="1" fill="#000000" />
<rect x="45" y="9" width="1" height="1" fill="#000000" />
<rect x="48" y="9" width="1" height="1" fill="#000000" />
<rect x="49" y="9" width="1" height="1" fill="#000000" />
<rect x="50" y="9" width="1" height="1" fill="#000000" />
<rect x="51" y="9" width="1" height="1" fill="#000000" />
<rect x="58" y="9" width="1" height="1" fill="#000000" />
<rect x="59" y="9" width="1" height="1" fill="#000000" />
<rect x="60" y="9" width="1" height="1" fill="#000000" />
<rect x="61" y="9" width="1" height="1" fill="#000000" />
<rect x="68" y="9" width="1" height="1" fill="#000000" />
<rect x="69" y="9" width="1" height="1" fill="#000000" />
<rect x="70" y="9" width="1" height="1" fill="#000000" />
<rect x="71" y="9" width="1" height="1" fill="#000000" />
<rect x="78" y="9" width="1" height="1" fill="#000000" />
<rect x="79" y="9" width="1" height="1" fill="#000000" />
<rect x="80" y="9" width="1" height="1" fill="#000000" />
<rect x="81" y="9" width="1" height="1" fill="#000000" />
<rect x="88" y="9" width="1" height="1" fill="#000000" />
<rect x="89" y="9" width="1" height="1" fill="#000000" />
<rect x="90" y="9" width="1" height="1" fill="#000000" />
<rect x="91" y="9" width="1" height="1" fill="#000000" />
<rect x="94" y="9" width="1" height="1" fill="#000000" />
<rect x="95" y="9" width="1" height="1" fill="#000000" />
<rect x="96" y="9" width="1" height="1" fill="#000000" />
<rect x="97" y="9" width="1" height="1" fill="#000000" />
<rect x="104" y="9" width="1" height="1" fill="#000000" />
<rect x="105" y="9" width="1" height="1" fill="#000000" />
<rect x="106" y="9" width="1" height="1" fill="#000000" />
<rect x="107" y="9" width="1" height="1" fill="#000000" />
<rect x="4" y="10" width="1" height="1" fill="#000000" />
<rect x="5" y="10" width="1" height="1" fill="#000000" />
<rect x="6" y="10" width="1" height="1" fill="#000000" />
<rect x="7" y="10" width="1" height="1" fill="#000000" />
<rect x="14" y="10" width="1" height="1" fill="#000000" />
<rect x="15" y="10" width="1" height="1" fill="#000000" />
<rect x="16" y="10" width="1" height="1" fill="#000000" />
<rect x="17" y="10" width="1" height="1" fill="#000000" />
<rect x="24" y="10" width="1" height="1" fill="#000000" />
<rect x="25" y="10" width="1" height="1" fill="#000000" />
<rect x="26" y="10" width="1" height="1" fill="#000000" />
<rect x="27" y="10" width="1" height="1" fill="#000000" />
<rect x="30" y="10" width="1" height="1" fill="#000000" />
<rect x="31" y="10" width="1" height="1" fill="#000000" />
<rect x="32" y="10" width="1" height="1" fill="#000000" />
<rect x="33" y="10" width="1" height="1" fill="#000000" />
<rect x="40" y="10" width="1" height="1" fill="#000000" />
<rect x="41" y="10" width="1" height="1" fill="#000000" />
<rect x="42" y="10" width="1" height="1" fill="#000000" />
<rect x="43" y="10" width="1" height="1" fill="#000000" />
<rect x="44" y="10" width="1" height="1" fill="#000000" />
<rect x="45" y="10" width="1" height="1" fill="#000000" />
<rect x="48" y="10" width="1" height="1" fill="#000000" />
<rect x="49" y="10" width="1" height="1" fill="#000000" />
<rect x="50" y="10" width="1" height="1" fill="#000000" />
<rect x="51" y="10" width="1" height="1" fill="#000000" />
<rect x="58" y="10" width="1" height="1" fill="#000000" />
<rect x="59" y="10" width="1" height="1" fill="#000000" />
<rect x="60" y="10" width="1" height="1" fill="#000000" />
<rect x="61" y="10" width="1" height="1" fill="#000000" />
<rect x="68" y="10" width="1" height="1" fill="#000000" />
<rect x="69" y="10" width="1" height="1" fill="#000000" />
<rect x="70" y="10" width="1" height="1" fill="#000000" />
<rect x="71" y="10" width="1" height="1" fill="#000000" />
<rect x="78" y="10" width="1" height="1" fill="#000000" />
<rect x="79" y="10" width="1" height="1" fill="#000000" />
<rect x="80" y="10" width="1" height="1" fill="#000000" />
<rect x="81" y="10" width="1" height="1" fill="#000000" />
<rect x="88" y="10" width="1" height="1" fill="#000000" />
<rect x="89" y="10" width="1" height="1" fill="#000000" />
<rect x="90" y="10" width="1" height="1" fill="#000000" />
<rect x="91" y="10" width="1" height="1" fill="#000000" />
<rect x="96" y="10" width="1" height="1" fill="#000000" />
<rect x="97" y="10" width="1" height="1" fill="#000000" />
<rect x="98" y="10" width="1" height="1" fill="#000000" />
<rect x="99" y="10" width="1" height="1" fill="#000000" />
<rect x="100" y="10" width="1" height="1" fill="#000000" />
<rect x="101" y="10" width="1" height="1" fill="#000000" />
<rect x="102" y="10" width="1" height="1" fill="#000000" />
<rect x="103" y="10" width="1" height="1" fill="#000000" />
<rect x="104" y="10" width="1" height="1" fill="#000000" />
<rect x="105" y="10" width="1" height="1" fill="#000000" />
<rect x="106" y="10" width="1" height="1" fill="#000000" />
<rect x="107" y="10" width="1" height="1" fill="#000000" />
<rect x="110" y="10" width="1" height="1" fill="#000000" />
<rect x="111" y="10" width="1" height="1" fill="#000000" />
<rect x="112" y="10" width="1" height="1" fill="#000000" />
<rect x="113" y="10" width="1" height="1" fill="#000000" />
<rect x="118" y="10" width="1" height="1" fill="#000000" />
<rect x="119" y="10" width="1" height="1" fill="#000000" />
<rect x="120" y="10" width="1" height="1" fill="#000000" />
<rect x="121" y="10" width="1" height="1" fill="#000000" />
<rect x="126" y="10" width="1" height="1" fill="#000000" />
<rect x="127" y="10" width="1" height="1" fill="#000000" />
<rect x="128" y="10" width="1" height="1" fill="#000000" />
<rect x="129" y="10" width="1" height="1" fill="#000000" />
<rect x="4" y="11" width="1" height="1" fill="#000000" />
<rect x="5" y="11" width="1" height="1" fill="#000000" />
<rect x="6" y="11" width="1" height="1" fill="#000000" />
<rect x="7" y="11" width="1" height="1" fill="#000000" />
<rect x="14" y="11" width="1" height="1" fill="#000000" />
<rect x="15" y="11" width="1" height="1" fill="#000000" />
<rect x="16" y="11" width="1" height="1" fill="#000000" />
<rect x="17" y="11" width="1" height="1" fill="#000000" />
<rect x="24" y="11" width="1" height="1" fill="#000000" />
<rect x="25" y="11" width="1" height="1" fill="#000000" />
<rect x="26" y="11" width="1" height="1" fill="#000000" />
<rect x="27" y="11" width="1" height="1" fill="#000000" />
<rect x="30" y="11" width="1" height="1" fill="#000000" />
<rect x="31" y="11" width="1" height="1" fill="#000000" />
<rect x="32" y="11" width="1" height="1" fill="#000000" />
<rect x="33" y="11" width="1" height="1" fill="#000000" />
<rect x="40" y="11" width="1" height="1" fill="#000000" />
<rect x="41" y="11" width="1" height="1" fill="#000000" />
<rect x="42" y="11" width="1" height="1" fill="#000000" />
<rect x="43" y="11" width="1" height="1" fill="#000000" />
<rect x="44" y="11" width="1" height="1" fill="#000000" />
<rect x="45" y="11" width="1" height="1" fill="#000000" />
<rect x="48" y="11" width="1" height="1" fill="#000000" />
<rect x="49" y="11" width="1" height="1" fill="#000000" />
<rect x="50" y="11" width="1" height="1" fill="#000000" />
<rect x="51" y="11" width="1" height="1" fill="#000000" />
<rect x="58" y="11" width="1" height="1" fill="#000000" />
<rect x="59" y="11" width="1" height="1" fill="#000000" />
<rect x="60" y="11" width="1" height="1" fill="#000000" />
<rect x="61" y="11" width="1" height="1" fill="#000000" />
<rect x="68" y="11" width="1" height="1" fill="#000000" />
<rect x="69" y="11" width="1" height="1" fill="#000000" />
<rect x="70" y="11" width="1" height="1" fill="#000000" />
<rect x="71" y="11" width="1" height="1" fill="#000000" />
<rect x="78" y="11" width="1" height="1" fill="#000000" />
<rect x="79" y="11" width="1" height="1" fill="#000000" />
<rect x="80" y="11" width="1" height="1" fill="#000000" />
<rect x="81" y="11" width="1" height="1" fill="#000000" />
<rect x="88" y="11" width="1" height="1" fill="#000000" />
<rect x="89" y="11" width="1" height="1" fill="#000000" />
<rect x="90" y="11" width="1" height="1" fill="#000000" />
<rect x="91" y="11" width="1" height="1" fill="#000000" />
<rect x="96" y="11" width="1" height="1" fill="#000000" />
<rect x="97" y="11" width="1" height="1" fill="#000000" />
<rect x="98" y="11" width="1" height="1" fill="#000000" />
<rect x="99" y="11" width="1" height="1" fill="#000000" />
<rect x="100" y="11" width="1" height="1" fill="#000000" />
<rect x="101" y="11" width="1" height="1" fill="#000000" />
<rect x="102" y="11" width="1" height="1" fill="#000000" />
<rect x="103" y="11" width="1" height="1" fill="#000000" />
<rect x="104" y="11" width="1" height="1" fill="#000000" />
<rect x="105" y="11" width="1" height="1" fill="#000000" />
<rect x="106" y="11" width="1" height="1" fill="#000000" />
<rect x="107" y="11" width="1" height="1" fill="#000000" />
<rect x="110" y="11" width="1" height="1" fill="#000000" />
<rect x="111" y="11" width="1" height="1" fill="#000000" />
<rect x="112" y="11" width="1" height="1" fill="#000000" />
<rect x="113" y="11" width="1" height="1" fill="#000000" />
<rect x="118" y="11" width="1" height="1" fill="#000000" />
<rect x="119" y="11" width="1" height="1" fill="#000000" />
<rect x="120" y="11" width="1" height="1" fill="#000000" />
<rect x="121" y="11" width="1" height="1" fill="#000000" />
<rect x="126" y="11" width="1" height="1" fill="#000000" />
<rect x="127" y="11" width="1" height="1" fill="#000000" />
<rect x="128" y="11" width="1" height="1" fill="#000000" />
<rect x="129" y="11" width="1" height="1" fill="#000000" />
<rect x="0" y="12" width="1" height="1" fill="#000000" />
<rect x="1" y="12" width="1" height="1" fill="#000000" />
<rect x="2" y="12" width="1" height="1" fill="#000000" />
<rect x="3" y="12" width="1" height="1" fill="#000000" />
<rect x="4" y="12" width="1" height="1" fill="#000000" />
<rect x="5" y="12" width="1" height="1" fill="#000000" />
<rect x="6" y="12" width="1" height="1" fill="#000000" />
<rect x="7" y="12" width="1" height="1" fill="#000000" />
<rect x="8" y="12" width="1" height="1" fill="#000000" />
<rect x="9" y="12" width="1" height="1" fill="#000000" />
<rect x="10" y="12" width="1" height="1" fill="#000000" />
<rect x="11" y="12" width="1" height="1" fill="#000000" />
<rect x="16" y="12" width="1" height="1" fill="#000000" />
<rect x="17" y="12" width="1" height="1" fill="#000000" />
<rect x="18" y="12" width="1" height="1" fill="#000000" />
<rect x="19" y="12" width="1" height="1" fill="#000000" />
<rect x="20" y="12" width="1" height="1" fill="#000000" />
<rect x="21" y="12" width="1" height="1" fill="#000000" />
<rect x="22" y="12" width="1" height="1" fill="#000000" />
<rect x="23" y="12" width="1" height="1" fill="#000000" />
<rect x="24" y="12" width="1" height="1" fill="#000000" />
<rect x="25" y="12" width="1" height="1" fill="#000000" />
<rect x="32" y="12" width="1" height="1" fill="#000000" />
<rect x="33" y="12" width="1" height="1" fill="#000000" />
<rect x="34" y="12" width="1" height="1" fill="#000000" />
<rect x="35" y="12" width="1" height="1" fill="#000000" />
<rect x="36" y="12" width="1" height="1" fill="#000000" />
<rect x="37" y="12" width="1" height="1" fill="#000000" />
<rect x="38" y="12" width="1" height="1" fill="#000000" />
<rect x="39" y="12" width="1" height="1" fill="#000000" />
<rect x="40" y="12" width="1" height="1" fill="#000000" />
<rect x="41" y="12" width="1" height="1" fill="#000000" />
<rect x="42" y="12" width="1" height="1" fill="#000000" />
<rect x="43" y="12" width="1" height="1" fill="#000000" />
<rect x="44" y="12" width="1" height="1" fill="#000000" />
<rect x="45" y="12" width="1" height="1" fill="#000000" />
<rect x="50" y="12" width="1" height="1" fill="#000000" />
<rect x="51" y="12" width="1" height="1" fill="#000000" />
<rect x="52" y="12" width="1" height="1" fill="#000000" />
<rect x="53" y="12" width="1" height="1" fill="#000000" />
<rect x="54" y="12" width="1" height="1" fill="#000000" />
<rect x="55" y="12" width="1" height="1" fill="#000000" />
<rect x="56" y="12" width="1" height="1" fill="#000000" />
<rect x="57" y="12" width="1" height="1" fill="#000000" />
<rect x="58" y="12" width="1" height="1" fill="#000000" />
<rect x="59" y="12" width="1" height="1" fill="#000000" />
<rect x="60" y="12" width="1" height="1" fill="#000000" />
<rect x="61" y="12" width="1" height="1" fill="#000000" />
<rect x="64" y="12" width="1" height="1" fill="#000000" />
<rect x="65" y="12" width="1" height="1" fill="#000000" />
<rect x="66" y="12" width="1" height="1" fill="#000000" />
<rect x="67" y="12" width="1" height="1" fill="#000000" />
<rect x="68" y="12" width="1" height="1" fill="#000000" />
<rect x="69" y="12" width="1" height="1" fill="#000000" />
<rect x="70" y="12" width="1" height="1" fill="#000000" />
<rect x="71" y="12" width="1" height="1" fill="#000000" />
<rect x="72" y="12" width="1" height="1" fill="#000000" />
<rect x="73" y="12" width="1" height="1" fill="#000000" />
<rect x="74" y="12" width="1" height="1" fill="#000000" />
<rect x="75" y="12" width="1" height="1" fill="#000000" />
<rect x="78" y="12" width="1" height="1" fill="#000000" />
<rect x="79" y="12" width="1" height="1" fill="#000000" />
<rect x="80" y="12" width="1" height="1" fill="#000000" />
<rect x="81" y="12" width="1" height="1" fill="#000000" />
<rect x="88" y="12" width="1" height="1" fill="#000000" />
<rect x="89" y="12" width="1" height="1" fill="#000000" />
<rect x="90" y="12" width="1" height="1" fill="#000000" />
<rect x="91" y="12" width="1" height="1" fill="#000000" />
<rect x="104" y="12" width="1" height="1" fill="#000000" />
<rect x="105" y="12" width="1" height="1" fill="#000000" />
<rect x="106" y="12" width="1" height="1" fill="#000000" />
<rect x="107" y="12" width="1" height="1" fill="#000000" />
<rect x="110" y="12" width="1" height="1" fill="#000000" />
<rect x="111" y="12" width="1" height="1" fill="#000000" />
<rect x="112" y="12" width="1" height="1" fill="#000000" />
<rect x="113" y="12" width="1" height="1" fill="#000000" />
<rect x="118" y="12" width="1" height="1" fill="#000000" />
<rect x="119" y="12" width="1" height="1" fill="#000000" />
<rect x="120" y="12" width="1" height="1" fill="#000000" />
<rect x="121" y="12" width="1" height="1" fill="#000000" />
<rect x="126" y="12" width="1" height="1" fill="#000000" />
<rect x="127" y="12" width="1" height="1" fill="#000000" />
<rect x="128" y="12" width="1" height="1" fill="#000000" />
<rect x="129" y="12" width="1" height="1" fill="#000000" />
<rect x="0" y="13" width="1" height="1" fill="#000000" />
<rect x="1" y="13" width="1" height="1" fill="#000000" />
<rect x="2" y="13" width="1" height="1" fill="#000000" />
<rect x="3" y="13" width="1" height="1" fill="#000000" />
<rect x="4" y="13" width="1" height="1" fill="#000000" />
<rect x="5" y="13" width="1" height="1" fill="#000000" />
<rect x="6" y="13" width="1" height="1" fill="#000000" />
<rect x="7" y="13" width="1" height="1" fill="#000000" />
<rect x="8" y="13" width="1" height="1" fill="#000000" />
<rect x="9" y="13" width="1" height="1" fill="#000000" />
<rect x="10" y="13" width="1" height="1" fill="#000000" />
<rect x="11" y="13" width="1" height="1" fill="#000000" />
<rect x="16" y="13" width="1" height="1" fill="#000000" />
<rect x="17" y="13" width="1" height="1" fill="#000000" />
<rect x="18" y="13" width="1" height="1" fill="#000000" />
<rect x="19" y="13" width="1" height="1" fill="#000000" />
<rect x="20" y="13" width="1" height="1" fill="#000000" />
<rect x="21" y="13" width="1" height="1" fill="#000000" />
<rect x="22" y="13" width="1" height="1" fill="#000000" />
<rect x="23" y="13" width="1" height="1" fill="#000000" />
<rect x="24" y="13" width="1" height="1" fill="#000000" />
<rect x="25" y="13" width="1" height="1" fill="#000000" />
<rect x="32" y="13" width="1" height="1" fill="#000000" />
<rect x="33" y="13" width="1" height="1" fill="#000000" />
<rect x="34" y="13" width="1" height="1" fill="#000000" />
<rect x="35" y="13" width="1" height="1" fill="#000000" />
<rect x="36" y="13" width="1" height="1" fill="#000000" />
<rect x="37" y="13" width="1" height="1" fill="#000000" />
<rect x="38" y="13" width="1" height="1" fill="#000000" />
<rect x="39" y="13" width="1" height="1" fill="#000000" />
<rect x="40" y="13" width="1" height="1" fill="#000000" />
<rect x="41" y="13" width="1" height="1" fill="#000000" />
<rect x="42" y="13" width="1" height="1" fill="#000000" />
<rect x="43" y="13" width="1" height="1" fill="#000000" />
<rect x="44" y="13" width="1" height="1" fill="#000000" />
<rect x="45" y="13" width="1" height="1" fill="#000000" />
<rect x="50" y="13" width="1" height="1" fill="#000000" />
<rect x="51" y="13" width="1" height="1" fill="#000000" />
<rect x="52" y="13" width="1" height="1" fill="#000000" />
<rect x="53" y="13" width="1" height="1" fill="#000000" />
<rect x="54" y="13" width="1" height="1" fill="#000000" />
<rect x="55" y="13" width="1" height="1" fill="#000000" />
<rect x="56" y="13" width="1" height="1" fill="#000000" />
<rect x="57" y="13" width="1" height="1" fill="#000000" />
<rect x="58" y="13" width="1" height="1" fill="#000000" />
<rect x="59" y="13" width="1" height="1" fill="#000000" />
<rect x="60" y="13" width="1" height="1" fill="#000000" />
<rect x="61" y="13" width="1" height="1" fill="#000000" />
<rect x="64" y="13" width="1" height="1" fill="#000000" />
<rect x="65" y="13" width="1" height="1" fill="#000000" />
<rect x="66" y="13" width="1" height="1" fill="#000000" />
<rect x="67" y="13" width="1" height="1" fill="#000000" />
<rect x="68" y="13" width="1" height="1" fill="#000000" />
<rect x="69" y="13" width="1" height="1" fill="#000000" />
<rect x="70" y="13" width="1" height="1" fill="#000000" />
<rect x="71" y="13" width="1" height="1" fill="#000000" />
<rect x="72" y="13" width="1" height="1" fill="#000000" />
<rect x="73" y="13" width="1" height="1" fill="#000000" />
<rect x="74" y="13" width="1" height="1" fill="#000000" />
<rect x="75" y="13" width="1" height="1" fill="#000000" />
<rect x="78" y="13" width="1" height="1" fill="#000000" />
<rect x="79" y="13" width="1" height="1" fill="#000000" />
<rect x="80" y="13" width="1" height="1" fill="#000000" />
<rect x="81" y="13" width="1" height="1" fill="#000000" />
<rect x="88" y="13" width="1" height="1" fill="#000000" />
<rect x="89" y="13" width="1" height="1" fill="#000000" />
<rect x="90" y="13" width="1" height="1" fill="#000000" />
<rect x="91" y="13" width="1" height="1" fill="#000000" />
<rect x="104" y="13" width="1" height="1" fill="#000000" />
<rect x="105" y="13" width="1" height="1" fill="#000000" />
<rect x="106" y="13" width="1" height="1" fill="#000000" />
<rect x="107" y="13" width="1" height="1" fill="#000000" />
<rect x="110" y="13" width="1" height="1" fill="#000000" />
<rect x="111" y="13" width="1" height="1" fill="#000000" />
<rect x="112" y="13" width="1" height="1" fill="#000000" />
<rect x="113" y="13" width="1" height="1" fill="#000000" />
<rect x="118" y="13" width="1" height="1" fill="#000000" />
<rect x="119" y="13" width="1" height="1" fill="#000000" />
<rect x="120" y="13" width="1" height="1" fill="#000000" />
<rect x="121" y="13" width="1" height="1" fill="#000000" />
<rect x="126" y="13" width="1" height="1" fill="#000000" />
<rect x="127" y="13" width="1" height="1" fill="#000000" />
<rect x="128" y="13" width="1" height="1" fill="#000000" />
<rect x="129" y="13" width="1" height="1" fill="#000000" />
<rect x="96" y="14" width="1" height="1" fill="#000000" />
<rect x="97" y="14" width="1" height="1" fill="#000000" />
<rect x="98" y="14" width="1" height="1" fill="#000000" />
<rect x="99" y="14" width="1" height="1" fill="#000000" />
<rect x="100" y="14" width="1" height="1" fill="#000000" />
<rect x="101" y="14" width="1" height="1" fill="#000000" />
<rect x="102" y="14" width="1" height="1" fill="#000000" />
<rect x="103" y="14" width="1" height="1" fill="#000000" />
<rect x="104" y="14" width="1" height="1" fill="#000000" />
<rect x="105" y="14" width="1" height="1" fill="#000000" />
<rect x="96" y="15" width="1" height="1" fill="#000000" />
<rect x="97" y="15" width="1" height="1" fill="#000000" />
<rect x="98" y="15" width="1" height="1" fill="#000000" />
<rect x="99" y="15" width="1" height="1" fill="#000000" />
<rect x="100" y="15" width="1" height="1" fill="#000000" />
<rect x="101" y="15" width="1" height="1" fill="#000000" />
<rect x="102" y="15" width="1" height="1" fill="#000000" />
<rect x="103" y="15" width="1" height="1" fill="#000000" />
<rect x="104" y="15" width="1" height="1" fill="#000000" />
<rect x="105" y="15" width="1" height="1" fill="#000000" />
</svg>