<svg
  version="1.1"
  width="160"
  height="160"
  xmlns="http://www.w3.org/2000/svg"
  shape-rendering="crispEdges"
>
  <rect x="0" y="0" width="4" height="160" fill="#000000" />
  <rect x="4" y="0" width="4" height="4" fill="#000000" />
  <rect x="4" y="8" width="4" height="12" fill="#000000" />
  <rect x="8" y="0" width="4" height="12" fill="#000000" />
  <rect x="12" y="0" width="8" height="8" fill="#000000" />
  <rect x="20" y="0" width="120" height="4" fill="#000000" />
  <rect x="148" y="0" width="4" height="12" fill="#000000" />
  <rect x="152" y="0" width="4" height="4" fill="#000000" />
  <rect x="156" y="0" width="4" height="160" fill="#000000" />
  <rect x="152" y="8" width="4" height="12" fill="#000000" />
  <rect x="4" y="140" width="4" height="12" fill="#000000" />
  <rect x="140" y="0" width="8" height="8" fill="#000000" />
  <rect x="8" y="148" width="4" height="12" fill="#000000" />
  <rect x="148" y="148" width="4" height="12" fill="#000000" />
  <rect x="12" y="152" width="8" height="8" fill="#000000" />
  <rect x="140" y="152" width="8" height="8" fill="#000000" />
  <rect x="152" y="140" width="4" height="12" fill="#000000" />
  <rect x="4" y="156" width="4" height="4" fill="#000000" />
  <rect x="20" y="156" width="120" height="4" fill="#000000" />
  <rect x="152" y="156" width="4" height="4" fill="#000000" />
  <rect x="4" y="4" width="4" height="4" fill="#DEEDD6" />
  <rect x="152" y="4" width="4" height="4" fill="#DEEDD6" />
  <rect x="4" y="152" width="4" height="4" fill="#DEEDD6" />
  <rect x="152" y="152" width="4" height="4" fill="#DEEDD6" />
  <rect x="24" y="4" width="112" height="4" fill="#4E4A4E" />
  <rect x="136" y="4" width="4" height="8" fill="#4E4A4E" />
  <rect x="13" y="8" width="3" height="8" fill="#4E4A4E" />
  <rect x="8" y="12" width="4" height="12" fill="#4E4A4E" />
  <rect x="12" y="8" width="1" height="8" fill="#4E4A4E" />
  <rect x="16" y="8" width="4" height="4" fill="#4E4A4E" />
  <rect x="4" y="20" width="4" height="120" fill="#4E4A4E" />
  <rect x="20" y="4" width="4" height="8" fill="#4E4A4E" />
  <rect x="140" y="8" width="4" height="4" fill="#4E4A4E" />
  <rect x="144" y="8" width="4" height="8" fill="#4E4A4E" />
  <rect x="8" y="136" width="4" height="12" fill="#4E4A4E" />
  <rect x="12" y="144" width="4" height="8" fill="#4E4A4E" />
  <rect x="144" y="144" width="4" height="8" fill="#4E4A4E" />
  <rect x="16" y="148" width="4" height="4" fill="#4E4A4E" />
  <rect x="20" y="148" width="4" height="8" fill="#4E4A4E" />
  <rect x="136" y="148" width="4" height="8" fill="#4E4A4E" />
  <rect x="140" y="148" width="4" height="4" fill="#4E4A4E" />
  <rect x="148" y="12" width="4" height="12" fill="#4E4A4E" />
  <rect x="148" y="136" width="4" height="12" fill="#4E4A4E" />
  <rect x="24" y="152" width="112" height="4" fill="#4E4A4E" />
  <rect x="152" y="20" width="4" height="120" fill="#4E4A4E" />
  <rect x="8" y="24" width="4" height="112" fill="#757161" />
  <rect x="24" y="8" width="112" height="144" fill="#757161" />
  <rect x="12" y="16" width="4" height="128" fill="#757161" />
  <rect x="16" y="12" width="8" height="136" fill="#757161" />
  <rect x="136" y="12" width="8" height="136" fill="#757161" />
  <rect x="144" y="16" width="4" height="128" fill="#757161" />
  <rect x="148" y="24" width="4" height="112" fill="#757161" />
</svg>
